<svg width="44" height="44" viewBox="0 0 44 44" fill="none" xmlns="http://www.w3.org/2000/svg">
<rect x="0.5" y="0.5" width="43" height="43" rx="7.5" stroke="url(#paint0_linear_105_576)"/>
<path d="M25.1093 22.25C25.1093 23.4149 24.1648 24.3594 22.9999 24.3594C21.835 24.3594 20.8905 23.4149 20.8905 22.25C20.8905 21.0851 21.835 20.1406 22.9999 20.1406C24.1648 20.1406 25.1093 21.0851 25.1093 22.25Z" fill="white"/>
<path d="M26.5625 15.875H19.4375C17.8866 15.875 16.625 17.1366 16.625 18.6875V25.8125C16.625 27.3634 17.8866 28.625 19.4375 28.625H26.5625C28.1134 28.625 29.375 27.3634 29.375 25.8125V18.6875C29.375 17.1366 28.1134 15.875 26.5625 15.875ZM23 25.7656C21.0615 25.7656 19.4844 24.1885 19.4844 22.25C19.4844 20.3115 21.0615 18.7344 23 18.7344C24.9385 18.7344 26.5156 20.3115 26.5156 22.25C26.5156 24.1885 24.9385 25.7656 23 25.7656ZM27.0313 18.9219C26.6429 18.9219 26.3281 18.6071 26.3281 18.2188C26.3281 17.8304 26.6429 17.5156 27.0313 17.5156C27.4196 17.5156 27.7344 17.8304 27.7344 18.2188C27.7344 18.6071 27.4196 18.9219 27.0313 18.9219Z" fill="url(#paint1_linear_105_576)"/>
<path d="M28.6719 10.25H17.3281C13.8389 10.25 11 13.0889 11 16.5781V27.9219C11 31.4111 13.8389 34.25 17.3281 34.25H28.6719C32.1611 34.25 35 31.4111 35 27.9219V16.5781C35 13.0889 32.1611 10.25 28.6719 10.25ZM30.7812 25.8125C30.7812 28.1387 28.8887 30.0312 26.5625 30.0312H19.4375C17.1113 30.0312 15.2188 28.1387 15.2188 25.8125V18.6875C15.2188 16.3613 17.1113 14.4688 19.4375 14.4688H26.5625C28.8887 14.4688 30.7812 16.3613 30.7812 18.6875V25.8125Z" fill="url(#paint2_linear_105_576)"/>
<defs>
<linearGradient id="paint0_linear_105_576" x1="22" y1="0" x2="22" y2="44" gradientUnits="userSpaceOnUse">
<stop stop-color="#F0F0F0"/>
<stop offset="1" stop-color="#F0F0F0" stop-opacity="0"/>
</linearGradient>
<linearGradient id="paint1_linear_105_576" x1="16.625" y1="26.01" x2="28.8213" y2="18.0386" gradientUnits="userSpaceOnUse">
<stop stop-color="#234DAE"/>
<stop offset="1" stop-color="#347BCE"/>
</linearGradient>
<linearGradient id="paint2_linear_105_576" x1="11" y1="29.3276" x2="33.9577" y2="14.3227" gradientUnits="userSpaceOnUse">
<stop stop-color="#234DAE"/>
<stop offset="1" stop-color="#347BCE"/>
</linearGradient>
</defs>
</svg>
