<svg width="44" height="44" viewBox="0 0 44 44" fill="none" xmlns="http://www.w3.org/2000/svg">
<rect x="0.5" y="0.5" width="43" height="43" rx="7.5" stroke="url(#paint0_linear_105_587)"/>
<path d="M29.7014 14.1983C28.6928 13.1804 27.4917 12.3733 26.168 11.8242C24.8444 11.2752 23.4247 10.995 21.9917 11.0001C15.9871 11.0001 11.0935 15.8923 11.088 21.8983C11.088 23.8219 11.5913 25.6933 12.5414 27.3502L11 33.0001L16.7805 31.4848C18.3796 32.3551 20.1712 32.8112 21.9917 32.8117H21.9973C28.0033 32.8117 32.8955 27.9194 32.901 21.9079C32.9024 20.4753 32.6202 19.0564 32.0709 17.7333C31.5215 16.4101 30.7157 15.2087 29.7 14.1983H29.7014ZM21.9917 30.9664C20.3679 30.967 18.7738 30.53 17.3773 29.7014L17.0472 29.5034L13.618 30.4027L14.5337 27.0573L14.3193 26.7122C13.4115 25.2689 12.9314 23.5979 12.9346 21.8928C12.9346 16.9071 17.0005 12.8398 21.9973 12.8398C23.1876 12.8377 24.3667 13.0712 25.4664 13.5269C26.5661 13.9826 27.5648 14.6515 28.4048 15.4949C29.2477 16.3351 29.9159 17.3339 30.3709 18.4336C30.8259 19.5334 31.0587 20.7123 31.0557 21.9024C31.0503 26.9061 26.9844 30.9664 21.9917 30.9664ZM26.9624 24.1822C26.6915 24.0461 25.3536 23.3874 25.102 23.2939C24.8517 23.2046 24.6689 23.1578 24.4901 23.4301C24.3073 23.7009 23.7847 24.3183 23.628 24.4957C23.4712 24.6786 23.309 24.6992 23.0367 24.5644C22.7659 24.4269 21.8872 24.1409 20.8478 23.2101C20.0365 22.4882 19.4934 21.5944 19.3311 21.3236C19.1744 21.0513 19.316 20.9056 19.4521 20.7694C19.5717 20.6484 19.723 20.4504 19.8591 20.2937C19.9966 20.1369 20.042 20.0214 20.1314 19.8399C20.2207 19.6557 20.1781 19.4989 20.1108 19.3628C20.042 19.2267 19.4989 17.8833 19.2692 17.3416C19.0492 16.8067 18.8251 16.8809 18.6574 16.8741C18.5006 16.8644 18.3177 16.8644 18.1349 16.8644C17.9968 16.8679 17.8609 16.8998 17.7357 16.9583C17.6105 17.0167 17.4988 17.1004 17.4075 17.2041C17.1572 17.4763 16.4574 18.1349 16.4574 19.4783C16.4574 20.8217 17.4336 22.1128 17.5711 22.2957C17.7059 22.4786 19.4879 25.2272 22.2227 26.4097C22.869 26.6916 23.3778 26.8579 23.7751 26.9844C24.4283 27.1934 25.0181 27.1618 25.4884 27.0944C26.0109 27.0147 27.0985 26.4344 27.3281 25.7978C27.5536 25.1598 27.5536 24.6153 27.4849 24.5012C27.4175 24.3857 27.2346 24.3183 26.9624 24.1822Z" fill="url(#paint1_linear_105_587)"/>
<defs>
<linearGradient id="paint0_linear_105_587" x1="22" y1="0" x2="22" y2="44" gradientUnits="userSpaceOnUse">
<stop stop-color="#F0F0F0"/>
<stop offset="1" stop-color="#F0F0F0" stop-opacity="0"/>
</linearGradient>
<linearGradient id="paint1_linear_105_587" x1="11" y1="28.4879" x2="32.0064" y2="14.8201" gradientUnits="userSpaceOnUse">
<stop stop-color="#234DAE"/>
<stop offset="1" stop-color="#347BCE"/>
</linearGradient>
</defs>
</svg>
