<svg width="96" height="96" viewBox="0 0 96 96" fill="none" xmlns="http://www.w3.org/2000/svg">
<g clip-path="url(#clip0_162_972)">
<path d="M64.7719 39.4452C60.9388 39.4452 57.6393 36.7373 56.8915 32.9772C56.1437 29.2178 58.1556 25.453 61.6976 23.9865C65.2388 22.5199 69.3238 23.7589 71.4533 26.9462C73.5829 30.1343 73.1639 34.3817 70.4529 37.092C68.9495 38.604 66.9038 39.4507 64.7719 39.4452ZM64.7719 26.5892C62.8228 26.5892 61.0651 27.7639 60.3189 29.5655C59.5727 31.3663 59.9854 33.4394 61.3633 34.8188C63.2708 36.6392 66.273 36.6392 68.1805 34.8188C69.5592 33.4394 69.9711 31.3663 69.2249 29.5655C68.4787 27.7639 66.7218 26.5892 64.7719 26.5892Z" fill="url(#paint0_linear_162_972)"/>
<path d="M52.9395 40.9728L48.3931 45.5176C47.9757 45.9209 47.8078 46.5188 47.9545 47.0806C48.102 47.6424 48.5407 48.0811 49.1025 48.2278C49.6643 48.3753 50.2622 48.2074 50.6655 47.79L55.2119 43.2452C55.8208 42.6151 55.8122 41.6123 55.1923 40.9924C54.5724 40.3725 53.5696 40.3639 52.9395 40.9728Z" fill="url(#paint1_linear_162_972)"/>
<path d="M43.8489 50.0624L42.7127 51.1986C42.2851 51.5995 42.1101 52.2014 42.2553 52.7695C42.4012 53.3376 42.8445 53.7809 43.4119 53.9268C43.98 54.0728 44.5826 53.8978 44.9835 53.471L46.1197 52.3348C46.7286 51.7039 46.72 50.7019 46.1001 50.082C45.4802 49.4621 44.4782 49.4535 43.8473 50.0624H43.8489Z" fill="url(#paint2_linear_162_972)"/>
<path d="M96.025 3.13795L95.9253 1.74517C95.8649 0.954227 95.2364 0.324925 94.4447 0.264505L93.0519 0.158575C75.451 -1.20753 58.3272 6.29074 47.3937 20.1511L40.7421 28.5674C32.4968 23.2835 21.6833 24.4652 14.7736 31.4056C14.4699 31.7069 14.2988 32.1165 14.2988 32.5441C14.2988 32.9718 14.4683 33.3821 14.772 33.6842L27.0151 45.9423L26.8417 46.162C25.325 48.0813 25.485 50.8316 27.2144 52.561L27.2709 52.6159L23.8639 56.0213C20.7323 59.1624 20.7323 64.2446 23.8639 67.3857L28.7995 72.3212C31.9413 75.4512 37.022 75.4512 40.1638 72.3212L43.5724 68.911L43.6273 68.9652C45.3559 70.6962 48.1062 70.8578 50.0263 69.3418L50.246 69.1661L62.4993 81.4116C62.8014 81.7129 63.2094 81.8816 63.6355 81.8808C64.0624 81.8808 64.472 81.7113 64.7733 81.4084C71.7121 74.4971 72.893 63.6836 67.6098 55.4375L76.0317 48.7898C89.8881 37.8555 97.3856 20.7365 96.025 3.13795ZM18.2363 32.5959C24.0389 27.7372 32.2999 27.1354 38.7451 31.1035L29.0254 43.3984L18.2363 32.5959ZM37.8914 70.0394C36.0066 71.9187 32.9566 71.9187 31.0719 70.0394L26.1363 65.1054C24.2578 63.2206 24.2578 60.1707 26.1363 58.2851L29.5465 54.8789L41.3 66.6308L37.8914 70.0394ZM67.6899 66.6434C67.6954 70.777 66.2422 74.7796 63.5876 77.9473L52.7867 67.1573L65.0801 57.44C66.7914 60.2044 67.6954 63.3925 67.6899 66.6434ZM74.0394 46.2617L48.0363 66.8168C47.3976 67.3213 46.4819 67.2687 45.906 66.6936L29.4915 50.2838C28.9125 49.7071 28.8583 48.7875 29.3668 48.1472L49.9219 22.1441C53.7652 17.2871 58.481 13.1887 63.827 10.0611L86.1382 32.3566C83.005 37.7041 78.902 42.4191 74.0394 46.2617ZM87.7295 29.4031L66.7726 8.45407C73.669 5.0086 81.2717 3.21407 88.981 3.21171C90.249 3.21171 91.5249 3.26036 92.7992 3.35844L92.8204 3.37885C93.5085 12.3546 91.7485 21.3485 87.7295 29.4031Z" fill="url(#paint3_linear_162_972)"/>
<path d="M1.79093 95.9999C1.30836 95.9999 0.850901 95.7833 0.545666 95.409C0.240431 95.0355 0.119592 94.5443 0.216106 94.0712C0.587253 92.2665 3.95033 76.3252 7.94429 72.3336C12.3376 67.9402 19.4601 67.9402 23.8534 72.3336C28.2467 76.7269 28.2467 83.8493 23.8534 88.2427C19.8634 92.2351 3.92679 95.5981 2.11735 95.9693C2.00985 95.9897 1.9 95.9999 1.79093 95.9999ZM15.8969 72.252C13.7649 72.2457 11.7201 73.0931 10.2167 74.6044C8.01334 76.8077 5.39569 85.7796 3.89305 92.2892C10.4042 90.7952 19.3761 88.1705 21.5779 85.9687C23.8762 83.6712 24.5643 80.2148 23.3206 77.2126C22.0769 74.2097 19.147 72.252 15.8969 72.252Z" fill="url(#paint4_linear_162_972)"/>
<path d="M36.4 88.7119C35.7495 88.7119 35.1641 88.3204 34.9154 87.7201C34.6666 87.1198 34.804 86.4285 35.2638 85.9687L42.0802 79.1508C42.711 78.5419 43.7131 78.5505 44.3329 79.1704C44.9528 79.7903 44.9615 80.7923 44.3526 81.4232L37.5362 88.2411C37.2349 88.5424 36.826 88.7119 36.4 88.7119Z" fill="url(#paint5_linear_162_972)"/>
<path d="M49.2535 90.3191C48.603 90.3191 48.0176 89.9275 47.7689 89.3273C47.5202 88.727 47.6575 88.0357 48.1173 87.5759L54.9337 80.7579C55.5646 80.149 56.5666 80.1577 57.1865 80.7775C57.8063 81.3974 57.815 82.3995 57.2061 83.0303L50.3897 89.8483C50.0884 90.1496 49.6796 90.3191 49.2535 90.3191Z" fill="url(#paint6_linear_162_972)"/>
<path d="M30.7164 94.393C30.0667 94.393 29.4805 94.0015 29.2318 93.4012C28.983 92.8002 29.1204 92.1097 29.5802 91.6498L30.7164 90.5137C31.1197 90.0962 31.7176 89.9283 32.2794 90.0758C32.8413 90.2225 33.2799 90.6612 33.4266 91.223C33.5741 91.7848 33.4062 92.3827 32.9888 92.786L31.8526 93.9222C31.5513 94.2235 31.1425 94.393 30.7164 94.393Z" fill="url(#paint7_linear_162_972)"/>
<path d="M7.47224 61.3931C6.82175 61.3931 6.23639 61.0015 5.98765 60.4012C5.73891 59.801 5.87622 59.1097 6.33604 58.6499L13.1524 51.8319C13.7833 51.223 14.7853 51.2316 15.4052 51.8515C16.0251 52.4714 16.0337 53.4734 15.4248 54.1043L8.60843 60.9223C8.30712 61.2236 7.89831 61.3931 7.47224 61.3931Z" fill="url(#paint8_linear_162_972)"/>
<path d="M7.47224 48.5371C6.82175 48.5371 6.23639 48.1456 5.98765 47.5453C5.73891 46.945 5.87622 46.2537 6.33604 45.7939L13.1524 38.9759C13.7833 38.367 14.7853 38.3757 15.4052 38.9956C16.0251 39.6155 16.0337 40.6175 15.4248 41.2483L8.60843 48.0663C8.30712 48.3676 7.89831 48.5371 7.47224 48.5371Z" fill="url(#paint9_linear_162_972)"/>
<path d="M1.7906 67.0739C1.14089 67.0739 0.554746 66.6824 0.306007 66.0821C0.0572675 65.4811 0.194584 64.7906 0.654399 64.3308L1.7906 63.1946C2.19391 62.7771 2.79183 62.6092 3.35365 62.7567C3.91547 62.9035 4.3541 63.3421 4.50083 63.9039C4.64835 64.4657 4.48043 65.0636 4.06299 65.467L2.92679 66.6031C2.62548 66.9045 2.21667 67.0739 1.7906 67.0739Z" fill="url(#paint10_linear_162_972)"/>
</g>
<defs>
<linearGradient id="paint0_linear_162_972" x1="56.7363" y1="36.1491" x2="72.1093" y2="26.1014" gradientUnits="userSpaceOnUse">
<stop stop-color="#234DAE"/>
<stop offset="1" stop-color="#347BCE"/>
</linearGradient>
<linearGradient id="paint1_linear_162_972" x1="47.9023" y1="46.6891" x2="55.3248" y2="41.8367" gradientUnits="userSpaceOnUse">
<stop stop-color="#234DAE"/>
<stop offset="1" stop-color="#347BCE"/>
</linearGradient>
<linearGradient id="paint2_linear_162_972" x1="42.2051" y1="53.082" x2="46.3814" y2="50.3526" gradientUnits="userSpaceOnUse">
<stop stop-color="#234DAE"/>
<stop offset="1" stop-color="#347BCE"/>
</linearGradient>
<linearGradient id="paint3_linear_162_972" x1="14.2988" y1="65.087" x2="92.6252" y2="13.892" gradientUnits="userSpaceOnUse">
<stop stop-color="#234DAE"/>
<stop offset="1" stop-color="#347BCE"/>
</linearGradient>
<linearGradient id="paint4_linear_162_972" x1="0.183593" y1="90.4701" x2="25.9754" y2="73.6107" gradientUnits="userSpaceOnUse">
<stop stop-color="#234DAE"/>
<stop offset="1" stop-color="#347BCE"/>
</linearGradient>
<linearGradient id="paint5_linear_162_972" x1="34.793" y1="86.6584" x2="44.3698" y2="80.4001" gradientUnits="userSpaceOnUse">
<stop stop-color="#234DAE"/>
<stop offset="1" stop-color="#347BCE"/>
</linearGradient>
<linearGradient id="paint6_linear_162_972" x1="47.6465" y1="88.2656" x2="57.2233" y2="82.0073" gradientUnits="userSpaceOnUse">
<stop stop-color="#234DAE"/>
<stop offset="1" stop-color="#347BCE"/>
</linearGradient>
<linearGradient id="paint7_linear_162_972" x1="29.1094" y1="93.4968" x2="33.2894" y2="90.7647" gradientUnits="userSpaceOnUse">
<stop stop-color="#234DAE"/>
<stop offset="1" stop-color="#347BCE"/>
</linearGradient>
<linearGradient id="paint8_linear_162_972" x1="5.86523" y1="59.3396" x2="15.442" y2="53.0813" gradientUnits="userSpaceOnUse">
<stop stop-color="#234DAE"/>
<stop offset="1" stop-color="#347BCE"/>
</linearGradient>
<linearGradient id="paint9_linear_162_972" x1="5.86523" y1="46.4836" x2="15.442" y2="40.2253" gradientUnits="userSpaceOnUse">
<stop stop-color="#234DAE"/>
<stop offset="1" stop-color="#347BCE"/>
</linearGradient>
<linearGradient id="paint10_linear_162_972" x1="0.183594" y1="66.1777" x2="4.36366" y2="63.4456" gradientUnits="userSpaceOnUse">
<stop stop-color="#234DAE"/>
<stop offset="1" stop-color="#347BCE"/>
</linearGradient>
<clipPath id="clip0_162_972">
<rect width="96" height="96" fill="white"/>
</clipPath>
</defs>
</svg>
