<svg width="96" height="96" viewBox="0 0 96 96" fill="none" xmlns="http://www.w3.org/2000/svg">
<path d="M83.4765 73.8615C83.2587 73.6747 82.992 73.5543 82.7078 73.5146C82.4237 73.4748 82.1341 73.5174 81.8735 73.6372C81.6128 73.7571 81.3919 73.9491 81.2371 74.1907C81.0823 74.4322 81 74.7131 81 75V78H43.5C35.5463 77.9909 27.921 74.8272 22.2969 69.2031C16.6728 63.579 13.5091 55.9537 13.5 48C13.5 47.6022 13.342 47.2206 13.0607 46.9393C12.7794 46.658 12.3978 46.5 12 46.5H3C2.60218 46.5 2.22064 46.658 1.93934 46.9393C1.65804 47.2206 1.5 47.6022 1.5 48C1.5127 59.1352 5.94177 69.8107 13.8155 77.6845C21.6893 85.5582 32.3648 89.9873 43.5 90H81V93C81 93.2869 81.0823 93.5678 81.2371 93.8093C81.3919 94.0508 81.6128 94.2429 81.8735 94.3628C82.1341 94.4826 82.4237 94.5252 82.7078 94.4854C82.992 94.4457 83.2587 94.3253 83.4765 94.1385L93.9765 85.1385C94.1407 84.9977 94.2724 84.823 94.3628 84.6265C94.4531 84.43 94.4999 84.2163 94.4999 84C94.4999 83.7837 94.4531 83.57 94.3628 83.3735C94.2724 83.177 94.1407 83.0023 93.9765 82.8615L83.4765 73.8615ZM84 89.739V88.5C84 88.1022 83.842 87.7206 83.5607 87.4393C83.2794 87.158 82.8978 87 82.5 87H43.5C33.4199 86.9878 23.735 83.0781 16.4714 76.0888C9.20788 69.0995 4.92848 59.5722 4.5285 49.5H10.5285C10.9251 57.981 14.5709 65.9839 20.7099 71.8489C26.8488 77.7138 35.0098 80.9908 43.5 81H82.5C82.8978 81 83.2794 80.842 83.5607 80.5607C83.842 80.2794 84 79.8978 84 79.5V78.261L90.6945 84L84 89.739Z" fill="url(#paint0_linear_162_1002)"/>
<path d="M53.5605 51.4394L49.4295 47.3084C49.293 46.1097 48.7944 44.981 48 44.0729V37.4999C47.9999 37.1021 47.8418 36.7207 47.5605 36.4394L44.5605 33.4394C44.2792 33.1582 43.8977 33.0002 43.5 33.0002C43.1022 33.0002 42.7207 33.1582 42.4395 33.4394L39.4395 36.4394C39.1581 36.7207 39 37.1021 39 37.4999V44.0729C38.1593 45.0089 37.6422 46.1906 37.5252 47.4433C37.4082 48.6959 37.6976 49.953 38.3505 51.0284L33.4395 55.9394L35.5605 58.0604L40.4715 53.1494C41.1868 53.5712 41.9832 53.837 42.8085 53.9294L46.9395 58.0604C47.1315 58.2525 47.372 58.3889 47.6355 58.4549L53.6355 59.9549C53.7547 59.9847 53.8771 59.9998 54 59.9999C54.228 59.9999 54.453 59.9479 54.6579 59.8479C54.8628 59.7479 55.0422 59.6025 55.1825 59.4227C55.3227 59.243 55.4202 59.0336 55.4674 58.8106C55.5146 58.5875 55.5104 58.3566 55.455 58.1354L53.955 52.1354C53.8889 51.872 53.7525 51.6314 53.5605 51.4394ZM43.5 50.9999C42.9066 50.9999 42.3266 50.824 41.8332 50.4943C41.3399 50.1647 40.9554 49.6962 40.7283 49.148C40.5013 48.5998 40.4418 47.9966 40.5576 47.4147C40.6734 46.8327 40.9591 46.2982 41.3786 45.8786C41.7982 45.459 42.3327 45.1733 42.9147 45.0576C43.4966 44.9418 44.0998 45.0012 44.648 45.2283C45.1962 45.4553 45.6647 45.8399 45.9944 46.3332C46.324 46.8266 46.5 47.4066 46.5 47.9999C46.5 48.7956 46.1839 49.5586 45.6213 50.1212C45.0587 50.6839 44.2956 50.9999 43.5 50.9999ZM43.5 36.6209L45 38.1209V42.2129C44.0201 41.9289 42.9798 41.9289 42 42.2129V38.1209L43.5 36.6209ZM48.7665 55.6499L46.3665 53.2499C47.3698 52.6996 48.1952 51.8743 48.7455 50.8709L51.1455 53.2709L51.9375 56.4419L48.7665 55.6499Z" fill="url(#paint1_linear_162_1002)"/>
<path d="M90.0011 1.5H54.0011C52.8076 1.5 51.663 1.97411 50.8191 2.81802C49.9752 3.66193 49.5011 4.80653 49.5011 6V21.669C43.5843 20.313 37.3834 20.9872 31.8964 23.5831C26.4094 26.1791 21.9554 30.5457 19.2513 35.9802C16.5472 41.4148 15.7503 47.6011 16.9888 53.5435C18.2274 59.4859 21.4293 64.8388 26.0793 68.7405C30.7294 72.6423 36.5569 74.866 42.6242 75.0537C48.6914 75.2415 54.6453 73.3823 59.5277 69.7755C64.41 66.1687 67.9368 61.024 69.5403 55.1696C71.1439 49.3151 70.731 43.0913 68.3681 37.5H73.5011V45C73.5011 45.2966 73.5891 45.5866 73.754 45.8332C73.9188 46.0798 74.153 46.272 74.4271 46.3855C74.7011 46.499 75.0027 46.5287 75.2936 46.4709C75.5845 46.413 75.8518 46.2702 76.0616 46.0605L84.6221 37.5H90.0011C91.1945 37.5 92.3391 37.0259 93.183 36.182C94.0269 35.3381 94.5011 34.1935 94.5011 33V6C94.5011 4.80653 94.0269 3.66193 93.183 2.81802C92.3391 1.97411 91.1945 1.5 90.0011 1.5ZM58.1051 37.5C60.3209 40.5518 61.5101 44.2286 61.5011 48C61.5138 51.837 60.3038 55.5782 58.0467 58.6811C55.7895 61.7839 52.6026 64.0871 48.9482 65.2564C45.2937 66.4258 41.3618 66.4005 37.7226 65.1843C34.0835 63.9681 30.9264 61.6242 28.7094 58.4926C26.4923 55.361 25.3305 51.6045 25.3925 47.768C25.4545 43.9315 26.7371 40.2146 29.0542 37.1562C31.3713 34.0979 34.6025 31.8573 38.279 30.7593C41.9556 29.6613 45.8863 29.7632 49.5011 31.05V33C49.5011 34.1935 49.9752 35.3381 50.8191 36.182C51.663 37.0259 52.8076 37.5 54.0011 37.5H58.1051ZM67.5011 48C67.5107 53.0185 65.95 57.9143 63.0376 62.0013C60.1253 66.0883 56.0071 69.1616 51.2604 70.7907C46.5137 72.4198 41.3762 72.5229 36.5679 71.0856C31.7596 69.6484 27.5214 66.7428 24.4474 62.7759C21.3733 58.8091 19.6174 53.9799 19.4257 48.9651C19.2339 43.9502 20.616 39.001 23.3782 34.8111C26.1404 30.6211 30.1444 27.4004 34.8289 25.6002C39.5134 23.8 44.6438 23.5106 49.5011 24.7725V27.876C44.8125 26.4711 39.7809 26.7449 35.2725 28.6501C30.764 30.5553 27.0609 33.9728 24.8007 38.3142C22.5405 42.6555 21.8647 47.6491 22.8895 52.4351C23.9144 57.221 26.5758 61.5 30.4156 64.5351C34.2554 67.5702 39.0332 69.1716 43.9265 69.0636C48.8198 68.9555 53.5223 67.1448 57.2244 63.9432C60.9265 60.7415 63.3965 56.3493 64.2091 51.5228C65.0218 46.6962 64.1262 41.7374 61.6766 37.5H65.0771C66.6681 40.7719 67.4969 44.3618 67.5011 48ZM91.5011 33C91.5011 33.3978 91.343 33.7794 91.0617 34.0607C90.7804 34.342 90.3989 34.5 90.0011 34.5H84.0011C83.6033 34.5001 83.2218 34.6582 82.9406 34.9395L76.5011 41.379V36C76.5011 35.6022 76.343 35.2206 76.0617 34.9393C75.7804 34.658 75.3989 34.5 75.0011 34.5H54.0011C53.6032 34.5 53.2217 34.342 52.9404 34.0607C52.6591 33.7794 52.5011 33.3978 52.5011 33V6C52.5011 5.60218 52.6591 5.22064 52.9404 4.93934C53.2217 4.65804 53.6032 4.5 54.0011 4.5H90.0011C90.3989 4.5 90.7804 4.65804 91.0617 4.93934C91.343 5.22064 91.5011 5.60218 91.5011 6V33Z" fill="url(#paint2_linear_162_1002)"/>
<path d="M61.5 9H79.5V12H61.5V9Z" fill="url(#paint3_linear_162_1002)"/>
<path d="M82.5 9H88.5V12H82.5V9Z" fill="url(#paint4_linear_162_1002)"/>
<path d="M55.5 15H88.5V18H55.5V15Z" fill="url(#paint5_linear_162_1002)"/>
<path d="M55.5 21H88.5V24H55.5V21Z" fill="url(#paint6_linear_162_1002)"/>
<path d="M55.5 27H88.5V30H55.5V27Z" fill="url(#paint7_linear_162_1002)"/>
<defs>
<linearGradient id="paint0_linear_162_1002" x1="1.5" y1="84.6551" x2="50.2646" y2="22.903" gradientUnits="userSpaceOnUse">
<stop stop-color="#234DAE"/>
<stop offset="1" stop-color="#347BCE"/>
</linearGradient>
<linearGradient id="paint1_linear_162_1002" x1="33.4395" y1="54.4623" x2="56.8734" y2="41.948" gradientUnits="userSpaceOnUse">
<stop stop-color="#234DAE"/>
<stop offset="1" stop-color="#347BCE"/>
</linearGradient>
<linearGradient id="paint2_linear_162_1002" x1="16.4199" y1="59.9782" x2="88.3853" y2="10.056" gradientUnits="userSpaceOnUse">
<stop stop-color="#234DAE"/>
<stop offset="1" stop-color="#347BCE"/>
</linearGradient>
<linearGradient id="paint3_linear_162_1002" x1="61.5" y1="11.3847" x2="63.0004" y2="5.50098" gradientUnits="userSpaceOnUse">
<stop stop-color="#234DAE"/>
<stop offset="1" stop-color="#347BCE"/>
</linearGradient>
<linearGradient id="paint4_linear_162_1002" x1="82.5" y1="11.3847" x2="85.524" y2="7.43178" gradientUnits="userSpaceOnUse">
<stop stop-color="#234DAE"/>
<stop offset="1" stop-color="#347BCE"/>
</linearGradient>
<linearGradient id="paint5_linear_162_1002" x1="55.5" y1="17.3847" x2="56.3551" y2="11.2373" gradientUnits="userSpaceOnUse">
<stop stop-color="#234DAE"/>
<stop offset="1" stop-color="#347BCE"/>
</linearGradient>
<linearGradient id="paint6_linear_162_1002" x1="55.5" y1="23.3847" x2="56.3551" y2="17.2373" gradientUnits="userSpaceOnUse">
<stop stop-color="#234DAE"/>
<stop offset="1" stop-color="#347BCE"/>
</linearGradient>
<linearGradient id="paint7_linear_162_1002" x1="55.5" y1="29.3847" x2="56.3551" y2="23.2373" gradientUnits="userSpaceOnUse">
<stop stop-color="#234DAE"/>
<stop offset="1" stop-color="#347BCE"/>
</linearGradient>
</defs>
</svg>
