<svg width="94" height="94" viewBox="0 0 94 94" fill="none" xmlns="http://www.w3.org/2000/svg">
<path d="M92.5312 29.0475V17.9511L88.4158 16.9038C88.241 16.4353 88.0442 15.9653 87.8283 15.4983L90.0006 11.8425L82.1545 3.99647L78.4988 6.17022C78.0332 5.95431 77.5618 5.7575 77.0947 5.58272L76.0475 1.46875H64.9511L63.9053 5.58419C63.4382 5.75897 62.9668 5.95431 62.5012 6.17169L58.8455 3.99794L52.9 9.94344C50.8158 8.26172 48.244 7.34375 45.5312 7.34375C43.5 7.34375 41.5877 7.86222 39.9192 8.77284C36.9464 4.24469 31.9277 1.46875 26.4375 1.46875C17.5295 1.46875 10.2812 8.71703 10.2812 17.625C10.2812 18.1508 10.318 18.6752 10.3694 19.198C10.0977 19.2333 9.82594 19.2656 9.55422 19.3229C5.66644 20.1336 2.50863 23.2914 1.69788 27.1792C1.05163 30.2797 1.80509 33.442 3.76734 35.8566C5.73106 38.2712 8.64066 39.6562 11.75 39.6562H23.5C24.3107 39.6562 24.9688 40.3157 24.9688 41.125V44.0625C24.9688 44.8718 24.3107 45.5312 23.5 45.5312H13.2188C10.7894 45.5312 8.8125 47.5082 8.8125 49.9375C8.8125 52.3668 10.7894 54.3438 13.2188 54.3438H26.4375C27.2482 54.3438 27.9062 55.0032 27.9062 55.8125V71.9688H8.8125C4.76316 71.9688 1.46875 75.2632 1.46875 79.3125C1.46875 83.3618 4.76316 86.6562 8.8125 86.6562H33.7812V92.5312H86.6562V38.5003L90.0006 35.1545L87.8283 31.4988C88.0442 31.0332 88.241 30.5632 88.4158 30.0947L92.5312 29.0475ZM26.4375 51.4062H13.2188C12.408 51.4062 11.75 50.7468 11.75 49.9375C11.75 49.1282 12.408 48.4688 13.2188 48.4688H23.5C25.9293 48.4688 27.9062 46.4918 27.9062 44.0625V41.125C27.9062 38.6957 25.9293 36.7188 23.5 36.7188H11.75C9.52925 36.7188 7.45097 35.7288 6.04831 34.003C4.64566 32.2772 4.10809 30.0095 4.57222 27.7785C5.14944 25.0172 7.39075 22.7744 10.1535 22.1987C12.3874 21.7316 14.6537 22.2707 16.378 23.6733C18.1038 25.076 19.0938 27.1542 19.0938 29.375H22.0312C22.0312 26.2657 20.6477 23.3575 18.2316 21.3938C16.8025 20.232 15.109 19.5035 13.3216 19.2289C13.2569 18.6972 13.2188 18.1626 13.2188 17.625C13.2188 10.3371 19.1481 4.40625 26.4375 4.40625C30.9774 4.40625 35.1208 6.72687 37.5412 10.503C35.2353 12.6489 33.7812 15.7009 33.7812 19.0938H36.7188C36.7188 14.2337 40.6712 10.2812 45.5312 10.2812C47.727 10.2812 49.7965 11.0891 51.418 12.5505L53.1717 15.5012C52.9558 15.9683 52.759 16.4368 52.5842 16.9068L48.4688 17.9525V29.0489L52.5842 30.0962C52.759 30.5647 52.9558 31.0347 53.1717 31.5003L50.9994 35.156L52.5622 36.7188H30.8438V39.6562H33.7812V71.9688H30.8438V55.8125C30.8438 53.3832 28.8668 51.4062 26.4375 51.4062ZM19.0938 83.7188H16.1562V74.9062H19.0938V83.7188ZM22.0312 80.7812H39.6562V83.7188H22.0312V80.7812ZM42.5938 75.5569L50.9847 78.703C51.2373 78.7984 51.4062 79.0423 51.4062 79.3125C51.4062 79.5827 51.2373 79.8266 50.9833 79.922L42.5938 83.0681V75.5569ZM39.6562 77.8438H22.0312V74.9062H39.6562V77.8438ZM4.40625 79.3125C4.40625 76.8832 6.38319 74.9062 8.8125 74.9062H13.2188V83.7188H8.8125C6.38319 83.7188 4.40625 81.7418 4.40625 79.3125ZM83.7188 89.5938H36.7188V86.6562H41.3923L52.0143 82.673C53.4067 82.1516 54.3438 80.8003 54.3438 79.3125C54.3438 77.8247 53.4067 76.4734 52.0158 75.952L41.3923 71.9688H36.7188V39.6562H55.4997L58.8455 43.0021L62.5012 40.8283C62.9668 41.0442 63.4382 41.241 63.9053 41.4158L64.9525 45.5312H76.0489L77.0962 41.4158C77.5632 41.241 78.0347 41.0457 78.5003 40.8283L82.156 43.0021L83.7188 41.4378V89.5938ZM86.1363 27.6433L85.8896 28.4188C85.6267 29.2399 85.2786 30.0712 84.8556 30.8907L84.4796 31.6148L86.3096 34.6933L81.6933 39.3096L78.6163 37.4796L77.8937 37.8526C77.0712 38.2771 76.2399 38.6237 75.4174 38.8866L74.6419 39.1348L73.765 42.5938H67.2364L66.3581 39.1363L65.5826 38.8881C64.7601 38.6252 63.9288 38.2786 63.1063 37.8541L62.3837 37.481L59.3067 39.3111L54.6904 34.6948L56.5204 31.6163L56.1444 30.8922C55.7214 30.0727 55.3733 29.2413 55.1104 28.4203L54.8637 27.6448L51.4062 26.765V20.2364L54.8637 19.3567L55.1104 18.5812C55.3733 17.7616 55.7214 16.9288 56.1459 16.1093L56.5204 15.3852L54.6904 12.3081L59.3067 7.69184L62.3837 9.52191L63.1063 9.14884C63.9288 8.72438 64.7601 8.37775 65.5826 8.11484L66.3581 7.86662L67.235 4.40625H73.7636L74.6419 7.86369L75.4174 8.11191C76.2399 8.37481 77.0712 8.72144 77.8937 9.14591L78.6163 9.51897L81.6933 7.68891L86.3096 12.3052L84.4796 15.3822L84.8541 16.1063C85.2786 16.9273 85.6267 17.7587 85.8896 18.5782L86.1363 19.3537L89.5938 20.235V26.7636L86.1363 27.6433Z" fill="url(#paint0_linear_162_945)"/>
<path d="M70.5 10.2812C63.2106 10.2812 57.2812 16.2121 57.2812 23.5C57.2812 30.7879 63.2106 36.7188 70.5 36.7188C77.7894 36.7188 83.7188 30.7879 83.7188 23.5C83.7188 16.2121 77.7894 10.2812 70.5 10.2812ZM70.5 33.7812C64.8321 33.7812 60.2188 29.1694 60.2188 23.5C60.2188 17.8306 64.8321 13.2188 70.5 13.2188C76.1679 13.2188 80.7812 17.8306 80.7812 23.5C80.7812 29.1694 76.1679 33.7812 70.5 33.7812Z" fill="url(#paint1_linear_162_945)"/>
<path d="M70.5 16.1562C66.4507 16.1562 63.1562 19.4507 63.1562 23.5C63.1562 27.5493 66.4507 30.8438 70.5 30.8438C74.5493 30.8438 77.8438 27.5493 77.8438 23.5C77.8438 19.4507 74.5493 16.1562 70.5 16.1562ZM70.5 27.9062C68.0707 27.9062 66.0938 25.9293 66.0938 23.5C66.0938 21.0707 68.0707 19.0938 70.5 19.0938C72.9293 19.0938 74.9062 21.0707 74.9062 23.5C74.9062 25.9293 72.9293 27.9062 70.5 27.9062Z" fill="url(#paint2_linear_162_945)"/>
<path d="M42.5931 65.4858L40.694 63.5867L38.6172 65.6635L42.5931 69.6394L50.9753 61.2572L48.8984 59.1804L42.5931 65.4858Z" fill="url(#paint3_linear_162_945)"/>
<path d="M42.5931 53.7358L40.694 51.8367L38.6172 53.9135L42.5931 57.8894L50.9753 49.5072L48.8984 47.4304L42.5931 53.7358Z" fill="url(#paint4_linear_162_945)"/>
<path d="M54.3438 48.4688H80.7812V51.4062H54.3438V48.4688Z" fill="url(#paint5_linear_162_945)"/>
<path d="M60.2188 54.3438H80.7812V57.2812H60.2188V54.3438Z" fill="url(#paint6_linear_162_945)"/>
<path d="M54.3438 54.3438H57.2812V57.2812H54.3438V54.3438Z" fill="url(#paint7_linear_162_945)"/>
<path d="M54.3438 60.2188H80.7812V63.1562H54.3438V60.2188Z" fill="url(#paint8_linear_162_945)"/>
<path d="M77.8438 66.0938H80.7812V69.0312H77.8438V66.0938Z" fill="url(#paint9_linear_162_945)"/>
<path d="M54.3438 66.0938H74.9062V69.0312H54.3438V66.0938Z" fill="url(#paint10_linear_162_945)"/>
<path d="M61.6875 74.9062C59.2582 74.9062 57.2812 76.8832 57.2812 79.3125C57.2812 81.7418 59.2582 83.7188 61.6875 83.7188C64.1168 83.7188 66.0938 81.7418 66.0938 79.3125C66.0938 76.8832 64.1168 74.9062 61.6875 74.9062ZM61.6875 80.7812C60.8767 80.7812 60.2188 80.1218 60.2188 79.3125C60.2188 78.5032 60.8767 77.8438 61.6875 77.8438C62.4983 77.8438 63.1562 78.5032 63.1562 79.3125C63.1562 80.1218 62.4983 80.7812 61.6875 80.7812Z" fill="url(#paint11_linear_162_945)"/>
<path d="M73.4375 74.9062C71.0082 74.9062 69.0312 76.8832 69.0312 79.3125C69.0312 81.7418 71.0082 83.7188 73.4375 83.7188C75.8668 83.7188 77.8438 81.7418 77.8438 79.3125C77.8438 76.8832 75.8668 74.9062 73.4375 74.9062ZM73.4375 80.7812C72.6267 80.7812 71.9688 80.1218 71.9688 79.3125C71.9688 78.5032 72.6267 77.8438 73.4375 77.8438C74.2483 77.8438 74.9062 78.5032 74.9062 79.3125C74.9062 80.1218 74.2483 80.7812 73.4375 80.7812Z" fill="url(#paint12_linear_162_945)"/>
<defs>
<linearGradient id="paint0_linear_162_945" x1="1.46875" y1="73.8544" x2="88.5765" y2="16.9216" gradientUnits="userSpaceOnUse">
<stop stop-color="#234DAE"/>
<stop offset="1" stop-color="#347BCE"/>
</linearGradient>
<linearGradient id="paint1_linear_162_945" x1="57.2812" y1="31.2964" x2="82.5706" y2="14.7676" gradientUnits="userSpaceOnUse">
<stop stop-color="#234DAE"/>
<stop offset="1" stop-color="#347BCE"/>
</linearGradient>
<linearGradient id="paint2_linear_162_945" x1="63.1562" y1="27.8313" x2="77.2059" y2="18.6487" gradientUnits="userSpaceOnUse">
<stop stop-color="#234DAE"/>
<stop offset="1" stop-color="#347BCE"/>
</linearGradient>
<linearGradient id="paint3_linear_162_945" x1="38.6172" y1="67.4943" x2="49.1855" y2="59.3327" gradientUnits="userSpaceOnUse">
<stop stop-color="#234DAE"/>
<stop offset="1" stop-color="#347BCE"/>
</linearGradient>
<linearGradient id="paint4_linear_162_945" x1="38.6172" y1="55.7443" x2="49.1855" y2="47.5827" gradientUnits="userSpaceOnUse">
<stop stop-color="#234DAE"/>
<stop offset="1" stop-color="#347BCE"/>
</linearGradient>
<linearGradient id="paint5_linear_162_945" x1="54.3437" y1="50.8038" x2="55.3575" y2="44.8404" gradientUnits="userSpaceOnUse">
<stop stop-color="#234DAE"/>
<stop offset="1" stop-color="#347BCE"/>
</linearGradient>
<linearGradient id="paint6_linear_162_945" x1="60.2187" y1="56.6788" x2="61.4987" y2="50.8228" gradientUnits="userSpaceOnUse">
<stop stop-color="#234DAE"/>
<stop offset="1" stop-color="#347BCE"/>
</linearGradient>
<linearGradient id="paint7_linear_162_945" x1="54.3437" y1="56.6788" x2="57.1537" y2="54.8422" gradientUnits="userSpaceOnUse">
<stop stop-color="#234DAE"/>
<stop offset="1" stop-color="#347BCE"/>
</linearGradient>
<linearGradient id="paint8_linear_162_945" x1="54.3437" y1="62.5538" x2="55.3575" y2="56.5904" gradientUnits="userSpaceOnUse">
<stop stop-color="#234DAE"/>
<stop offset="1" stop-color="#347BCE"/>
</linearGradient>
<linearGradient id="paint9_linear_162_945" x1="77.8437" y1="68.4288" x2="80.6537" y2="66.5922" gradientUnits="userSpaceOnUse">
<stop stop-color="#234DAE"/>
<stop offset="1" stop-color="#347BCE"/>
</linearGradient>
<linearGradient id="paint10_linear_162_945" x1="54.3437" y1="68.4288" x2="55.6237" y2="62.5728" gradientUnits="userSpaceOnUse">
<stop stop-color="#234DAE"/>
<stop offset="1" stop-color="#347BCE"/>
</linearGradient>
<linearGradient id="paint11_linear_162_945" x1="57.2812" y1="81.9113" x2="65.711" y2="76.4017" gradientUnits="userSpaceOnUse">
<stop stop-color="#234DAE"/>
<stop offset="1" stop-color="#347BCE"/>
</linearGradient>
<linearGradient id="paint12_linear_162_945" x1="69.0312" y1="81.9113" x2="77.461" y2="76.4017" gradientUnits="userSpaceOnUse">
<stop stop-color="#234DAE"/>
<stop offset="1" stop-color="#347BCE"/>
</linearGradient>
</defs>
</svg>
