<svg width="97" height="97" viewBox="0 0 97 97" fill="none" xmlns="http://www.w3.org/2000/svg">
<path d="M22.7344 50.0156H27.2812V53.0469H22.7344V50.0156Z" fill="url(#paint0_linear_162_854)"/>
<path d="M33.3438 57.5938H37.8906V60.625H33.3438V57.5938Z" fill="url(#paint1_linear_162_854)"/>
<path d="M22.7344 57.5938H30.3125V60.625H22.7344V57.5938Z" fill="url(#paint2_linear_162_854)"/>
<path d="M10.6094 57.5938H19.7031V60.625H10.6094V57.5938Z" fill="url(#paint3_linear_162_854)"/>
<path d="M19.7031 65.1719H37.8906V68.2031H19.7031V65.1719Z" fill="url(#paint4_linear_162_854)"/>
<path d="M10.6094 65.1719H16.6719V68.2031H10.6094V65.1719Z" fill="url(#paint5_linear_162_854)"/>
<path d="M28.7969 72.75H37.8906V75.7812H28.7969V72.75Z" fill="url(#paint6_linear_162_854)"/>
<path d="M10.6094 72.75H25.7656V75.7812H10.6094V72.75Z" fill="url(#paint7_linear_162_854)"/>
<path d="M19.7031 80.3281H28.7969V83.3594H19.7031V80.3281Z" fill="url(#paint8_linear_162_854)"/>
<path d="M10.6094 80.3281H16.6719V83.3594H10.6094V80.3281Z" fill="url(#paint9_linear_162_854)"/>
<path d="M90.9375 45.4688C90.9375 45.0668 90.7778 44.6813 90.4936 44.3971C90.2094 44.1128 89.8239 43.9531 89.4219 43.9531H80.3281C79.9262 43.9531 79.5407 44.1128 79.2564 44.3971C78.9722 44.6813 78.8125 45.0668 78.8125 45.4688V53.0469H71.2344C70.8324 53.0469 70.4469 53.2066 70.1627 53.4908C69.8785 53.775 69.7188 54.1605 69.7188 54.5625V62.1406H62.1406C61.7387 62.1406 61.3532 62.3003 61.0689 62.5846C60.7847 62.8688 60.625 63.2543 60.625 63.6563V71.2344H53.0469C52.6449 71.2344 52.2594 71.3941 51.9752 71.6783C51.691 71.9625 51.5313 72.348 51.5313 72.75V81.8438H40.6612C40.3036 80.8325 39.6001 79.9802 38.675 79.4375C37.7498 78.8948 36.6626 78.6966 35.6054 78.878C34.5483 79.0594 33.5893 79.6086 32.898 80.4287C32.2066 81.2487 31.8275 82.2868 31.8275 83.3594C31.8275 84.432 32.2066 85.47 32.898 86.2901C33.5893 87.1101 34.5483 87.6594 35.6054 87.8408C36.6626 88.0222 37.7498 87.824 38.675 87.2813C39.6001 86.7386 40.3036 85.8863 40.6612 84.875H42.4375V89.4219C42.4371 89.8237 42.2772 90.209 41.9931 90.4931C41.709 90.7772 41.3237 90.9371 40.9219 90.9375H7.57814C7.17631 90.9371 6.79108 90.7772 6.50694 90.4931C6.22281 90.209 6.06298 89.8237 6.06252 89.4219V54.5625H13.6406C14.8461 54.5611 16.0018 54.0816 16.8542 53.2292C17.7067 52.3768 18.1861 51.2211 18.1875 50.0156V42.4375H40.9219C41.3237 42.438 41.709 42.5978 41.9931 42.8819C42.2772 43.1661 42.4371 43.5513 42.4375 43.9531V45.4688H45.4688V43.9531C45.4674 42.7477 44.9879 41.5919 44.1355 40.7395C43.2831 39.8871 42.1274 39.4076 40.9219 39.4063H17.9274C17.33 39.4047 16.7383 39.5215 16.1864 39.7501C15.6345 39.9787 15.1335 40.3145 14.7122 40.7381L4.36299 51.0873C3.93945 51.5086 3.60367 52.0096 3.37507 52.5615C3.14648 53.1134 3.02963 53.7051 3.03127 54.3025V89.4219C3.03265 90.6274 3.51213 91.7831 4.36454 92.6355C5.21694 93.4879 6.37266 93.9674 7.57814 93.9688H40.9219C42.1274 93.9674 43.2831 93.4879 44.1355 92.6355C44.9879 91.7831 45.4674 90.6274 45.4688 89.4219V84.875H93.9688V81.8438H90.9375V45.4688ZM15.1563 44.581V50.0156C15.1558 50.4175 14.996 50.8027 14.7118 51.0868C14.4277 51.371 14.0425 51.5308 13.6406 51.5313H8.20599L15.1563 44.581ZM36.375 84.875C36.0753 84.875 35.7822 84.7861 35.533 84.6196C35.2837 84.4531 35.0895 84.2163 34.9748 83.9394C34.86 83.6625 34.83 83.3577 34.8885 83.0637C34.947 82.7697 35.0913 82.4996 35.3033 82.2877C35.5153 82.0757 35.7853 81.9314 36.0793 81.8729C36.3733 81.8144 36.6781 81.8444 36.955 81.9591C37.232 82.0739 37.4687 82.2681 37.6352 82.5174C37.8018 82.7666 37.8906 83.0596 37.8906 83.3594C37.8902 83.7612 37.7304 84.1465 37.4462 84.4306C37.1621 84.7147 36.7768 84.8746 36.375 84.875ZM54.5625 74.2656H60.625V81.8438H54.5625V74.2656ZM63.6563 65.1719H69.7188V81.8438H63.6563V65.1719ZM72.75 56.0781H78.8125V81.8438H72.75V56.0781ZM81.8438 81.8438V46.9844H87.9063V81.8438H81.8438Z" fill="url(#paint10_linear_162_854)"/>
<path d="M7.57812 40.9217C8.34621 40.9219 9.10182 40.7274 9.77442 40.3565C10.447 39.9856 11.0146 39.4503 11.4243 38.8006C11.834 38.1509 12.0724 37.408 12.1173 36.6412C12.1621 35.8744 12.0119 35.1088 11.6807 34.4158L16.2284 29.868C16.8036 30.1429 17.4302 30.2938 18.0675 30.3107C18.7048 30.3277 19.3386 30.2104 19.9275 29.9664C20.5165 29.7224 21.0476 29.3572 21.4863 28.8946C21.9249 28.432 22.2613 27.8822 22.4736 27.2811H29.0576C29.3934 28.2313 30.0354 29.0429 30.8827 29.5885C31.73 30.1341 32.7346 30.3827 33.7386 30.2952C34.7425 30.2077 35.6889 29.789 36.4291 29.1051C37.1692 28.4211 37.6611 27.5106 37.8274 26.5167L46.3867 19.1802C47.3364 19.6787 48.4316 19.8254 49.479 19.5945C50.5264 19.3636 51.4584 18.7699 52.1104 17.9184C52.7624 17.0668 53.0924 16.0121 53.0421 14.9408C52.9918 13.8695 52.5644 12.8504 51.8354 12.0637C51.1064 11.277 50.1229 10.7733 49.0585 10.6416C47.9941 10.5099 46.9174 10.7587 46.0187 11.344C45.1199 11.9293 44.457 12.8135 44.1471 13.8402C43.8372 14.867 43.9002 15.9702 44.325 16.955L37.074 23.1701C36.5968 22.4832 35.9393 21.9413 35.1738 21.6041C34.4083 21.2669 33.5647 21.1476 32.7357 21.2592C31.9068 21.3709 31.1247 21.7092 30.4757 22.2369C29.8268 22.7645 29.336 23.4611 29.0576 24.2498H22.4736C22.268 23.6678 21.9459 23.1336 21.5271 22.6801C21.1083 22.2265 20.6015 21.863 20.0377 21.6117C19.4738 21.3604 18.8646 21.2266 18.2473 21.2184C17.63 21.2102 17.0175 21.3278 16.4472 21.564C15.8768 21.8003 15.3605 22.1502 14.9298 22.5925C14.4991 23.0348 14.163 23.5602 13.942 24.1366C13.721 24.713 13.6197 25.3284 13.6442 25.9453C13.6688 26.5621 13.8188 27.1675 14.0849 27.7245L9.53722 32.2723C8.92142 31.9782 8.2473 31.8265 7.56488 31.8285C6.88245 31.8304 6.20922 31.986 5.59511 32.2836C4.98099 32.5812 4.44174 33.0132 4.01736 33.5476C3.59297 34.082 3.29433 34.7051 3.14357 35.3707C2.99282 36.0363 2.99383 36.7272 3.14652 37.3924C3.29921 38.0575 3.59966 38.6797 4.02561 39.2129C4.45155 39.7461 4.99205 40.1765 5.60703 40.4723C6.22201 40.7682 6.8957 40.9217 7.57812 40.9217ZM48.5 13.6405C48.7998 13.6405 49.0928 13.7294 49.342 13.8959C49.5913 14.0624 49.7855 14.2991 49.9003 14.5761C50.015 14.853 50.045 15.1578 49.9865 15.4518C49.928 15.7458 49.7837 16.0158 49.5717 16.2278C49.3597 16.4398 49.0897 16.5841 48.7957 16.6426C48.5017 16.7011 48.1969 16.6711 47.92 16.5563C47.6431 16.4416 47.4063 16.2474 47.2398 15.9981C47.0733 15.7489 46.9844 15.4559 46.9844 15.1561C46.9848 14.7543 47.1447 14.369 47.4288 14.0849C47.7129 13.8008 48.0982 13.6409 48.5 13.6405ZM33.3438 24.2498C33.6435 24.2498 33.9365 24.3387 34.1858 24.5053C34.435 24.6718 34.6293 24.9085 34.744 25.1855C34.8587 25.4624 34.8887 25.7671 34.8303 26.0611C34.7718 26.3552 34.6274 26.6252 34.4155 26.8372C34.2035 27.0491 33.9334 27.1935 33.6394 27.252C33.3454 27.3104 33.0407 27.2804 32.7637 27.1657C32.4868 27.051 32.2501 26.8567 32.0836 26.6075C31.917 26.3583 31.8281 26.0652 31.8281 25.7655C31.8286 25.3636 31.9884 24.9784 32.2725 24.6943C32.5567 24.4101 32.9419 24.2503 33.3438 24.2498ZM18.1875 24.2498C18.4873 24.2498 18.7803 24.3387 19.0295 24.5053C19.2788 24.6718 19.473 24.9085 19.5878 25.1855C19.7025 25.4624 19.7325 25.7671 19.674 26.0611C19.6155 26.3552 19.4712 26.6252 19.2592 26.8372C19.0472 27.0491 18.7772 27.1935 18.4832 27.252C18.1892 27.3104 17.8844 27.2804 17.6075 27.1657C17.3306 27.051 17.0938 26.8567 16.9273 26.6075C16.7608 26.3583 16.6719 26.0652 16.6719 25.7655C16.6723 25.3636 16.8322 24.9784 17.1163 24.6943C17.4004 24.4101 17.7857 24.2503 18.1875 24.2498ZM7.57812 34.8592C7.87789 34.8592 8.17092 34.9481 8.42016 35.1146C8.6694 35.2812 8.86366 35.5179 8.97838 35.7948C9.09309 36.0718 9.12311 36.3765 9.06463 36.6705C9.00615 36.9645 8.8618 37.2346 8.64983 37.4465C8.43787 37.6585 8.16781 37.8029 7.87381 37.8613C7.5798 37.9198 7.27506 37.8898 6.99812 37.7751C6.72117 37.6604 6.48447 37.4661 6.31793 37.2169C6.15139 36.9676 6.0625 36.6746 6.0625 36.3748C6.06296 35.973 6.22279 35.5878 6.50692 35.3036C6.79106 35.0195 7.1763 34.8597 7.57812 34.8592Z" fill="url(#paint11_linear_162_854)"/>
<path d="M62.4369 38.4819L52.4188 48.5001H39.1452C38.7877 47.4889 38.0842 46.6366 37.159 46.0938C36.2339 45.5511 35.1467 45.353 34.0895 45.5343C33.0324 45.7157 32.0734 46.265 31.382 47.085C30.6907 47.9051 30.3115 48.9431 30.3115 50.0157C30.3115 51.0883 30.6907 52.1264 31.382 52.9464C32.0734 53.7665 33.0324 54.3157 34.0895 54.4971C35.1467 54.6785 36.2339 54.4803 37.159 53.9376C38.0842 53.3949 38.7877 52.5426 39.1452 51.5313H42.4372V78.8126H45.4685V51.5313H53.0466C53.4486 51.5313 53.8341 51.3717 54.1184 51.0874L65.057 40.1488C69.5665 42.5422 74.8275 43.0971 79.7372 41.697C84.6468 40.2969 88.8239 37.0507 91.3928 32.6387C93.9617 28.2268 94.723 22.9917 93.517 18.0308C92.3111 13.0699 89.2317 8.76839 84.9241 6.02798C80.6166 3.28756 75.4155 2.321 70.411 3.33089C65.4065 4.34078 60.9873 7.24872 58.0796 11.4451C55.1719 15.6416 54.0015 20.8007 54.8139 25.841C55.6262 30.8813 58.3581 35.4115 62.4369 38.482L62.4369 38.4819ZM34.8591 51.5313C34.5593 51.5313 34.2663 51.4425 34.0171 51.2759C33.7678 51.1094 33.5735 50.8727 33.4588 50.5957C33.3441 50.3188 33.3141 50.014 33.3726 49.72C33.4311 49.426 33.5754 49.156 33.7874 48.944C33.9993 48.7321 34.2694 48.5877 34.5634 48.5292C34.8574 48.4707 35.1621 48.5008 35.4391 48.6155C35.716 48.7302 35.9527 48.9244 36.1193 49.1737C36.2858 49.4229 36.3747 49.716 36.3747 50.0157C36.3743 50.4176 36.2144 50.8028 35.9303 51.0869C35.6462 51.3711 35.2609 51.5309 34.8591 51.5313ZM86.4226 34.13L77.6404 24.2501H90.8676C90.5313 27.9475 88.9664 31.4258 86.4226 34.13ZM90.8676 21.2188H75.781V6.13222C79.6607 6.49185 83.2926 8.19685 86.0478 10.952C88.8029 13.7072 90.5079 17.3391 90.8676 21.2188ZM72.7497 6.13222V22.7345C72.7496 23.1056 72.8864 23.4637 73.1338 23.7403L73.1325 23.7414L84.1582 36.1453C82.0888 37.6721 79.6941 38.6993 77.1617 39.1467C74.6292 39.594 72.0276 39.4493 69.5603 38.7239C67.0931 37.9985 64.8271 36.7121 62.9398 34.9653C61.0524 33.2184 59.5949 31.0586 58.6811 28.6547C57.7674 26.2509 57.4222 23.6682 57.6727 21.1087C57.9232 18.5493 58.7624 16.0825 60.1249 13.9014C61.4873 11.7202 63.3359 9.88393 65.5261 8.53613C67.7163 7.18832 70.1886 6.36556 72.7497 6.13222Z" fill="url(#paint12_linear_162_854)"/>
<defs>
<linearGradient id="paint0_linear_162_854" x1="22.7344" y1="52.4252" x2="25.8995" y2="49.3221" gradientUnits="userSpaceOnUse">
<stop stop-color="#234DAE"/>
<stop offset="1" stop-color="#347BCE"/>
</linearGradient>
<linearGradient id="paint1_linear_162_854" x1="33.3437" y1="60.0033" x2="36.5089" y2="56.9002" gradientUnits="userSpaceOnUse">
<stop stop-color="#234DAE"/>
<stop offset="1" stop-color="#347BCE"/>
</linearGradient>
<linearGradient id="paint2_linear_162_854" x1="22.7344" y1="60.0033" x2="25.5535" y2="55.397" gradientUnits="userSpaceOnUse">
<stop stop-color="#234DAE"/>
<stop offset="1" stop-color="#347BCE"/>
</linearGradient>
<linearGradient id="paint3_linear_162_854" x1="10.6094" y1="60.0033" x2="13.172" y2="54.9786" gradientUnits="userSpaceOnUse">
<stop stop-color="#234DAE"/>
<stop offset="1" stop-color="#347BCE"/>
</linearGradient>
<linearGradient id="paint4_linear_162_854" x1="19.7031" y1="67.5814" x2="21.2191" y2="61.6364" gradientUnits="userSpaceOnUse">
<stop stop-color="#234DAE"/>
<stop offset="1" stop-color="#347BCE"/>
</linearGradient>
<linearGradient id="paint5_linear_162_854" x1="10.6094" y1="67.5814" x2="13.6649" y2="63.5873" gradientUnits="userSpaceOnUse">
<stop stop-color="#234DAE"/>
<stop offset="1" stop-color="#347BCE"/>
</linearGradient>
<linearGradient id="paint6_linear_162_854" x1="28.7969" y1="75.1595" x2="31.3595" y2="70.1349" gradientUnits="userSpaceOnUse">
<stop stop-color="#234DAE"/>
<stop offset="1" stop-color="#347BCE"/>
</linearGradient>
<linearGradient id="paint7_linear_162_854" x1="10.6094" y1="75.1595" x2="12.381" y2="69.3701" gradientUnits="userSpaceOnUse">
<stop stop-color="#234DAE"/>
<stop offset="1" stop-color="#347BCE"/>
</linearGradient>
<linearGradient id="paint8_linear_162_854" x1="19.7031" y1="82.7377" x2="22.2657" y2="77.713" gradientUnits="userSpaceOnUse">
<stop stop-color="#234DAE"/>
<stop offset="1" stop-color="#347BCE"/>
</linearGradient>
<linearGradient id="paint9_linear_162_854" x1="10.6094" y1="82.7377" x2="13.6649" y2="78.7436" gradientUnits="userSpaceOnUse">
<stop stop-color="#234DAE"/>
<stop offset="1" stop-color="#347BCE"/>
</linearGradient>
<linearGradient id="paint10_linear_162_854" x1="3.03125" y1="82.778" x2="59.8077" y2="20.9306" gradientUnits="userSpaceOnUse">
<stop stop-color="#234DAE"/>
<stop offset="1" stop-color="#347BCE"/>
</linearGradient>
<linearGradient id="paint11_linear_162_854" x1="3.03125" y1="34.7042" x2="34.6014" y2="0.660345" gradientUnits="userSpaceOnUse">
<stop stop-color="#234DAE"/>
<stop offset="1" stop-color="#347BCE"/>
</linearGradient>
<linearGradient id="paint12_linear_162_854" x1="30.3115" y1="63.2512" x2="97.1856" y2="26.5179" gradientUnits="userSpaceOnUse">
<stop stop-color="#234DAE"/>
<stop offset="1" stop-color="#347BCE"/>
</linearGradient>
</defs>
</svg>
