<svg width="687" height="648" viewBox="0 0 687 648" fill="none" xmlns="http://www.w3.org/2000/svg">
<g clip-path="url(#clip0_509_3083)">
<path d="M514.2 357.6H118.5V623.3H514.2V357.6Z" fill="white"/>
<path d="M499.202 509.3H176.602V548.5H499.202V509.3Z" fill="#343B43"/>
<path d="M514.201 325.7H118.201V358.8H514.201V325.7Z" fill="url(#paint0_linear_509_3083)"/>
<path d="M583.301 227.1C638.253 227.1 682.801 182.552 682.801 127.6C682.801 72.6476 638.253 28.1 583.301 28.1C528.348 28.1 483.801 72.6476 483.801 127.6C483.801 182.552 528.348 227.1 583.301 227.1Z" fill="url(#paint1_linear_509_3083)"/>
<path d="M264 151.4L286 191.3C286 191.3 292.7 203.2 306.4 200.6L309.1 200.2L330.5 216.3L345.8 182.7L335.9 157.8C335.9 157.8 346.2 153 342.3 142.3C338.5 131.6 327.6 133.2 324.7 135.3C321.8 137.3 318.5 140 317.9 146.5H315.6C315.6 146.5 310.7 138.4 308.7 136.3C306.7 134.2 302.7 130.8 299.9 131.7C297.1 132.6 285.1 141.1 280.9 144C276.8 146.9 267.9 152.5 264 151.4Z" fill="white"/>
<path d="M275.002 454.5L251.602 479C251.602 479 260.902 493.3 266.802 500.3C272.702 507.2 275.102 509.1 280.602 508.2C286.102 507.3 300.502 508 300.502 508L318.202 520.1C318.202 520.1 322.202 520.6 324.302 517.4C326.402 514.2 324.602 511.8 323.402 510.7C322.202 509.6 303.802 493.6 303.802 493.6L293.802 480.7L293.602 479.4L297.702 482C297.702 482 304.602 492.3 311.602 493.3C318.602 494.3 317.802 490.3 316.902 488.6C316.002 486.9 307.902 474 302.002 467.8C296.102 461.5 290.202 460.2 290.202 460.2L275.002 454.5Z" fill="white"/>
<path d="M306.4 200.6C306.4 200.6 249.3 201.8 209.3 240.4C169.3 279 163.4 320.2 159.2 345.1C155 370 164.8 402.3 177.8 420.6C190.7 438.9 208.7 463.1 242.4 485.4L243.6 486.1L279.6 449.9C279.6 449.9 244 420.7 232.4 397C220.8 373.3 219 367.2 220.3 348.9C221.7 330.6 234.7 323.7 243.6 324.7L252.5 325.5H496.6C496.6 325.5 497.9 272.5 467.7 243.9C437.5 215.3 405.1 199.3 361.4 196.3L343.6 325.4H330.9L306.4 200.6Z" fill="#343B43"/>
<path d="M287.2 139.2C296.5 131.9 295.2 132.3 297.9 131.5C300.6 130.6 305.2 125.7 309 128.9C312.8 132.1 319 141.9 319 141.9C319 141.9 320.3 138.2 324.7 135.3C329.2 132.4 333.8 132.2 337.8 136.8C341.8 141.3 343.7 148.9 341.4 151.9C339.1 154.9 336.1 158.3 336.1 158.3L339.9 168.2C339.9 168.2 348.4 153.2 347.4 141.6C346.8 134.5 345.1 129.1 334.7 114.8C324.3 100.5 320.8 97.1 315.3 95.7C309.8 94.2 301.3 94.6 299.3 96.1C297.4 97.5 296.2 100 290.6 103.5C285.3 106.9 284.4 107.8 277.6 108.2C270.8 108.6 259.1 112.5 255.5 118.8C252 125.1 249.9 130.5 253.4 141.2C256 149.1 264.2 151.5 264.2 151.5C264.2 151.5 275.3 148.6 287.2 139.2Z" fill="url(#paint2_linear_509_3083)"/>
<path d="M451 100.1H551.1V0.100001C551.1 0.100001 510 -2.7 478.5 31.3C446.9 65.3 451 100.1 451 100.1Z" fill="#343B43"/>
<path d="M684.001 292.2H453.501C452.501 292.2 451.701 291.4 451.701 290.4V255.7C451.701 254.7 452.501 253.9 453.501 253.9H684.001C685.001 253.9 685.801 254.7 685.801 255.7V290.4C685.901 291.4 685.001 292.2 684.001 292.2Z" fill="white"/>
<path d="M478.701 324.9C478.701 324.9 465.001 307 445.501 304.3C425.901 301.6 415.701 304.8 411.001 310.4C406.301 316 404.701 321.4 404.801 334.6C404.901 347.7 409.401 350.2 411.601 350.7C413.801 351.2 417.501 349.1 417.701 343.3C417.701 343.3 420.401 352.2 424.901 352.4C429.401 352.6 431.101 342.6 431.101 342.6C431.101 342.6 432.601 350.6 436.101 350.8C439.701 351 444.001 344.9 445.301 338.5C446.701 332.1 449.001 325.4 449.001 325.4L478.701 324.9Z" fill="white"/>
<path d="M415.401 307L399.001 286.9L401.401 274.8L393.001 264.6L380.501 263L389.601 273.8L386.901 286.5L374.701 287.2L364.701 274.8V288.6L373.501 298.9L385.501 298L405.101 321.4C405.101 321.4 405.901 315.9 408.801 312.1C411.701 308.4 415.401 307 415.401 307Z" fill="url(#paint3_linear_509_3083)"/>
<path d="M594.201 417.7C594.201 417.7 602.301 398.5 625.801 373.1C649.401 347.7 668.401 340.6 668.401 340.6C668.401 340.6 669.201 365.1 640.301 389.7C611.401 414.3 594.201 417.7 594.201 417.7Z" fill="white"/>
<path d="M586.2 418.6C586.2 418.6 587.4 395.4 579.7 376C572 356.6 555.8 348.4 555.8 348.4C555.8 348.4 554.9 364.1 565.6 385.3C576.2 406.5 586.2 418.6 586.2 418.6Z" fill="url(#paint4_linear_509_3083)"/>
<path d="M581 466.2C581 466.2 569.1 441.6 547.5 419.5C525.9 397.4 505.6 387.8 505.6 387.8C505.6 387.8 503.7 413.4 535 438C566.4 462.6 581 466.2 581 466.2Z" fill="url(#paint5_linear_509_3083)"/>
<path d="M596.602 458.1C596.602 458.1 617.402 438.4 634.802 427C652.202 415.6 680.102 406.5 680.102 406.5C680.102 406.5 680.702 424.1 646.102 441.8C616.702 456.9 596.602 458.1 596.602 458.1Z" fill="white"/>
<path d="M585.201 535.8C585.201 535.8 622.801 518.5 636.301 502.3C649.901 486.2 658.501 476.3 659.401 457.8C659.401 457.8 636.501 468.1 613.301 494.1C590.101 520 585.201 535.8 585.201 535.8Z" fill="white"/>
<path d="M583.301 593.6C583.301 593.6 597.801 567.5 617.301 546.8C636.901 526 659.101 514.5 659.101 514.5C659.101 514.5 662.401 535.8 633.401 561.9C607.601 585.1 583.301 593.6 583.301 593.6Z" fill="white"/>
<path d="M570 561.9C570 561.9 543.9 538.2 536.6 520.2C529.3 502.2 522.8 488.6 530 466.7C530 466.7 547.5 483.3 556.5 508.2C567.1 537.4 570 561.9 570 561.9Z" fill="url(#paint6_linear_509_3083)"/>
<path d="M550.602 563.8C550.602 563.8 536.802 535.3 518.202 518.1C499.602 500.9 475.202 485.2 475.202 485.2C475.202 485.2 473.902 511.7 503.602 535.4C533.302 559.1 550.602 563.8 550.602 563.8Z" fill="url(#paint7_linear_509_3083)"/>
<path d="M525.301 571.4C507.001 543.5 479.801 537.4 479.801 537.4C479.801 537.4 489.901 562.1 505.101 582.1C520.301 602.1 546.301 621.4 546.301 621.4H547.101C547.001 621.4 543.601 599.3 525.301 571.4Z" fill="url(#paint8_linear_509_3083)"/>
<path d="M135.1 492.9H36.5V591.6H135.1V492.9Z" fill="url(#paint9_linear_509_3083)"/>
<path d="M193.7 171.8C193.7 169.9 193 169.1 191.3 168.5C186.1 166.7 180.9 164.9 175.9 162.8C174.7 162.3 173.5 161 173 159.8C170.9 154.9 168.9 149.8 167.1 144.8C166.7 143.8 166.7 142.4 167.1 141.5C169.6 135.9 172.4 130.5 174.9 124.9C175.3 124.1 175.1 122.4 174.5 121.8C170.3 117.3 165.9 113.1 161.7 108.6C160.6 107.4 159.7 107.3 158.2 108C152.9 110.6 147.6 113.2 142.2 115.6C141.2 116.1 139.6 116.2 138.6 115.8C133.4 113.9 128.3 111.9 123.3 109.8C122.1 109.3 120.9 108.2 120.4 107.1C118.3 101.9 116.4 96.6 114.6 91.3C114 89.6 113.3 88.8 111.4 88.8C105.5 88.9 99.6 88.9 93.6 88.8C91.7 88.8 90.9 89.5 90.3 91.2C88.5 96.4 86.5 101.5 84.7 106.7C84.1 108.5 83.2 109.3 81.4 109.9C76.5 111.6 71.7 113.5 67 115.7C65.3 116.5 64 116.5 62.4 115.7C57.2 113.1 51.9 110.7 46.7 108.1C45.2 107.3 44.2 107.5 42.9 108.8C38.8 113.1 34.6 117.3 30.3 121.4C28.8 122.8 29 123.8 29.8 125.4C32.4 130.6 34.9 135.8 37.2 141.2C37.7 142.3 37.6 143.9 37.1 145.1C34.9 150.1 32.6 155.1 30.2 160C29.6 161.2 28.4 162.5 27.2 163C21.7 165.1 16.1 167 10.5 168.8C8.8 169.4 8 170.1 8 172.1C8.1 178 8.1 183.9 8 189.9C8 191.7 8.5 192.5 10.2 193C15.9 194.8 21.6 196.7 27.3 198.9C28.5 199.4 29.6 200.7 30.2 202C32.5 206.8 34.3 211.7 36.7 216.4C37.7 218.3 37.7 219.7 36.8 221.6C34.3 226.5 32.1 231.5 29.7 236.5C28.9 238.1 28.9 239.2 30.3 240.5C34.6 244.6 38.8 248.8 42.9 253.1C44.3 254.5 45.3 254.5 46.9 253.7C52 251.2 57.2 248.8 62.3 246.3C63.9 245.5 65.2 245.6 66.9 246.4C71.8 248.8 76.9 250.8 81.9 253.2C82.9 253.7 84 254.8 84.4 255.8C86.5 261.4 88.5 267.1 90.3 272.8C90.8 274.4 91.7 275.1 93.4 275C99.3 274.9 105.2 274.9 111.2 275C113.1 275 113.9 274.3 114.4 272.6C116.2 267 118.1 261.4 120.2 255.9C120.6 254.8 121.9 253.6 123 253.1C128.1 250.7 133.2 248.5 138.4 246.4C139.5 246 141 245.9 142 246.3C148 249 154 251.9 160.2 254.8C165.1 249.9 169.9 245 174.6 240.1C175.2 239.5 175.3 237.8 174.9 236.9C172.5 231.5 169.8 226.2 167.4 220.8C167 219.8 166.8 218.4 167.2 217.4C169 212.1 171 206.9 173.1 201.7C173.6 200.6 174.7 199.3 175.9 198.9C181.1 196.8 186.4 194.9 191.6 193.1C193.3 192.5 193.8 191.7 193.8 190C193.6 183.6 193.6 177.7 193.7 171.8ZM102.2 215.3C83 215.3 67.6 199.9 67.6 180.6C67.6 161.3 83 146 102.5 146C121.4 146 136.8 161.6 136.8 180.6C136.9 199.9 121.5 215.3 102.2 215.3Z" fill="white"/>
<path d="M500.8 394.9H425.5V470.2H500.8V394.9Z" fill="url(#paint10_linear_509_3083)"/>
<path d="M367.2 372H291.9V447.3H367.2V372Z" fill="url(#paint11_linear_509_3083)"/>
<path d="M282.957 184.275C287.022 181.927 286.892 174.092 282.667 166.774C278.441 159.456 271.719 155.427 267.654 157.775C263.589 160.123 263.719 167.958 267.945 175.276C272.17 182.593 278.892 186.622 282.957 184.275Z" fill="white"/>
<path d="M284.424 181.627C287.294 179.97 286.532 173.276 282.722 166.675C278.912 160.074 273.496 156.066 270.626 157.722C267.756 159.379 268.518 166.073 272.328 172.674C276.138 179.275 281.554 183.283 284.424 181.627Z" fill="url(#paint12_linear_509_3083)"/>
<path d="M306.111 169.639C308.981 167.982 308.219 161.288 304.409 154.687C300.599 148.086 295.184 144.078 292.314 145.734C289.444 147.391 290.206 154.085 294.016 160.686C297.826 167.287 303.241 171.295 306.111 169.639Z" fill="url(#paint13_linear_509_3083)"/>
<path d="M61.6 505.3H43V563.3H61.6V505.3Z" fill="#343B43"/>
<path d="M92.4008 527.5H73.8008V563.3H92.4008V527.5Z" fill="white"/>
<path d="M122.901 540.2H104.301V563.3H122.901V540.2Z" fill="white"/>
<path d="M660.3 286.4C666.32 286.4 671.2 281.52 671.2 275.5C671.2 269.48 666.32 264.6 660.3 264.6C654.28 264.6 649.4 269.48 649.4 275.5C649.4 281.52 654.28 286.4 660.3 286.4Z" fill="url(#paint14_linear_509_3083)"/>
<path d="M330.602 216.2L325.602 231.5L336.402 250.2L329.202 316.9L330.902 325.5H343.602L351.202 273.4L346.202 250.2L347.602 244.3L330.602 216.2Z" fill="url(#paint15_linear_509_3083)"/>
<path d="M550.6 564.9H549.1C548.9 564.9 548.8 564.9 548.6 564.8C469.5 527.8 473.9 486.9 474.1 485.1C474.1 484.8 474.4 484.5 474.7 484.3C475 484.1 475.4 484.1 475.7 484.3C525 509 551.4 562.8 551.6 563.4C551.8 563.7 551.7 564.1 551.5 564.4C551.3 564.7 551 564.9 550.6 564.9ZM476.2 487C476.3 494.8 480.6 530.4 548.8 562.5C543.8 553.1 518.8 509.1 476.2 487Z" fill="#343B43"/>
<path d="M584.6 594C584.5 594 583.3 593.8 583.3 593.8C583 593.8 582.6 593.5 582.5 593.2C582.3 592.9 582.3 592.5 582.5 592.2C582.8 591.6 612.9 536.5 658.8 513.5C659.1 513.3 659.5 513.4 659.8 513.5C660.1 513.7 660.3 514 660.4 514.3C660.6 516 664.8 556.7 585.2 593.8C584.9 593.9 584.7 594 584.6 594ZM658.2 516.2C618.5 536.9 591 581.6 585.4 591.4C653.5 559.2 658 524 658.2 516.2Z" fill="#343B43"/>
<path d="M547 623C546.8 623 546.6 622.9 546.4 622.8L544.2 621.2C532.1 612.3 491.9 579.8 479.5 537.7C479.4 537.4 479.5 537 479.7 536.7C479.9 536.4 480.3 536.3 480.7 536.3C481.2 536.4 528.3 544.2 548 621.7C548.1 622.1 547.9 622.6 547.6 622.8C547.4 622.9 547.2 623 547 623ZM482.1 538.8C495.1 580.2 536.4 612.7 545.3 619.3C527.7 554.1 490.5 540.9 482.1 538.8Z" fill="#343B43"/>
<path d="M569.2 563.4C568.9 563.4 568.7 563.3 568.5 563.1C509.1 504.6 528.3 467.7 529.2 466.2C529.4 465.9 529.7 465.7 530 465.7C530.3 465.7 530.7 465.8 530.9 466C564.5 500.9 570.3 551.9 571.1 561.8C571.1 562.2 570.9 562.6 570.6 562.8L569.8 563.3C569.6 563.4 569.4 563.4 569.2 563.4ZM530.4 468.6C527.6 475.7 518.2 510 568.8 560.4C567.6 548 561.1 501.5 530.4 468.6Z" fill="#343B43"/>
<path d="M581.001 467.3C580.901 467.3 580.701 467.3 580.601 467.2L578.201 466.1C500.801 429.3 504.401 389.3 504.601 387.6C504.601 387.3 504.801 387 505.101 386.8C505.401 386.6 505.801 386.6 506.101 386.8C555.001 411.3 580.901 463.5 582.001 465.7C582.201 466.1 582.101 466.6 581.801 466.9C581.601 467.2 581.301 467.3 581.001 467.3ZM506.701 389.5C506.901 397.3 511.901 432.1 578.701 464C572.801 452.9 548.301 411.1 506.701 389.5Z" fill="#343B43"/>
<path d="M585.6 418.8C585.3 418.8 585 418.7 584.8 418.4C584.5 418 555.2 382 554.6 348.3C554.6 348 554.8 347.6 555 347.4C555.3 347.2 555.6 347.1 556 347.3C556.3 347.4 588.2 359.8 587.1 417.1C587.1 417.3 587 417.6 586.8 417.8L586.3 418.4C586.2 418.7 585.9 418.8 585.6 418.8ZM556.8 350C558.1 378.3 579.5 408 585.1 415.3C585.5 368.2 562.9 353.2 556.8 350Z" fill="#343B43"/>
<path d="M594.2 419.7C594 419.7 593.8 419.6 593.6 419.5C593.3 419.3 593.1 418.9 593.2 418.5L593.5 416.1C593.5 416 593.6 415.9 593.6 415.8C600.3 403.3 625.4 361.1 668 339.7C668.3 339.5 668.7 339.6 669 339.7C669.3 339.9 669.5 340.2 669.5 340.5C669.7 342.2 673.3 382.6 594.6 419.6C594.5 419.6 594.4 419.7 594.2 419.7ZM595.6 416.6C662.3 384.9 667.2 350.1 667.5 342.3C626.5 363.5 602.2 404.2 595.6 416.6Z" fill="#343B43"/>
<path d="M585.201 536.8C585.101 536.8 584.901 536.8 584.801 536.7L584.101 536.4C583.801 536.3 583.601 536.1 583.501 535.8C583.401 535.5 583.401 535.2 583.601 535C586.401 529.5 612.501 480.2 659.101 456.8C659.401 456.6 659.801 456.7 660.101 456.8C660.401 457 660.601 457.3 660.601 457.6C660.801 459.3 664.401 499.7 585.701 536.7C585.501 536.8 585.301 536.8 585.201 536.8ZM658.501 459.5C616.901 481 592.201 523.4 586.501 534C653.401 502 658.301 467.2 658.501 459.5Z" fill="#343B43"/>
<path d="M597.5 459.8C597.3 459.8 597.1 459.7 596.9 459.6L596 459C595.7 458.8 595.6 458.5 595.5 458.2C595.5 457.9 595.6 457.6 595.8 457.3C596.2 456.9 635.3 416 679.8 405.4C680.2 405.3 680.5 405.4 680.8 405.7C681.1 405.9 681.2 406.3 681.1 406.6C680.9 408.1 674.2 443.2 598.2 459.4C598.1 459.5 597.9 459.6 597.7 459.7C597.7 459.7 597.6 459.8 597.5 459.8ZM678.6 407.9C640.7 417.7 607.1 449.1 599.1 457C663.1 443.1 676.3 415 678.6 407.9Z" fill="#343B43"/>
<path d="M567.1 647.4C566.4 647.3 566 646.8 566 646.2L593.1 418.5C593.2 417.9 593.7 417.5 594.3 417.6C594.9 417.7 595.3 418.2 595.2 418.8L568.1 646.5C568.1 647 567.6 647.4 567.1 647.4Z" fill="#343B43"/>
<path d="M554.4 647.4C553.8 647.4 553.4 647 553.3 646.4L549.5 563.9C549.5 563.3 549.9 562.8 550.5 562.8C551.2 562.7 551.6 563.2 551.6 563.8L555.4 646.3C555.5 646.8 555.1 647.3 554.4 647.4C554.5 647.4 554.5 647.4 554.4 647.4Z" fill="#343B43"/>
<path d="M547.8 647.3C547.2 647.3 546.8 646.8 546.7 646.3L546 622C546 621.4 546.4 620.9 547 620.9C547.5 620.9 548.1 621.3 548.1 621.9L548.9 646.2C548.9 646.7 548.4 647.2 547.8 647.3Z" fill="#343B43"/>
<path d="M580.7 647.3C580.1 647.3 579.6 646.8 579.6 646.2L582.2 592.8C582.2 592.2 582.7 591.8 583.3 591.8C583.9 591.8 584.3 592.3 584.3 592.9L581.7 646.3C581.8 646.8 581.3 647.3 580.7 647.3Z" fill="#343B43"/>
<path d="M574.201 579.9C573.701 579.9 573.301 579.6 573.201 579.1L568.701 560.8C568.601 560.2 568.901 559.7 569.501 559.5C570.101 559.3 570.601 559.7 570.801 560.3L575.301 578.6C575.401 579.2 575.101 579.7 574.501 579.9C574.301 579.9 574.301 579.9 574.201 579.9Z" fill="#343B43"/>
<path d="M578.901 547.9C578.701 547.9 578.601 547.9 578.401 547.8C577.901 547.5 577.701 546.9 577.901 546.4L583.401 535.1C583.701 534.6 584.301 534.4 584.801 534.6C585.301 534.9 585.501 535.5 585.301 536L579.801 547.3C579.701 547.6 579.301 547.9 578.901 547.9Z" fill="#343B43"/>
<path d="M584 501.5C583.5 501.5 583 501.1 582.9 500.5L579.9 466.3C579.9 465.7 580.3 465.2 580.9 465.1C581.5 465 582 465.5 582.1 466.1L585.1 500.3C585.1 500.9 584.6 501.4 584 501.5Z" fill="#343B43"/>
<path d="M590.601 445.7C590.101 445.7 589.701 445.3 589.601 444.8L584.601 417.9C584.501 417.3 584.901 416.8 585.501 416.7C586.101 416.6 586.601 417 586.701 417.6L591.701 444.5C591.801 445.1 591.401 445.6 590.901 445.7C590.701 445.7 590.601 445.7 590.601 445.7Z" fill="#343B43"/>
<path d="M586.6 483.2C586.5 483.2 586.3 483.2 586.2 483.1C585.7 482.9 585.4 482.2 585.6 481.7L595.9 457.9C596.1 457.4 596.8 457.1 597.3 457.3C597.8 457.5 598.1 458.2 597.9 458.7L587.6 482.5C587.4 483 587 483.2 586.6 483.2Z" fill="#343B43"/>
<path d="M479.099 326.5C478.799 326.5 478.399 326.3 478.199 326C478.099 325.8 464.499 306.6 438.699 304.4C423.199 303.1 413.699 306.5 408.599 315.3C407.599 317.1 406.799 319.6 406.199 322.6C406.099 323.2 405.599 323.5 404.999 323.5C404.399 323.4 403.999 322.8 404.099 322.3C404.699 319 405.599 316.3 406.699 314.3C412.199 304.8 422.399 301 438.799 302.4C465.699 304.7 479.799 324.7 479.899 324.9C480.199 325.4 480.099 326 479.599 326.4C479.499 326.5 479.299 326.5 479.099 326.5Z" fill="#343B43"/>
<path d="M425.1 353.5C424.1 353.5 423.1 353.2 422.1 352.6C420.5 351.6 418.8 349.6 417.9 346.5C417.3 348.2 416.4 349.9 415.1 350.9C414 351.8 412.7 352.1 411.4 351.8C404.5 350.5 402.3 333.3 404.2 322.3C404.3 321.7 404.8 321.3 405.4 321.4C406 321.5 406.4 322 406.3 322.6C404.3 334.4 407.2 348.8 411.8 349.6C412.6 349.7 413.2 349.6 413.8 349.1C416.1 347.3 417 341.8 417.2 339.4C417.2 339.3 417.2 339.1 417.2 339C417.2 338.4 417.8 337.9 418.3 338C418.9 338 419.3 338.5 419.3 339.1C419.3 339.1 419.3 339.3 419.3 339.5C418.9 345.7 421.1 349.5 423.2 350.8C424.4 351.5 425.6 351.6 426.6 351C429.4 349.3 430.1 343.8 430.1 341.7C430.1 341.1 430.6 340.7 431.1 340.6C431.7 340.6 432.2 341.1 432.2 341.6C432.3 343.6 433.1 349 435.9 349.7C436.5 349.8 437.2 349.7 438 349.2C439.3 348.4 443.7 344.7 446.6 331.3C449.2 319.3 450.6 316.5 450.7 316.4C451 315.9 451.6 315.7 452.1 316C452.6 316.3 452.8 316.9 452.6 317.4C452.6 317.4 451.2 320.3 448.7 331.8C446.6 341.6 443.1 348.6 439.1 351.1C437.8 351.9 436.5 352.2 435.3 351.9C433.3 351.4 432 349.6 431.2 347.7C430.6 349.7 429.5 351.8 427.6 352.9C426.8 353.3 426 353.5 425.1 353.5Z" fill="#343B43"/>
<path d="M431.1 342.8C430.4 342.7 430 342.2 430 341.6C430 341.4 432 325.3 433.8 315.2C433.9 314.6 434.4 314.2 435 314.4C435.6 314.5 436 315.1 435.9 315.6C434 325.6 432.1 341.7 432.1 341.9C432.1 342.4 431.6 342.8 431.1 342.8Z" fill="#343B43"/>
<path d="M418.2 341.7C417.5 341.6 417.1 341.1 417.1 340.5C417.1 340.3 419.1 324.2 420.9 314.1C421 313.5 421.6 313.1 422.1 313.2C422.7 313.3 423.1 313.9 422.9 314.4C421 324.4 419.1 340.5 419.1 340.7C419.2 341.3 418.7 341.7 418.2 341.7Z" fill="#343B43"/>
<path d="M280.401 185.4C279.001 185.4 277.601 185 276.101 184.3C272.801 182.8 269.601 179.7 267.101 175.9C264.701 172.1 263.301 167.8 263.301 164.2C263.301 162.1 263.801 160.4 264.601 159.1C265.101 158.3 265.701 157.7 266.501 157.2C267.501 156.6 268.701 156.2 270.001 156.2C274.401 156.2 279.601 159.9 283.301 165.6C285.601 169.2 286.301 172.8 287.001 175.9L287.101 176.4V178.4C286.901 181.2 285.901 183.1 284.001 184.4C282.901 185.1 281.701 185.4 280.401 185.4ZM270.001 158.4C269.101 158.4 268.301 158.6 267.701 159C267.201 159.3 266.801 159.7 266.501 160.2C265.901 161.2 265.501 162.6 265.501 164.2C265.501 167.4 266.801 171.3 269.001 174.8C271.201 178.3 274.201 181.1 277.101 182.4C279.401 183.4 281.401 183.5 282.801 182.6C284.101 181.7 284.801 180.4 285.001 178.3V176.6C284.301 173.2 283.601 170 281.501 166.8C278.201 161.8 273.601 158.4 270.001 158.4Z" fill="#343B43"/>
<path d="M302.201 173.6C297.701 173.6 292.501 169.9 288.901 164.3C286.601 160.8 285.301 156.9 285.201 153.4C285.101 149.7 286.301 146.9 288.601 145.4C289.701 144.7 290.901 144.4 292.301 144.4C296.801 144.4 302.001 148.1 305.601 153.7C310.501 161.3 310.601 169.7 305.901 172.6C304.801 173.2 303.601 173.6 302.201 173.6ZM292.201 146.4C291.201 146.4 290.401 146.6 289.601 147.1C287.901 148.2 287.101 150.3 287.201 153.3C287.301 156.4 288.501 159.9 290.601 163.2C293.801 168.2 298.401 171.5 302.101 171.5C303.101 171.5 303.901 171.3 304.701 170.8C308.301 168.5 307.801 161.2 303.701 154.8C300.601 149.8 296.001 146.4 292.201 146.4Z" fill="#343B43"/>
<path d="M283.101 168.6C282.701 168.6 282.201 168.3 282.101 167.9C281.601 166.4 281.301 163.6 283.501 162.2C286.801 160 290.301 162.8 290.401 162.9C290.901 163.3 290.901 163.9 290.601 164.4C290.201 164.9 289.601 164.9 289.101 164.6C289.001 164.5 286.701 162.7 284.601 164C283.301 164.8 284.101 167.2 284.101 167.2C284.301 167.8 284.001 168.4 283.401 168.5C283.301 168.6 283.201 168.6 283.101 168.6Z" fill="#343B43"/>
<path d="M304.701 155.2C304.301 155.2 304.001 155 303.801 154.7C303.501 154.2 303.701 153.5 304.201 153.2L317.101 145.5C317.601 145.2 318.301 145.4 318.601 145.9C318.901 146.4 318.701 147.1 318.201 147.4L305.301 155.1C305.101 155.2 304.901 155.2 304.701 155.2Z" fill="#343B43"/>
<path d="M291.602 182.7C290.802 182.7 290.102 182.5 289.402 182.2C286.302 180.8 285.302 176.9 284.502 174.1C283.402 170 281.102 158.9 281.002 158.4C280.902 157.8 281.302 157.3 281.802 157.1C282.402 157 282.902 157.4 283.102 157.9C283.102 158 285.502 169.4 286.502 173.4C287.202 176 288.102 179.3 290.202 180.3C291.302 180.8 292.902 180.6 294.702 179.7C295.202 179.4 295.902 179.6 296.102 180.2C296.402 180.7 296.202 181.4 295.602 181.6C294.202 182.4 292.902 182.7 291.602 182.7Z" fill="#343B43"/>
<path d="M404.6 326.8H238C237.4 326.8 236.9 326.3 236.9 325.7C236.9 325.1 237.4 324.6 238 324.6H404.6C405.2 324.6 405.7 325.1 405.7 325.7C405.6 326.3 405.2 326.8 404.6 326.8Z" fill="#343B43"/>
<path d="M118.202 384.1C117.602 384.1 117.102 383.6 117.102 383V325.7C117.102 325.1 117.602 324.6 118.202 324.6H162.302C162.902 324.6 163.402 325.1 163.402 325.7C163.402 326.3 162.902 326.8 162.302 326.8H119.302V383C119.302 383.6 118.802 384.1 118.202 384.1Z" fill="#343B43"/>
<path d="M118.202 486.4C117.602 486.4 117.102 485.9 117.102 485.3V456.4C117.102 455.8 117.602 455.3 118.202 455.3C118.802 455.3 119.302 455.8 119.302 456.4V485.3C119.302 485.9 118.802 486.4 118.202 486.4Z" fill="#343B43"/>
<path d="M514.202 624.4H118.202C117.602 624.4 117.102 623.9 117.102 623.3V584C117.102 583.4 117.602 582.9 118.202 582.9C118.802 582.9 119.302 583.4 119.302 584V622.3H513.202V592.8C513.202 592.2 513.702 591.7 514.302 591.7C514.902 591.7 515.402 592.2 515.402 592.8V623.4C515.302 623.9 514.802 624.4 514.202 624.4Z" fill="#343B43"/>
<path d="M514.202 558.8C513.602 558.8 513.102 558.3 513.102 557.7V543.8C513.102 543.2 513.602 542.7 514.202 542.7C514.802 542.7 515.302 543.2 515.302 543.8V557.7C515.302 558.3 514.802 558.8 514.202 558.8Z" fill="#343B43"/>
<path d="M514.202 515.2C513.602 515.2 513.102 514.7 513.102 514.1V415.1C513.102 414.5 513.602 414 514.202 414C514.802 414 515.302 414.5 515.302 415.1V514.1C515.302 514.7 514.802 515.2 514.202 515.2Z" fill="#343B43"/>
<path d="M514.2 393.6C513.6 393.6 513.1 393.1 513.1 392.5V326.7H449.5C448.9 326.7 448.4 326.2 448.4 325.6C448.4 325 448.9 324.5 449.5 324.5H514.2C514.8 324.5 515.3 325 515.3 325.6V392.4C515.3 393.1 514.8 393.6 514.2 393.6Z" fill="#343B43"/>
<path d="M561.301 209.5C505.501 209.5 460.201 164.1 460.201 108.4C460.201 52.6 505.601 7.29999 561.301 7.29999C561.901 7.29999 562.401 7.79999 562.401 8.39999C562.401 8.99999 561.901 9.49999 561.301 9.49999C506.701 9.49999 462.301 53.9 462.301 108.5C462.301 163.1 506.701 207.5 561.301 207.5C580.501 207.5 599.101 202 615.101 191.6C615.601 191.3 616.301 191.4 616.601 191.9C616.901 192.4 616.801 193.1 616.301 193.4C599.901 203.9 580.901 209.5 561.301 209.5Z" fill="#343B43"/>
<path d="M660.502 122.4C659.802 122.3 659.402 121.8 659.402 121.2C659.902 117 660.202 112.6 660.202 108.3C660.202 53.7 615.802 9.29998 561.202 9.29998C560.602 9.29998 560.102 8.79998 560.102 8.19998C560.102 7.59998 560.602 7.09998 561.202 7.09998C617.002 7.09998 662.302 52.5 662.302 108.2C662.302 112.6 662.002 117 661.502 121.3C661.502 122 661.102 122.4 660.502 122.4Z" fill="#343B43"/>
<path d="M561.302 109.4H461.202C460.602 109.4 460.102 108.9 460.102 108.3C460.102 107.7 460.602 107.2 461.202 107.2H560.202V8.19998C560.202 7.59998 560.702 7.09998 561.302 7.09998C561.902 7.09998 562.402 7.59998 562.402 8.19998V108.3C562.402 108.9 561.902 109.4 561.302 109.4Z" fill="#343B43"/>
<path d="M514.2 359.8H220C219.4 359.8 218.9 359.3 218.9 358.7C218.9 358.1 219.4 357.6 220 357.6H514.2C514.8 357.6 515.3 358.1 515.3 358.7C515.3 359.3 514.8 359.8 514.2 359.8Z" fill="#343B43"/>
<path d="M158.002 359.8H118.202C117.602 359.8 117.102 359.3 117.102 358.7C117.102 358.1 117.602 357.6 118.202 357.6H158.002C158.602 357.6 159.102 358.1 159.102 358.7C159.102 359.3 158.602 359.8 158.002 359.8Z" fill="#343B43"/>
<path d="M132.401 585H33.8012C33.2012 585 32.7012 584.5 32.7012 583.9V485.3C32.7012 484.7 33.2012 484.2 33.8012 484.2H132.401C133.001 484.2 133.501 484.7 133.501 485.3V584C133.501 584.6 133.001 585 132.401 585ZM34.8012 582.9H131.301V486.4H34.8012V582.9Z" fill="#343B43"/>
<path d="M61.5004 564.4H43.0004C42.4004 564.4 41.9004 563.9 41.9004 563.3V506C41.9004 505.4 42.4004 504.9 43.0004 504.9H61.5004C62.1004 504.9 62.6004 505.4 62.6004 506V563.3C62.5004 563.9 62.0004 564.4 61.5004 564.4ZM44.1004 562.2H60.4004V507H44.1004V562.2Z" fill="#343B43"/>
<path d="M92.3008 564.4H73.9008C73.3008 564.4 72.8008 563.9 72.8008 563.3V527.6C72.8008 527 73.3008 526.5 73.9008 526.5H92.4008C93.0008 526.5 93.5008 527 93.5008 527.6V563.3C93.4008 563.9 92.9008 564.4 92.3008 564.4ZM74.9008 562.2H91.2008V528.7H74.9008V562.2Z" fill="#343B43"/>
<path d="M123.202 564.4H104.702C104.102 564.4 103.602 563.9 103.602 563.3V540.6C103.602 540 104.102 539.5 104.702 539.5H123.202C123.802 539.5 124.302 540 124.302 540.6V563.3C124.302 563.9 123.802 564.4 123.202 564.4ZM105.802 562.2H122.102V541.6H105.802V562.2Z" fill="#343B43"/>
<path d="M303.301 201.8C297.301 201.8 291.701 199.9 287.801 195.5C286.001 193.5 283.801 190.2 280.901 185.2C280.601 184.7 280.801 184 281.301 183.7C281.801 183.4 282.501 183.6 282.801 184.1C285.701 188.9 287.901 192.2 289.501 194.1C296.801 202.4 311.601 200.8 320.801 193.9C330.601 186.7 333.401 181.6 335.301 168.3C335.401 167.7 335.901 167.3 336.501 167.4C337.101 167.5 337.501 168 337.401 168.6C335.501 182.5 332.301 188.1 322.101 195.7C316.801 199.5 309.901 201.8 303.301 201.8Z" fill="#343B43"/>
<path d="M267.301 158.7C266.901 158.7 266.501 158.5 266.401 158.1L263.601 152.6C263.301 152.1 263.501 151.4 264.101 151.2C264.601 150.9 265.301 151.1 265.501 151.7L268.301 157.2C268.601 157.7 268.401 158.4 267.801 158.6C267.601 158.7 267.401 158.7 267.301 158.7Z" fill="#343B43"/>
<path d="M340.301 169.6C340.101 169.6 340.001 169.6 339.901 169.5C339.401 169.3 339.101 168.6 339.401 168.1C347.501 150.7 347.601 147.5 346.601 139.2C345.601 131.1 340.501 123.8 335.001 116.2L333.401 113.9C328.001 106.3 322.901 99.1 316.101 97C308.501 94.6 299.201 96.4 298.601 97.8C297.501 100.5 287.901 109.1 273.901 109.6C260.601 110.1 250.101 118.6 246.901 126.3C245.501 129.7 244.701 139.9 249.401 148.3C252.701 154.3 258.001 158 265.201 159.2C265.801 159.3 266.201 159.8 266.101 160.4C266.001 161 265.501 161.4 264.901 161.3C257.201 160 251.201 155.9 247.601 149.4C242.601 140.3 243.501 129.4 245.001 125.6C248.501 117.1 259.601 108.2 273.901 107.6C286.801 107.1 295.901 99.1 296.801 97.1C298.301 93.6 309.801 92.9 316.901 95.1C324.301 97.4 329.901 105.2 335.301 112.8L336.901 115.1C342.301 122.6 347.801 130.4 348.901 139.1C349.901 147.7 349.901 151.2 341.501 169.1C341.101 169.4 340.701 169.6 340.301 169.6Z" fill="#343B43"/>
<path d="M264.101 152.4C262.801 152.4 261.501 152.2 260.301 151.7C259.801 151.5 259.501 150.9 259.701 150.3C259.901 149.8 260.501 149.5 261.101 149.7C267.801 152.3 277.201 145.2 285.401 139C292.001 134 297.801 129.7 301.801 130.5C307.701 131.6 310.901 137.1 313.101 141.2C313.801 142.4 314.401 143.6 315.001 144.4C316.001 145.7 316.501 145.8 316.501 145.8C316.601 145.8 316.701 145.6 316.801 145.4C317.001 144.9 317.601 144.6 318.201 144.8C318.701 145 319.001 145.6 318.801 146.1C318.701 146.3 318.201 147.6 316.801 147.8C315.601 148 314.501 147.3 313.201 145.6C312.501 144.7 311.801 143.5 311.101 142.2C308.901 138.3 306.201 133.5 301.201 132.6C298.001 132.1 292.401 136.3 286.401 140.8C279.301 146.3 271.201 152.4 264.101 152.4Z" fill="#343B43"/>
<path d="M345.901 183.1C345.501 183.1 345.101 182.9 344.901 182.4L335.001 158.1C334.801 157.6 335.001 156.9 335.601 156.7C336.101 156.5 336.801 156.7 337.001 157.3L346.901 181.6C347.101 182.1 346.901 182.8 346.301 183C346.201 183.1 346.001 183.1 345.901 183.1Z" fill="#343B43"/>
<path d="M243.6 487.1C243.4 487.1 243.2 487.1 243.1 486.9C242.2 486.3 148.9 428.8 158.3 344.8C162.8 304.3 177.3 271.2 201.3 246.5C201.7 246.1 202.4 246.1 202.8 246.5C203.2 246.9 203.2 247.6 202.8 248C179.1 272.3 164.8 305 160.4 345.1C151.6 423.9 234.9 479.2 243.5 484.7L278 450C270.3 443.7 217.6 399.4 218.9 355.7C219.3 342.5 223.1 333.2 230.1 328.1C239.6 321.2 251.4 324.4 251.9 324.5C252.5 324.7 252.8 325.2 252.6 325.8C252.4 326.4 251.9 326.7 251.3 326.5C251.2 326.5 240 323.4 231.3 329.8C224.8 334.5 221.4 343.3 221 355.8C219.6 401.7 279.6 448.7 280.2 449.1C280.4 449.3 280.6 449.6 280.6 449.9C280.6 450.2 280.5 450.5 280.3 450.7L244.3 486.9C244.1 487 243.9 487.1 243.6 487.1Z" fill="#343B43"/>
<path d="M246.702 217.3C246.302 217.3 245.902 217.1 245.702 216.7C245.502 216.2 245.702 215.5 246.202 215.3C279.002 200.3 308.802 199.8 309.102 199.8C309.702 199.8 310.202 200.3 310.202 200.8C310.202 201.4 309.702 201.9 309.202 201.9C308.902 201.9 279.502 202.4 247.102 217.3C247.002 217.3 246.802 217.3 246.702 217.3Z" fill="#343B43"/>
<path d="M496.701 326.5C496.101 326.5 495.601 326 495.601 325.4C495.601 325.3 496.101 311.3 492.101 293.2C492.001 292.6 492.301 292.1 492.901 291.9C493.501 291.8 494.001 292.1 494.201 292.7C498.301 311.1 497.801 325.3 497.801 325.4C497.701 326.1 497.301 326.5 496.701 326.5Z" fill="#343B43"/>
<path d="M476.8 254.9C476.5 254.9 476.2 254.8 476 254.5C447.9 220.7 410.4 202 361.4 197.3C360.8 197.2 360.4 196.7 360.4 196.1C360.5 195.5 360.9 195.1 361.6 195.1C411.2 199.9 449.2 218.8 477.6 253C478 253.5 477.9 254.1 477.5 254.5C477.3 254.9 477 254.9 476.8 254.9Z" fill="#343B43"/>
<path d="M481.4 541.2H165.6C165 541.2 164.5 540.7 164.5 540.1V500.2C164.5 499.6 165 499.1 165.6 499.1H265.6C266.2 499.1 266.7 499.6 266.7 500.2C266.7 500.8 266.2 501.3 265.6 501.3H166.6V539.1H481.3C481.9 539.1 482.4 539.6 482.4 540.2C482.5 540.7 482 541.2 481.4 541.2Z" fill="#343B43"/>
<path d="M488.202 539.6C487.602 539.6 487.102 539.1 487.102 538.5V519.2C487.102 518.6 487.602 518.1 488.202 518.1C488.802 518.1 489.302 518.6 489.302 519.2V538.5C489.202 539.2 488.802 539.6 488.202 539.6Z" fill="#343B43"/>
<path d="M477.6 501.3H311.5C310.9 501.3 310.4 500.8 310.4 500.2C310.4 499.6 310.9 499.1 311.5 499.1H477.7C478.3 499.1 478.8 499.6 478.8 500.2C478.7 500.8 478.2 501.3 477.6 501.3Z" fill="#343B43"/>
<path d="M330.601 160.1C330.301 160.1 330.001 160.1 329.701 160.1C329.101 160.1 328.701 159.6 328.701 159C328.701 158.4 329.301 158 329.801 158C335.201 158.3 340.001 155 341.501 149.8C342.401 146.9 342.101 143.7 340.601 141C339.101 138.3 336.701 136.3 333.801 135.4C330.901 134.5 327.701 134.8 325.001 136.3C322.301 137.8 320.301 140.2 319.401 143.1C318.801 145 318.701 147.1 319.201 149C319.301 149.6 319.001 150.1 318.401 150.3C317.801 150.4 317.301 150.1 317.101 149.5C316.601 147.2 316.601 144.8 317.301 142.5C318.301 139 320.701 136.2 323.901 134.4C327.101 132.7 330.801 132.3 334.301 133.4C341.501 135.6 345.601 143.2 343.401 150.4C341.801 156.2 336.601 160.1 330.601 160.1Z" fill="#343B43"/>
<path d="M326.201 151.8C325.901 151.8 325.601 151.7 325.401 151.5C325.201 151.2 325.101 150.9 325.201 150.6L327.501 140C327.601 139.4 328.201 139 328.801 139.2C329.401 139.3 329.701 139.9 329.601 140.5L327.601 149.6L336.201 148.7C336.801 148.6 337.301 149.1 337.401 149.6C337.501 150.2 337.001 150.7 336.501 150.8L326.501 151.9C326.301 151.8 326.301 151.8 326.201 151.8Z" fill="#343B43"/>
<path d="M343.601 326.8C342.901 326.7 342.501 326.2 342.501 325.6L360.301 196.8L346.201 183.9L331.501 216.7C331.401 217 331.101 217.2 330.801 217.3C330.501 217.4 330.201 217.3 329.901 217.1L308.801 201.9L306.701 202L332.001 325.3C332.101 325.9 331.701 326.4 331.201 326.6C330.601 326.7 330.101 326.3 329.901 325.8L304.401 201.3C304.301 201 304.401 200.7 304.601 200.4C304.801 200.2 305.101 200 305.401 200L309.101 199.8C309.301 199.8 309.601 199.9 309.801 200L330.201 214.7L345.001 181.7C345.101 181.4 345.401 181.2 345.801 181.1C346.101 181 346.501 181.1 346.701 181.4L362.301 195.7C362.601 195.9 362.701 196.3 362.601 196.6L344.801 326C344.601 326.4 344.101 326.8 343.601 326.8Z" fill="#343B43"/>
<path d="M317.101 258.9C317.001 258.9 316.901 258.9 316.801 258.8C316.201 258.6 315.901 258 316.101 257.5L329.601 215.9C329.701 215.5 330.101 215.2 330.501 215.2C330.901 215.1 331.301 215.4 331.501 215.7L354.201 254.9C354.501 255.4 354.301 256.1 353.801 256.4C353.301 256.7 352.601 256.5 352.301 256L330.801 218.9L318.101 258.3C318.001 258.6 317.501 258.9 317.101 258.9Z" fill="#343B43"/>
<path d="M319.901 521.3C319.301 521.3 318.601 521.2 317.901 521C313.701 519.6 306.701 514.2 301.001 509.7C300.701 509.5 300.401 509.3 300.201 509.1C299.101 510 297.501 511.3 294.601 511.7C288.101 512.4 284.701 510.6 283.401 509.6C282.301 510.2 280.001 511.1 277.301 510.5C264.801 507.5 251.101 480.7 250.501 479.6C250.201 479.1 250.401 478.4 251.001 478.2C251.501 477.9 252.201 478.1 252.401 478.7C252.501 479 266.301 505.7 277.801 508.5C280.501 509.2 282.901 507.5 282.901 507.5C283.301 507.2 284.001 507.3 284.301 507.7C284.301 507.7 287.001 510.6 294.401 509.7C296.601 509.4 297.801 508.4 298.701 507.8C299.301 507.3 300.201 506.6 301.101 507.3C301.301 507.5 301.701 507.8 302.301 508.3C305.501 510.9 314.201 517.8 318.501 519.2C320.901 520 322.301 518.6 323.001 517.6C324.201 515.9 324.401 513.6 323.401 512.3C322.301 510.9 318.901 508 315.301 505C311.101 501.5 306.401 497.5 304.001 494.7L301.801 492.2C296.201 485.9 292.801 481.9 292.601 479.8C292.501 478.6 293.201 478.2 293.501 478.1C295.001 477.6 297.801 480 302.101 485.4C305.901 490.2 313.801 493.9 316.001 492.6C316.301 492.4 316.501 492.1 316.601 491.7C317.101 489.1 312.601 483.3 311.101 481.3C310.301 480.2 309.401 478.9 308.501 477.6C304.301 471.5 299.001 463.9 290.001 461.1C278.601 457.6 275.601 455.6 275.501 455.5C275.001 455.2 274.901 454.5 275.201 454C275.501 453.5 276.201 453.4 276.701 453.7C276.801 453.8 279.901 455.7 290.701 459C300.401 462 306.101 470.3 310.301 476.3C311.201 477.6 312.101 478.9 312.901 479.9C317.501 485.9 319.201 489.5 318.801 491.9C318.601 492.9 318.101 493.7 317.201 494.2C313.701 496.4 304.501 491.6 300.501 486.5C298.501 484 296.801 482.2 295.701 481.1C297.301 483.5 300.901 487.6 303.501 490.5L305.701 493C308.101 495.7 312.701 499.6 316.801 503.1C320.701 506.4 324.001 509.2 325.201 510.8C326.701 512.8 326.601 516.2 324.901 518.6C323.601 520.3 321.801 521.3 319.901 521.3Z" fill="#343B43"/>
<path d="M488.201 459.7H413.401C412.801 459.7 412.301 459.2 412.301 458.6V383.8C412.301 383.2 412.801 382.7 413.401 382.7H488.201C488.801 382.7 489.301 383.2 489.301 383.8V458.6C489.201 459.3 488.801 459.7 488.201 459.7ZM414.401 457.6H487.101V385H414.401V457.6Z" fill="#343B43"/>
<path d="M354.701 459.7H300.201C299.601 459.7 299.101 459.2 299.101 458.6C299.101 458 299.601 457.5 300.201 457.5H353.701V385H281.001V437.2C281.001 437.8 280.501 438.3 279.901 438.3C279.301 438.3 278.801 437.8 278.801 437.2V383.9C278.801 383.3 279.301 382.8 279.901 382.8H354.701C355.301 382.8 355.801 383.3 355.801 383.9V458.7C355.801 459.3 355.301 459.7 354.701 459.7Z" fill="#343B43"/>
<path d="M202.202 459.7H145.202C144.602 459.7 144.102 459.2 144.102 458.6V383.8C144.102 383.2 144.602 382.7 145.202 382.7H155.702C156.302 382.7 156.802 383.2 156.802 383.8C156.802 384.4 156.302 384.9 155.702 384.9H146.202V457.6H202.102C202.702 457.6 203.202 458.1 203.202 458.7C203.202 459.3 202.802 459.7 202.202 459.7Z" fill="#343B43"/>
<path d="M405 322.5C404.7 322.5 404.4 322.4 404.2 322.1L385.2 299.6L373.3 300C372.9 300 372.7 299.9 372.5 299.6L363.8 289.4C363.6 289.2 363.5 288.9 363.5 288.7L364.1 275.4C364.1 275 364.4 274.6 364.8 274.4C365.2 274.3 365.7 274.4 366 274.7L375.1 286L386.1 285.4L388.7 274.6L379.2 263.6C378.9 263.3 378.9 262.8 379.1 262.4C379.3 262 379.7 261.8 380.2 261.9L393.4 263.7C393.7 263.7 393.9 263.9 394.1 264.1L402.5 274.5C402.7 274.8 402.8 275.1 402.7 275.4L400.2 287L416.1 306.2C416.5 306.7 416.4 307.3 416 307.7C415.6 308.1 414.9 308 414.5 307.6L398.2 288C398 287.7 397.9 287.4 398 287.1L400.5 275.5L392.6 265.8L382.6 264.4L390.6 273.7C390.8 274 390.9 274.3 390.8 274.6L387.9 286.6C387.8 287.1 387.4 287.4 386.9 287.4L374.5 288.1C374.2 288.1 373.8 288 373.6 287.7L365.9 278.2L365.5 288.3L373.6 297.7L385.5 297.3C385.8 297.3 386.1 297.4 386.4 297.7L405.7 320.6C406.1 321 406 321.7 405.6 322.1C405.5 322.4 405.3 322.5 405 322.5Z" fill="#343B43"/>
<path d="M251.601 326.5C251.101 326.5 250.601 326.1 250.501 325.6C248.701 308.4 250.501 254.4 250.501 253.9C250.501 253.3 251.001 252.9 251.601 252.9C252.201 252.9 252.601 253.4 252.601 254C252.601 254.5 250.801 308.4 252.601 325.4C252.701 326 252.201 326.5 251.701 326.6C251.701 326.5 251.601 326.5 251.601 326.5Z" fill="#343B43"/>
<path d="M406.1 296.8C405.4 296.8 405 296.2 405 295.7C406.4 277.9 404.2 254.2 404.2 254C404.1 253.4 404.6 252.9 405.2 252.8C405.8 252.8 406.3 253.2 406.4 253.8C406.4 254 408.6 277.9 407.2 295.9C407.1 296.4 406.6 296.8 406.1 296.8Z" fill="#343B43"/>
<path d="M104.401 267.3C98.3008 267.2 92.4008 267.2 86.5008 267.3C84.2008 267.3 83.0008 266.4 82.4008 264.3C80.2008 257.6 78.3008 252.2 76.5008 247.3C76.2008 246.5 75.3008 245.6 74.5008 245.3C72.3008 244.3 70.1008 243.3 67.9008 242.3C65.1008 241.1 62.3008 239.8 59.5008 238.5C58.0008 237.8 57.2008 237.7 55.9008 238.4C53.3008 239.7 50.7008 240.9 48.1008 242.1C45.5008 243.3 43.0008 244.5 40.5008 245.8C38.2008 247 36.8008 246.7 35.3008 245C31.4008 240.9 27.2008 236.7 22.8008 232.5C21.1008 230.9 20.9008 229.4 21.9008 227.2C23.1008 224.8 24.2008 222.4 25.3008 220C26.5008 217.4 27.7008 214.8 29.0008 212.3C29.8008 210.8 29.7008 209.7 28.9008 208.1C27.6008 205.5 26.4008 202.7 25.2008 200C24.3008 197.9 23.4008 195.7 22.4008 193.6C21.9008 192.4 20.9008 191.4 20.1008 191.1C14.1008 188.8 8.20083 186.9 3.10083 185.2C1.00083 184.5 0.100835 183.3 0.200835 181.1C0.300835 174.6 0.300835 168.8 0.200835 163.4C0.100835 160.6 1.70083 159.7 3.40083 159.1C9.70083 157.1 14.9008 155.3 20.1008 153.3C21.0008 153 22.0008 151.9 22.5008 150.9C24.9008 146.1 27.2008 141.1 29.4008 136C29.8008 135.1 29.8008 133.7 29.5008 133C27.1008 127.4 24.4008 121.9 22.1008 117.3C21.2008 115.4 21.0008 113.8 22.9008 112C26.8008 108.3 30.9008 104.2 35.4008 99.5C36.3008 98.6 37.9008 97.4 40.4008 98.6C42.9008 99.8 45.4008 101.1 47.9008 102.3C50.6008 103.6 53.3008 104.9 56.0008 106.3C57.4008 107 58.2008 107 59.7008 106.3C64.3008 104.2 69.2008 102.2 74.2008 100.5C75.7008 100 76.4008 99.4 76.9008 98C77.8008 95.3 78.8008 92.7 79.7008 90C80.6008 87.5 81.5008 85 82.4008 82.4C82.9008 80.8 83.8008 79.2 86.6008 79.2C92.8008 79.3 98.6008 79.3 104.501 79.2C107.301 79.2 108.201 80.7 108.801 82.4C111.001 88.8 112.801 93.6 114.601 98.1C114.901 98.9 115.901 99.8 116.901 100.2C121.901 102.3 127.001 104.3 132.201 106.2C133.001 106.5 134.301 106.4 135.101 106.1C139.901 103.9 145.201 101.5 151.101 98.5C153.401 97.3 155.001 98.4 155.801 99.3C157.601 101.2 159.501 103.1 161.301 105C163.801 107.5 166.201 110 168.601 112.5C169.601 113.5 169.701 115.6 169.201 116.8C167.901 119.7 166.601 122.5 165.201 125.4C163.901 128.1 162.701 130.7 161.501 133.4C161.201 134 161.201 135.1 161.501 135.9C163.701 141.8 165.501 146.6 167.401 150.9C167.901 152 168.901 153 169.701 153.4C175.101 155.6 180.501 157.5 185.101 159.1C187.301 159.9 188.301 161.2 188.201 163.4C188.101 169 188.101 174.8 188.201 181.1C188.201 183.3 187.401 184.6 185.301 185.3C178.901 187.5 174.101 189.3 169.601 191.1C168.801 191.4 167.801 192.4 167.401 193.3C165.401 198.1 163.501 203.2 161.501 208.9C161.301 209.6 161.301 210.7 161.701 211.5C162.901 214 164.001 216.6 165.301 219.1C166.601 221.9 168.001 224.7 169.301 227.6C169.801 228.8 169.701 230.9 168.801 231.9C165.201 235.8 161.401 239.6 157.701 243.3L154.401 246.6C154.101 246.9 153.601 247 153.201 246.8L148.501 244.6C143.901 242.4 139.501 240.3 135.001 238.4C134.301 238.1 133.001 238.1 132.201 238.5C126.801 240.7 121.701 242.9 116.901 245.1C115.901 245.6 115.001 246.5 114.701 247.3C112.701 252.4 110.801 257.9 108.901 264C107.801 266.4 106.601 267.3 104.401 267.3ZM95.5008 265.1C98.4008 265.1 101.301 265.1 104.201 265.2L104.301 266.3V265.2C105.601 265.2 105.901 264.9 106.401 263.5C108.401 257.4 110.301 251.9 112.301 246.7C112.901 245.2 114.401 243.9 115.601 243.3C120.401 241 125.601 238.8 131.001 236.6C132.401 236 134.201 236 135.401 236.5C139.901 238.5 144.301 240.6 148.901 242.8L153.001 244.7L155.801 241.9C159.501 238.2 163.301 234.4 166.901 230.5C167.101 230.3 167.201 229.1 167.001 228.5C165.701 225.7 164.401 222.9 163.101 220.1C161.901 217.6 160.701 215 159.501 212.5C158.901 211.2 158.801 209.5 159.201 208.3C161.201 202.6 163.101 197.4 165.101 192.6C165.701 191.2 167.101 189.8 168.501 189.2C173.001 187.4 177.901 185.6 184.301 183.3C185.501 182.9 185.801 182.5 185.801 181.2C185.701 174.9 185.701 169.1 185.801 163.4C185.801 162 185.501 161.6 184.101 161.1C179.501 159.5 174.001 157.6 168.601 155.3C167.001 154.6 165.701 153 165.101 151.7C163.201 147.4 161.301 142.6 159.201 136.6C158.801 135.5 158.601 133.8 159.201 132.5C160.401 129.8 161.701 127.1 163.001 124.4C164.401 121.6 165.701 118.7 167.001 115.8C167.201 115.3 167.101 114.1 166.801 113.9C164.401 111.4 162.001 108.9 159.501 106.4C157.601 104.5 155.801 102.6 153.901 100.7C153.301 100.1 153.001 100 152.701 100C152.401 100 152.101 100.1 151.601 100.3C145.601 103.3 140.401 105.7 135.501 107.9C134.201 108.5 132.301 108.6 131.101 108.1C125.901 106.2 120.701 104.2 115.701 102.1C114.401 101.6 112.801 100.3 112.201 98.9C110.401 94.4 108.601 89.5 106.401 83.1C105.901 81.7 105.501 81.3 104.301 81.3C98.1008 81.5 92.3008 81.4 86.4008 81.3C85.0008 81.3 84.6008 81.7 84.1008 83C83.2008 85.5 82.3008 88.1 81.4008 90.6C80.4008 93.2 79.5008 95.9 78.6008 98.5C77.9008 100.5 76.8008 101.6 74.6008 102.3C69.6008 104 64.8008 106 60.3008 108C58.2008 109 56.8008 108.9 54.8008 107.9C52.1008 106.5 49.4008 105.3 46.7008 104C44.2008 102.8 41.6008 101.6 39.1008 100.3C38.6008 100.1 38.2008 99.9 37.9008 99.9C37.6008 99.9 37.2008 100 36.6008 100.7C32.0008 105.5 27.9008 109.6 24.0008 113.3C23.0008 114.2 23.0008 114.7 23.7008 116.1C26.0008 120.8 28.7008 126.3 31.1008 131.9C31.7008 133.2 31.6008 135.1 31.0008 136.6C28.8008 141.7 26.5008 146.8 24.1008 151.6C23.5008 152.8 22.2008 154.4 20.5008 155.1C15.2008 157.1 10.0008 158.9 3.70083 160.9C2.30083 161.4 1.90083 161.8 2.00083 163.1C2.10083 168.6 2.10083 174.4 2.00083 180.9C2.00083 182.2 2.30083 182.6 3.50083 183C8.60083 184.6 14.6008 186.6 20.6008 188.9C22.2008 189.5 23.5008 191.2 24.1008 192.5C25.1008 194.6 26.0008 196.8 27.0008 198.9C28.1008 201.5 29.3008 204.3 30.6008 206.9C31.7008 209.1 31.8008 210.9 30.7008 213C29.4008 215.5 28.2008 218.1 27.0008 220.7C25.9008 223.1 24.7008 225.5 23.5008 227.9C22.9008 229.2 22.9008 229.7 23.9008 230.7C28.4008 235 32.6008 239.2 36.5008 243.3C37.2008 244 37.6008 244.1 37.9008 244.1C38.2008 244.1 38.7008 244 39.3008 243.7C41.8008 242.4 44.4008 241.2 47.0008 240C49.6008 238.8 52.2008 237.6 54.7008 236.3C56.6008 235.3 58.1008 235.4 60.2008 236.4C62.9008 237.7 65.7008 239 68.5008 240.2C70.7008 241.2 73.0008 242.2 75.2008 243.2C76.5008 243.8 77.8008 245.2 78.3008 246.4C80.2008 251.3 82.0008 256.8 84.2008 263.5C84.6008 264.7 85.0008 265 86.2008 265C89.5008 265.1 92.5008 265.1 95.5008 265.1ZM95.4008 208C85.8008 208 76.9008 204.3 70.2008 197.6C63.5008 190.9 59.8008 181.9 59.8008 172.3C59.8008 152.3 75.6008 136.7 95.7008 136.7C115.301 136.7 131.101 152.8 131.101 172.4C131.101 192 115.101 208 95.4008 208ZM95.7008 137.7V138.8C76.8008 138.8 61.9008 153.5 61.9008 172.3C61.9008 181.3 65.4008 189.8 71.7008 196.1C78.0008 202.4 86.4008 205.9 95.4008 205.9C113.901 205.9 129.001 190.9 129.001 172.4C129.001 153.9 114.101 138.9 95.8008 138.8L95.7008 137.7Z" fill="#343B43"/>
<path d="M568.301 293.3H461.801C455.201 293.3 449.701 287.9 449.701 281.2V264.8C449.701 258.2 455.101 252.7 461.801 252.7H476.801C477.401 252.7 477.901 253.2 477.901 253.8C477.901 254.4 477.401 254.9 476.801 254.9H461.801C456.301 254.9 451.901 259.4 451.901 264.8V281.2C451.901 286.7 456.401 291.1 461.801 291.1H568.401C569.001 291.1 569.501 291.6 569.501 292.2C569.401 292.8 568.901 293.3 568.301 293.3Z" fill="#343B43"/>
<path d="M674.901 293.3H622.401C621.801 293.3 621.301 292.8 621.301 292.2C621.301 291.6 621.801 291.1 622.401 291.1H674.901C680.401 291.1 684.801 286.6 684.801 281.2V264.8C684.801 259.3 680.301 254.9 674.901 254.9H476.801C476.201 254.9 475.701 254.4 475.701 253.8C475.701 253.2 476.201 252.7 476.801 252.7H674.901C681.501 252.7 687.001 258.1 687.001 264.8V281.2C686.901 287.9 681.501 293.3 674.901 293.3Z" fill="#343B43"/>
<path d="M631.4 647.3H498.6C498 647.3 497.5 646.8 497.5 646.2C497.5 645.6 498 645.1 498.6 645.1H631.4C632 645.1 632.5 645.6 632.5 646.2C632.4 646.8 631.9 647.3 631.4 647.3Z" fill="#343B43"/>
<path d="M298.701 190C298.301 190 298.001 189.8 297.801 189.5C297.501 189 297.701 188.3 298.201 188.1L305.901 183.8C306.401 183.5 307.101 183.7 307.301 184.2C307.601 184.7 307.401 185.4 306.901 185.6L299.201 189.9C299.101 190 298.901 190 298.701 190Z" fill="#343B43"/>
<path d="M269.801 158.4C269.401 158.4 269.001 158.2 268.801 157.8C268.601 157.3 268.801 156.6 269.301 156.4L274.701 154C275.201 153.8 275.901 154 276.101 154.5C276.301 155 276.101 155.7 275.601 155.9L270.201 158.3C270.101 158.4 269.901 158.4 269.801 158.4Z" fill="#343B43"/>
<path d="M291.901 146.4C291.501 146.4 291.101 146.1 290.901 145.7C290.701 145.1 291.001 144.5 291.501 144.3L296.801 142.3C297.301 142.1 298.001 142.4 298.201 142.9C298.401 143.5 298.101 144.1 297.601 144.3L292.301 146.3C292.101 146.4 292.001 146.4 291.901 146.4Z" fill="#343B43"/>
<path d="M339.301 251.3H329.501C329.101 251.3 328.701 251.1 328.501 250.7L322.501 238.5C322.201 238 322.501 237.3 323.001 237.1C323.501 236.8 324.201 237.1 324.401 237.6L330.101 249.2H338.401L341.501 236.8C341.601 236.2 342.201 235.9 342.801 236C343.401 236.1 343.701 236.7 343.601 237.3L340.301 250.6C340.201 250.9 339.801 251.3 339.301 251.3Z" fill="#343B43"/>
<path d="M325.901 301.7C325.201 301.7 324.801 301.1 324.801 300.6L328.501 250.2C328.501 249.6 329.101 249.1 329.601 249.2C330.201 249.2 330.601 249.7 330.601 250.3L326.901 300.7C326.901 301.3 326.401 301.7 325.901 301.7Z" fill="#343B43"/>
<path d="M348.3 292.6C347.8 292.6 347.4 292.3 347.3 291.8L338.3 250.5C338.2 249.9 338.5 249.4 339.1 249.2C339.7 249.1 340.2 249.4 340.4 250L349.4 291.3C349.5 291.9 349.2 292.4 348.6 292.6C348.5 292.6 348.4 292.6 348.3 292.6Z" fill="#343B43"/>
<path d="M657 285C650.4 285 645 279.6 645 273C645 266.4 650.4 261 657 261C663.6 261 669 266.4 669 273C669 279.7 663.6 285 657 285ZM657 263.2C651.6 263.2 647.1 267.6 647.1 273.1C647.1 278.5 651.5 283 657 283C662.4 283 666.9 278.6 666.9 273.1C666.8 267.6 662.4 263.2 657 263.2Z" fill="#343B43"/>
<path d="M634.7 267.2H470.1C469.5 267.2 469 266.7 469 266.1C469 265.5 469.5 265 470.1 265H634.8C635.4 265 635.9 265.5 635.9 266.1C635.8 266.7 635.3 267.2 634.7 267.2Z" fill="#343B43"/>
<path d="M634.7 281H470.1C469.5 281 469 280.5 469 279.9C469 279.3 469.5 278.8 470.1 278.8H634.8C635.4 278.8 635.9 279.3 635.9 279.9C635.8 280.6 635.3 281 634.7 281Z" fill="#343B43"/>
<path d="M236.6 570.7H150.5C149.9 570.7 149.4 570.2 149.4 569.6C149.4 569 149.9 568.5 150.5 568.5H236.6C237.2 568.5 237.7 569 237.7 569.6C237.7 570.3 237.2 570.7 236.6 570.7Z" fill="#343B43"/>
<path d="M236.6 589H150.5C149.9 589 149.4 588.5 149.4 587.9C149.4 587.3 149.9 586.8 150.5 586.8H236.6C237.2 586.8 237.7 587.3 237.7 587.9C237.7 588.5 237.2 589 236.6 589Z" fill="#343B43"/>
<path d="M484.001 570.7H397.901C397.301 570.7 396.801 570.2 396.801 569.6C396.801 569 397.301 568.5 397.901 568.5H484.001C484.601 568.5 485.101 569 485.101 569.6C485.001 570.3 484.501 570.7 484.001 570.7Z" fill="#343B43"/>
<path d="M484.001 589H397.901C397.301 589 396.801 588.5 396.801 587.9C396.801 587.3 397.301 586.8 397.901 586.8H484.001C484.601 586.8 485.101 587.3 485.101 587.9C485.001 588.5 484.501 589 484.001 589Z" fill="#343B43"/>
<path d="M359.401 570.7H273.301C272.701 570.7 272.201 570.2 272.201 569.6C272.201 569 272.701 568.5 273.301 568.5H359.401C360.001 568.5 360.501 569 360.501 569.6C360.501 570.3 360.001 570.7 359.401 570.7Z" fill="#343B43"/>
<path d="M359.401 589H273.301C272.701 589 272.201 588.5 272.201 587.9C272.201 587.3 272.701 586.8 273.301 586.8H359.401C360.001 586.8 360.501 587.3 360.501 587.9C360.501 588.5 360.001 589 359.401 589Z" fill="#343B43"/>
<path d="M300.5 508.9C300.3 508.9 300 508.8 299.8 508.6C299.4 508.2 289.4 499.6 286.1 494C285.8 493.5 286 492.8 286.5 492.5C287 492.2 287.7 492.4 288 492.9C291.1 498.2 301.1 506.8 301.2 506.9C301.6 507.3 301.7 508 301.3 508.4C301.1 508.8 300.8 508.9 300.5 508.9Z" fill="#343B43"/>
<path d="M283.702 509.2C283.502 509.2 283.201 509.1 283.001 509C282.701 508.7 274.502 502.1 271.202 496.5C270.902 496 271.101 495.3 271.601 495C272.101 494.7 272.801 494.9 273.101 495.4C276.201 500.7 284.301 507.2 284.401 507.3C284.901 507.7 284.901 508.3 284.601 508.8C284.301 509.1 284.002 509.2 283.702 509.2Z" fill="#343B43"/>
</g>
<defs>
<linearGradient id="paint0_linear_509_3083" x1="118.201" y1="352.011" x2="126.901" y2="283.985" gradientUnits="userSpaceOnUse">
<stop stop-color="#234DAE"/>
<stop offset="1" stop-color="#347BCE"/>
</linearGradient>
<linearGradient id="paint1_linear_509_3083" x1="483.801" y1="186.285" x2="674.158" y2="61.8694" gradientUnits="userSpaceOnUse">
<stop stop-color="#234DAE"/>
<stop offset="1" stop-color="#347BCE"/>
</linearGradient>
<linearGradient id="paint2_linear_509_3083" x1="251.602" y1="153.137" x2="327.35" y2="88.5042" gradientUnits="userSpaceOnUse">
<stop stop-color="#234DAE"/>
<stop offset="1" stop-color="#347BCE"/>
</linearGradient>
<linearGradient id="paint3_linear_509_3083" x1="364.701" y1="309.422" x2="417.059" y2="279.713" gradientUnits="userSpaceOnUse">
<stop stop-color="#234DAE"/>
<stop offset="1" stop-color="#347BCE"/>
</linearGradient>
<linearGradient id="paint4_linear_509_3083" x1="555.781" y1="404.202" x2="594.298" y2="393.269" gradientUnits="userSpaceOnUse">
<stop stop-color="#234DAE"/>
<stop offset="1" stop-color="#347BCE"/>
</linearGradient>
<linearGradient id="paint5_linear_509_3083" x1="505.578" y1="450.12" x2="579.371" y2="403.722" gradientUnits="userSpaceOnUse">
<stop stop-color="#234DAE"/>
<stop offset="1" stop-color="#347BCE"/>
</linearGradient>
<linearGradient id="paint6_linear_509_3083" x1="526.869" y1="542.375" x2="581.005" y2="526.344" gradientUnits="userSpaceOnUse">
<stop stop-color="#234DAE"/>
<stop offset="1" stop-color="#347BCE"/>
</linearGradient>
<linearGradient id="paint7_linear_509_3083" x1="475.193" y1="547.679" x2="549.087" y2="501.344" gradientUnits="userSpaceOnUse">
<stop stop-color="#234DAE"/>
<stop offset="1" stop-color="#347BCE"/>
</linearGradient>
<linearGradient id="paint8_linear_509_3083" x1="479.801" y1="604.172" x2="551.907" y2="566.413" gradientUnits="userSpaceOnUse">
<stop stop-color="#234DAE"/>
<stop offset="1" stop-color="#347BCE"/>
</linearGradient>
<linearGradient id="paint9_linear_509_3083" x1="36.5" y1="571.357" x2="130.875" y2="509.737" gradientUnits="userSpaceOnUse">
<stop stop-color="#234DAE"/>
<stop offset="1" stop-color="#347BCE"/>
</linearGradient>
<linearGradient id="paint10_linear_509_3083" x1="425.5" y1="454.756" x2="497.53" y2="407.678" gradientUnits="userSpaceOnUse">
<stop stop-color="#234DAE"/>
<stop offset="1" stop-color="#347BCE"/>
</linearGradient>
<linearGradient id="paint11_linear_509_3083" x1="291.9" y1="431.856" x2="363.93" y2="384.778" gradientUnits="userSpaceOnUse">
<stop stop-color="#234DAE"/>
<stop offset="1" stop-color="#347BCE"/>
</linearGradient>
<linearGradient id="paint12_linear_509_3083" x1="276.397" y1="179.723" x2="287.372" y2="168.415" gradientUnits="userSpaceOnUse">
<stop stop-color="#234DAE"/>
<stop offset="1" stop-color="#347BCE"/>
</linearGradient>
<linearGradient id="paint13_linear_509_3083" x1="298.085" y1="167.735" x2="309.06" y2="156.427" gradientUnits="userSpaceOnUse">
<stop stop-color="#234DAE"/>
<stop offset="1" stop-color="#347BCE"/>
</linearGradient>
<linearGradient id="paint14_linear_509_3083" x1="649.4" y1="281.929" x2="670.254" y2="268.299" gradientUnits="userSpaceOnUse">
<stop stop-color="#234DAE"/>
<stop offset="1" stop-color="#347BCE"/>
</linearGradient>
<linearGradient id="paint15_linear_509_3083" x1="325.602" y1="303.083" x2="359.75" y2="297.855" gradientUnits="userSpaceOnUse">
<stop stop-color="#234DAE"/>
<stop offset="1" stop-color="#347BCE"/>
</linearGradient>
<clipPath id="clip0_509_3083">
<rect width="686.9" height="647.4" fill="white"/>
</clipPath>
</defs>
</svg>
