<svg width="27" height="35" viewBox="0 0 27 35" fill="none" xmlns="http://www.w3.org/2000/svg">
<path d="M0.105185 26.6775C0.95578 31.317 5.0155 33.6369 9.57772 34.7968C8.49514 34.0621 8.06984 32.8636 8.49514 31.0078C9.03642 28.7654 9.22982 27.5283 7.95387 26.2523C11.0855 27.4508 12.1295 28.9587 11.7816 30.0801C12.6708 27.9535 12.8256 24.126 11.3177 22.3087C13.4054 23.5846 16.6146 26.3296 16.1893 29.6161C17.1944 28.9588 17.0784 26.7549 19.4758 25.7498C17.9294 27.6055 18.9731 27.8763 19.7077 31.4333C20.0556 33.1345 19.4369 34.1785 18.6251 34.7198C21.0996 34.0626 25.0045 32.3227 26.0099 28.8043C28.4457 20.2597 19.6691 18.4812 23.8833 12.6043C20.0944 13.0296 18.6251 15.5815 17.9678 18.6358C16.3825 15.0013 14.6042 7.34605 19.4371 0C6.44618 7.30669 10.2739 17.4752 7.41276 20.2589C8.22483 16.7794 7.83807 13.7636 2.54124 12.2169C4.74492 17.8619 -0.822682 21.6895 0.105378 26.6771L0.105185 26.6775Z" fill="url(#paint0_linear_714_3780)"/>
<defs>
<linearGradient id="paint0_linear_714_3780" x1="-1.19092e-06" y1="27.66" x2="28.9579" y2="13.2761" gradientUnits="userSpaceOnUse">
<stop stop-color="#234DAE"/>
<stop offset="1" stop-color="#347BCE"/>
</linearGradient>
</defs>
</svg>
