<svg width="15" height="15" viewBox="0 0 15 15" fill="none" xmlns="http://www.w3.org/2000/svg">
<g clip-path="url(#clip0_720_2197)">
<path d="M15 7.50037V7.49662C15 5.27724 14.0338 3.28412 12.4994 1.91349L12.4919 1.90724C12.4729 1.88681 12.4518 1.86857 12.4288 1.85287L12.4275 1.85224C11.0647 0.655697 9.31226 -0.00254325 7.49875 0.000990719C5.60375 0.000990719 3.87375 0.704741 2.555 1.86599L2.56313 1.85912C2.54723 1.87117 2.53258 1.88478 2.51938 1.89974V1.90037C1.72658 2.60236 1.092 3.4648 0.657663 4.43055C0.223329 5.3963 -0.000841805 6.44332 2.37542e-06 7.50224C2.37542e-06 9.72099 0.965002 11.7141 2.49813 13.0854L2.50563 13.0916C2.52548 13.1141 2.54769 13.1345 2.57188 13.1522L2.57313 13.1529C3.93553 14.3476 5.68668 15.0049 7.49875 15.0016C9.31929 15.0044 11.078 14.3411 12.4431 13.1366L12.435 13.1435C13.2415 12.4423 13.888 11.576 14.3308 10.6033C14.7735 9.63057 15.0022 8.5741 15.0013 7.50537V7.50099L15 7.50037ZM12.2113 12.3785C11.8397 12.078 11.4402 11.8138 11.0181 11.5897L10.9775 11.5697C11.3606 10.4654 11.5913 9.19224 11.6131 7.86787V7.85787H14.2763C14.1864 9.57124 13.449 11.1865 12.2131 12.3766L12.2113 12.3785ZM7.8575 11.4379C8.65938 11.481 9.40875 11.6572 10.1 11.9441L10.055 11.9279C9.50125 13.1904 8.72188 14.0579 7.8575 14.2485V11.4379ZM7.8575 10.7229V7.85787H10.9C10.8759 9.04428 10.6701 10.22 10.29 11.3441L10.3144 11.2622C9.53841 10.9433 8.71311 10.761 7.875 10.7235L7.85813 10.7229H7.8575ZM7.8575 7.14287V4.27787C8.71823 4.23858 9.56561 4.05016 10.3619 3.72099L10.3125 3.73912C10.6594 4.75099 10.8725 5.91724 10.9 7.12974V7.14287H7.8575ZM7.8575 3.56287V0.753491C8.72188 0.944116 9.50125 1.80787 10.055 3.07412C9.40875 3.34287 8.65938 3.51849 7.87563 3.56224L7.8575 3.56287ZM9.64125 1.06287C10.3777 1.30851 11.0665 1.6789 11.6775 2.15787L11.6631 2.14662C11.3863 2.36412 11.0756 2.56912 10.7481 2.74724L10.7131 2.76474C10.4485 2.14019 10.0846 1.56254 9.63563 1.05412L9.64125 1.06099V1.06287ZM7.14125 0.755366V3.56287C6.37031 3.52354 5.61182 3.35231 4.89875 3.05662L4.94375 3.07287C5.5 1.81037 6.27813 0.943491 7.1425 0.752866L7.14125 0.755366ZM4.28625 2.76287C3.94746 2.58059 3.62465 2.37005 3.32125 2.13349L3.33625 2.14474C3.92946 1.67984 4.5967 1.31812 5.31 1.07474L5.3575 1.06037C4.92026 1.55501 4.56399 2.11569 4.30188 2.72162L4.28625 2.76224V2.76287ZM7.1425 4.27724V7.14224H4.1C4.1275 5.91662 4.34063 4.75037 4.71188 3.65662L4.6875 3.73849C5.46316 4.05691 6.288 4.23896 7.12563 4.27662L7.1425 4.27724ZM7.1425 7.85724V10.7222C6.28177 10.7615 5.4344 10.9499 4.63813 11.2791L4.6875 11.261C4.34063 10.2497 4.1275 9.08287 4.1 7.87037V7.85724H7.1425ZM7.1425 11.4372V14.2466C6.27813 14.056 5.49875 13.1922 4.945 11.926C5.59125 11.6572 6.34063 11.4822 7.12438 11.4385L7.1425 11.4379V11.4372ZM5.36125 13.9372C4.62497 13.6923 3.93621 13.3228 3.325 12.8447L3.34 12.856C3.61688 12.6385 3.9275 12.4335 4.255 12.2554L4.29 12.2379C4.55243 12.8627 4.91629 13.4398 5.36688 13.946L5.36125 13.9397V13.9372ZM10.7138 12.2372C11.0763 12.4341 11.3869 12.6385 11.6788 12.8666L11.6638 12.8554C11.0705 13.3203 10.4033 13.682 9.69 13.9254L9.6425 13.9397C10.0797 13.4453 10.436 12.8849 10.6981 12.2791L10.7138 12.2385V12.2372ZM14.2763 7.14287H11.6131C11.594 5.84971 11.3708 4.56768 10.9519 3.34412L10.9775 3.43037C11.419 3.1979 11.837 2.92329 12.2256 2.61037L12.2106 2.62162C13.4439 3.80726 14.1817 5.41651 14.275 7.12474L14.2756 7.14224L14.2763 7.14287ZM2.78875 2.62224C3.14875 2.91474 3.55313 3.18287 3.98188 3.41099L4.0225 3.43099C3.63938 4.53537 3.40875 5.80849 3.38688 7.13287V7.14287H0.723127C0.812935 5.42949 1.55041 3.81424 2.78625 2.62412L2.78813 2.62224H2.78875ZM0.723752 7.85787H3.38688C3.40604 9.15102 3.6292 10.433 4.04813 11.6566L4.0225 11.5704C3.55313 11.8197 3.14938 12.0879 2.77438 12.3904L2.78938 12.3791C1.55609 11.1935 0.818355 9.58422 0.725002 7.87599L0.724377 7.85849L0.723752 7.85787Z" fill="#343B43"/>
</g>
<defs>
<clipPath id="clip0_720_2197">
<rect width="15" height="15" fill="white"/>
</clipPath>
</defs>
</svg>
