<svg width="80" height="90" viewBox="0 0 80 90" fill="none" xmlns="http://www.w3.org/2000/svg">
<path d="M76.5419 62.5678C75.8612 62.309 75.0985 62.6514 74.8397 63.3326C73.493 66.8765 71.6324 70.1589 69.3252 73.0973C68.5801 72.1407 67.798 71.2183 66.9804 70.3326C71.3468 64.5167 73.7416 57.379 73.7416 50.1002C73.7416 40.9925 70.1531 32.4497 63.637 26.0457C63.1174 25.5351 62.2819 25.5418 61.7711 26.0618C61.2601 26.5818 61.2675 27.4171 61.7873 27.9279C67.7944 33.8317 71.1025 41.7061 71.1025 50.1002C71.1025 56.6754 68.9815 63.1257 65.1073 68.4267C61.1259 64.616 56.4417 61.5931 51.2655 59.5252L52.2615 58.5598C53.8003 57.0679 55.0382 55.3444 55.9408 53.4368C56.2524 52.7781 55.9713 51.9913 55.3125 51.6797C54.6541 51.3681 53.8672 51.6492 53.5554 52.308C52.7888 53.9282 51.7352 55.3942 50.4246 56.6647L49.1114 57.9375C48.5325 58.4987 48.2825 59.3056 48.4426 60.0959C48.6027 60.8861 49.1471 61.532 49.8987 61.8234C56.9398 64.5537 63.0324 69.1541 67.5811 75.1596C65.7384 77.184 63.6651 79.0136 61.3861 80.6144C55.1023 85.0277 47.707 87.3606 39.9996 87.3606C29.0856 87.3606 19.2524 82.6439 12.4316 75.1418C16.9789 69.1449 23.0662 64.5509 30.1003 61.8234C30.8521 61.5318 31.3966 60.8861 31.5567 60.0958C31.717 59.3054 31.4668 58.4985 30.888 57.9373L29.5749 56.6645C26.0757 53.2725 24.4739 48.5614 25.1805 43.7393C25.8871 38.9174 28.7729 34.8638 33.0982 32.6182C37.4197 30.3748 42.5795 30.3746 46.9008 32.6182C52.3016 35.4224 55.4499 41.1642 54.9216 47.2462C54.8586 47.9723 55.3959 48.6121 56.1219 48.6751C56.8483 48.7407 57.4879 48.2007 57.5507 47.4748C58.172 40.3249 54.4689 33.5741 48.1169 30.2761C43.0339 27.6369 36.9649 27.6371 31.882 30.2761C26.7946 32.9175 23.4001 37.6852 22.5692 43.357C21.7382 49.0287 23.622 54.5697 27.7379 58.5598L28.7339 59.5252C23.5569 61.5934 18.872 64.6167 14.8902 68.4281C11.0165 63.1269 8.89688 56.6754 8.89688 50.1002C8.89688 42.9252 11.4097 35.9189 15.9727 30.3721C16.4356 29.8093 16.3546 28.9778 15.792 28.5147C15.2289 28.0516 14.3976 28.1325 13.9345 28.6954C8.98398 34.7134 6.25772 42.315 6.25772 50.1C6.25772 57.3788 8.65162 64.5174 13.018 70.3331C12.2057 71.2131 11.4285 72.1295 10.6878 73.0794C5.71054 66.7443 2.73884 58.7626 2.73884 50.0999C2.73884 29.5542 19.4539 12.8391 39.9996 12.8391C42.2946 12.8391 44.6009 13.0517 46.8542 13.4706C47.5708 13.6039 48.2595 13.131 48.3928 12.4146C48.526 11.6981 48.0531 11.0093 47.3366 10.8759C44.9246 10.4274 42.4561 10.2 39.9996 10.2C29.3419 10.2 19.3223 14.3503 11.7862 21.8863C4.25002 29.4224 0.0998535 39.4422 0.0998535 50.0999C0.0998535 60.7575 4.2502 70.7772 11.7862 78.3132C19.3223 85.8494 29.3421 89.9996 39.9996 89.9996C48.2528 89.9996 56.1725 87.501 62.9029 82.7737C69.4815 78.1533 74.4621 71.7547 77.3066 64.2695C77.5656 63.5888 77.2232 62.8266 76.5419 62.5678Z" fill="url(#paint0_linear_140_1052)"/>
<path d="M70.5695 24.4613C70.1009 23.9031 69.2685 23.8308 68.7104 24.2991C68.1522 24.7678 68.0797 25.6001 68.5482 26.1581C74.1663 32.8498 77.2603 41.3525 77.2603 50.0999C77.2603 52.797 76.9679 55.4967 76.3915 58.1239C76.2351 58.8357 76.6857 59.5393 77.3975 59.6957C77.4927 59.7167 77.5879 59.7267 77.6815 59.7267C78.2878 59.7267 78.834 59.3062 78.9691 58.6897C79.5865 55.8771 79.8995 52.987 79.8995 50.0999C79.8993 40.7328 76.5859 31.6275 70.5695 24.4613Z" fill="url(#paint1_linear_140_1052)"/>
<path d="M18.031 24.5104C17.4783 24.9855 17.4153 25.8187 17.8905 26.3714C18.1515 26.6751 18.5206 26.8308 18.8918 26.8308C19.1964 26.8308 19.5024 26.7259 19.7515 26.512C25.3882 21.6661 32.5793 18.9976 39.9999 18.9976C42.9264 18.9976 45.8261 19.4066 48.6189 20.2135C49.3189 20.4155 50.0507 20.0121 50.2527 19.312C50.4548 18.6119 50.0512 17.8803 49.3513 17.678C46.3203 16.8025 43.1741 16.3584 39.9999 16.3584C31.9481 16.3582 24.1461 19.2534 18.031 24.5104Z" fill="url(#paint2_linear_140_1052)"/>
<path d="M62.5539 23.0299C68.9032 23.0299 74.0687 17.8643 74.0687 11.515C74.0687 5.16572 68.9032 0 62.5539 0C56.2046 0 51.0391 5.16554 51.0391 11.515C51.0391 17.8645 56.2046 23.0299 62.5539 23.0299ZM62.5539 2.63916C67.4479 2.63916 71.4296 6.62078 71.4296 11.515C71.4296 16.4093 67.4479 20.3907 62.5539 20.3907C57.6598 20.3907 53.6782 16.4091 53.6782 11.515C53.6782 6.62095 57.6598 2.63916 62.5539 2.63916Z" fill="url(#paint3_linear_140_1052)"/>
<defs>
<linearGradient id="paint0_linear_140_1052" x1="0.09985" y1="73.6327" x2="75.4305" y2="25.9438" gradientUnits="userSpaceOnUse">
<stop stop-color="#234DAE"/>
<stop offset="1" stop-color="#347BCE"/>
</linearGradient>
<linearGradient id="paint1_linear_140_1052" x1="68.2393" y1="52.3972" x2="83.4653" y2="49.1501" gradientUnits="userSpaceOnUse">
<stop stop-color="#234DAE"/>
<stop offset="1" stop-color="#347BCE"/>
</linearGradient>
<linearGradient id="paint2_linear_140_1052" x1="17.5715" y1="24.6829" x2="26.2093" y2="7.03667" gradientUnits="userSpaceOnUse">
<stop stop-color="#234DAE"/>
<stop offset="1" stop-color="#347BCE"/>
</linearGradient>
<linearGradient id="paint3_linear_140_1052" x1="51.0391" y1="18.3064" x2="73.0687" y2="3.90824" gradientUnits="userSpaceOnUse">
<stop stop-color="#234DAE"/>
<stop offset="1" stop-color="#347BCE"/>
</linearGradient>
</defs>
</svg>
