<svg width="90" height="90" viewBox="0 0 90 90" fill="none" xmlns="http://www.w3.org/2000/svg">
<path d="M88.6816 8.17734C89.4099 8.17734 90 7.58707 90 6.85898V1.31924C90.0007 0.601172 89.3995 0 88.6816 0H83.0143C82.286 0 81.6959 0.590273 81.6959 1.31836C81.6959 2.04645 82.286 2.63672 83.0143 2.63672H85.4988L67.7269 20.4087L59.9586 12.6403C59.4503 12.1321 58.6025 12.1321 58.0941 12.6403L50.2668 20.4676C46.498 13.1296 41.457 5.9618 35.3593 0.348574C34.7623 -0.115488 34.165 -0.116016 33.5674 0.346992C22.5594 10.5947 14.072 25.2304 12.5694 40.2778L6.89221 47.5778C6.27926 46.4156 5.05898 45.621 3.65625 45.621C1.64021 45.621 0 47.2612 0 49.2773V63.7042C0 65.7204 1.64039 67.3606 3.6566 67.3604C5.67264 67.3604 7.31285 65.7202 7.31285 63.7042V62.644L16.4248 58.6939C18.3405 58.8131 20.3015 58.6967 22.2209 58.6967C20.8746 60.7043 19.7256 63.0584 18.8438 65.6355C18.5555 66.4778 19.2008 67.3808 20.0911 67.3808H24.7259C24.3691 68.4424 24.1835 69.5612 24.1835 70.6946C24.1835 75.9294 32.4236 88.0627 33.3633 89.4289C33.8788 90.1786 35.0202 90.1784 35.5358 89.4289C36.4755 88.0627 44.7158 75.9294 44.7158 70.6946C44.7158 69.5612 44.5301 68.4424 44.1733 67.3808H48.8081C49.6978 67.3808 50.3432 66.4792 50.056 65.6371C49.1766 63.0568 48.0326 60.7024 46.6933 58.6969C48.6132 58.6969 50.5582 58.787 52.4758 58.6948L61.5864 62.6442V63.7044C61.5864 65.7204 63.2264 67.3606 65.2424 67.3606C67.2587 67.361 68.899 65.7206 68.899 63.7044V51.6178H75.4102C77.06 51.6178 77.1351 48.9811 75.4102 48.9811H68.8857C68.5587 45.3329 63.7112 44.3726 62.0067 47.578L56.3208 40.2669C56.0048 36.8047 55.2832 33.3833 54.2422 30.0681L59.0263 25.2842L66.7946 33.0527C67.3029 33.5609 68.1507 33.5609 68.6591 33.0527L87.3633 14.3481V48.9809H83.0143C81.3644 48.9809 81.2893 51.6176 83.0143 51.6176H88.6816C89.4099 51.6176 90 51.0274 90 50.2993V11.1653C90 10.0136 88.5637 9.41924 87.7493 10.2331L67.7269 30.2556L59.9586 22.4872C59.4438 21.9723 58.609 21.9721 58.0943 22.4872L53.2895 27.2916C52.7546 25.8544 52.1541 24.4144 51.4891 22.9741L59.0265 15.4368L66.7948 23.2052C67.3031 23.7134 68.1509 23.7134 68.6593 23.2052L87.3633 4.50123V6.85898C87.3633 7.58707 87.9534 8.17734 88.6816 8.17734ZM4.67613 63.7042C4.63324 65.0517 2.67926 65.051 2.63672 63.7042V49.2773C2.67961 47.9297 4.63359 47.9305 4.67613 49.2773V63.7042ZM64.2227 49.2773C64.2656 47.9299 66.2194 47.9303 66.262 49.2773V63.7042C66.262 64.2663 65.8046 64.7237 65.2426 64.7237H65.2421C64.6801 64.7237 64.2227 64.2663 64.2227 63.7042V49.2773ZM55.9364 51.0701C56.2839 49.0062 56.4704 46.9107 56.4986 44.7901L61.5862 51.332V59.77L54.2617 56.5949C55.0528 54.8304 55.6153 52.9784 55.9364 51.0701ZM34.4609 3.16389C36.3039 5.02137 40.6934 9.72369 44.8051 16.2295H24.0889C28.2127 9.72088 32.6136 5.01996 34.4609 3.16389ZM7.31285 59.77V51.332L12.4015 44.7885C12.4344 46.9111 12.6267 49.0085 12.9813 51.0741C13.3082 52.981 13.8707 54.8286 14.6559 56.5868L7.31285 59.77ZM34.4494 86.3111C31.619 81.9835 26.8202 73.9642 26.8202 70.6945C26.8202 69.5419 27.0758 68.4098 27.5632 67.3806H41.336C41.8235 68.4098 42.079 69.5417 42.079 70.6945C42.0789 73.9642 37.2797 81.9835 34.4494 86.3111ZM46.9076 64.7439H21.9945C22.9488 62.4234 24.1385 60.3661 25.4925 58.6967H43.4261C44.7725 60.3629 45.9564 62.4201 46.9076 64.7439ZM51.574 30.3801C54.2623 38.4961 55.3591 48.3038 51.6034 56.06H17.3169C13.8414 48.8559 14.6343 39.6784 16.7512 32.2047C17.9998 27.7965 19.9264 23.3191 22.4877 18.8664H46.3948C48.4945 22.5225 50.2479 26.3763 51.574 30.3801Z" fill="url(#paint0_linear_136_779)"/>
<path d="M34.4494 23.8774C32.9957 23.8774 31.5585 24.1123 30.1774 24.5753C29.4871 24.8068 29.1151 25.554 29.3466 26.2445C29.578 26.9346 30.3245 27.3067 31.0157 27.0752C37.8973 24.6544 45.4424 30.1417 45.3232 37.4737C45.3234 43.5168 40.4453 48.4332 34.4492 48.4332C25.3546 48.4715 20.2508 37.6061 26.0071 30.5683C27.056 29.1714 25.0964 27.5931 23.9547 28.9132C16.8264 37.6731 23.1446 51.1089 34.4494 51.0699C52.372 50.3248 52.3682 24.6206 34.4494 23.8774Z" fill="url(#paint1_linear_136_779)"/>
<path d="M34.4494 46.495C39.3941 46.495 43.4171 42.4482 43.4171 37.4738C42.9238 25.5057 25.9734 25.509 25.4819 37.4738C25.4818 42.448 29.5047 46.495 34.4494 46.495ZM34.4494 31.0892C37.9402 31.0892 40.7803 33.9532 40.7803 37.4738C40.4319 45.9441 28.4656 45.9417 28.1187 37.4738C28.1185 33.9532 30.9584 31.0892 34.4494 31.0892Z" fill="url(#paint2_linear_136_779)"/>
<path d="M11.1523 68.3719C10.4241 68.3719 9.83398 68.9621 9.83398 69.6902V78.0724C9.83398 78.8004 10.4241 79.3907 11.1523 79.3907C11.8806 79.3907 12.4707 78.8004 12.4707 78.0724V69.6902C12.4707 68.9621 11.8806 68.3719 11.1523 68.3719Z" fill="url(#paint3_linear_136_779)"/>
<path d="M16.5815 75.6257C15.8533 75.6257 15.2632 76.2159 15.2632 76.944V88.6816C15.2632 89.4097 15.8533 90 16.5815 90C17.3098 90 17.8999 89.4097 17.8999 88.6816V76.944C17.8999 76.2158 17.3098 75.6257 16.5815 75.6257Z" fill="url(#paint4_linear_136_779)"/>
<path d="M57.7466 68.3719C57.0183 68.3719 56.4282 68.9621 56.4282 69.6902V78.0724C56.4282 78.8004 57.0183 79.3907 57.7466 79.3907C58.4748 79.3907 59.0649 78.8004 59.0649 78.0724V69.6902C59.0649 68.9621 58.4747 68.3719 57.7466 68.3719Z" fill="url(#paint5_linear_136_779)"/>
<path d="M52.3169 75.6257C51.5886 75.6257 50.9985 76.2159 50.9985 76.944V88.6816C50.9985 89.4097 51.5886 90 52.3169 90C53.0452 90 53.6353 89.4097 53.6353 88.6816V76.944C53.6353 76.2158 53.0452 75.6257 52.3169 75.6257Z" fill="url(#paint6_linear_136_779)"/>
<defs>
<linearGradient id="paint0_linear_136_779" x1="-4.05303e-06" y1="71.534" x2="86.0863" y2="15.2633" gradientUnits="userSpaceOnUse">
<stop stop-color="#234DAE"/>
<stop offset="1" stop-color="#347BCE"/>
</linearGradient>
<linearGradient id="paint1_linear_136_779" x1="20.9392" y1="45.4928" x2="46.8569" y2="28.7039" gradientUnits="userSpaceOnUse">
<stop stop-color="#234DAE"/>
<stop offset="1" stop-color="#347BCE"/>
</linearGradient>
<linearGradient id="paint2_linear_136_779" x1="25.4819" y1="42.804" x2="42.673" y2="31.6062" gradientUnits="userSpaceOnUse">
<stop stop-color="#234DAE"/>
<stop offset="1" stop-color="#347BCE"/>
</linearGradient>
<linearGradient id="paint3_linear_136_779" x1="9.83398" y1="77.1307" x2="13.3477" y2="76.5812" gradientUnits="userSpaceOnUse">
<stop stop-color="#234DAE"/>
<stop offset="1" stop-color="#347BCE"/>
</linearGradient>
<linearGradient id="paint4_linear_136_779" x1="15.2632" y1="87.0518" x2="18.8118" y2="86.6264" gradientUnits="userSpaceOnUse">
<stop stop-color="#234DAE"/>
<stop offset="1" stop-color="#347BCE"/>
</linearGradient>
<linearGradient id="paint5_linear_136_779" x1="56.4282" y1="77.1307" x2="59.9419" y2="76.5812" gradientUnits="userSpaceOnUse">
<stop stop-color="#234DAE"/>
<stop offset="1" stop-color="#347BCE"/>
</linearGradient>
<linearGradient id="paint6_linear_136_779" x1="50.9985" y1="87.0518" x2="54.5472" y2="86.6264" gradientUnits="userSpaceOnUse">
<stop stop-color="#234DAE"/>
<stop offset="1" stop-color="#347BCE"/>
</linearGradient>
</defs>
</svg>
