<svg width="70" height="69" viewBox="0 0 70 69" fill="none" xmlns="http://www.w3.org/2000/svg">
<g clip-path="url(#clip0_140_1010)">
<path d="M42.2773 25.6055C41.5334 25.6055 40.9297 26.2092 40.9297 26.9531C40.9297 27.697 41.5334 28.3008 42.2773 28.3008C43.0213 28.3008 43.625 27.697 43.625 26.9531C43.625 26.2092 43.0213 25.6055 42.2773 25.6055Z" fill="url(#paint0_linear_140_1010)"/>
<path d="M67.9207 59.7981L49.9322 41.8096C52.8626 37.3954 54.4062 32.2838 54.4062 26.9531C54.4062 12.0912 42.3151 0 27.4531 0C12.5912 0 0.5 12.0912 0.5 26.9531C0.5 41.8151 12.5912 53.9062 27.4531 53.9062C32.7839 53.9062 37.8956 52.3625 42.3096 49.4323L47.2817 54.4045C47.2824 54.4052 47.2831 54.4058 47.2839 54.4066L60.2979 67.4207C61.3165 68.4391 62.6699 69 64.1094 69C65.5488 69 66.9023 68.4391 67.9203 67.4211C68.939 66.4032 69.5 65.0496 69.5 63.6094C69.5 62.1691 68.939 60.8155 67.9207 59.7981ZM41.6758 46.5921C41.6758 46.5922 41.6756 46.5923 41.6755 46.5924C37.5157 49.6138 32.5978 51.2109 27.4531 51.2109C14.0774 51.2109 3.19531 40.3289 3.19531 26.9531C3.19531 13.5774 14.0774 2.69531 27.4531 2.69531C40.8289 2.69531 51.7109 13.5774 51.7109 26.9531C51.7109 32.0978 50.1138 37.0157 47.0923 41.1756C45.5806 43.2581 43.7583 45.0806 41.6758 46.5921ZM44.5031 47.8139C45.898 46.6728 47.173 45.3978 48.3139 44.0031L52.1373 47.8266C50.9746 49.1989 49.6989 50.4747 48.3266 51.6373L44.5031 47.8139ZM66.0148 65.5148C65.5054 66.0242 64.8288 66.3047 64.1094 66.3047C63.39 66.3047 62.7133 66.0242 62.2039 65.5148L50.2374 53.5483C51.6022 52.3771 52.8771 51.1023 54.0482 49.7375L66.0151 61.7045C66.5242 62.2131 66.8047 62.8895 66.8047 63.6094C66.8047 64.3293 66.5242 65.0057 66.0148 65.5148Z" fill="url(#paint1_linear_140_1010)"/>
<path d="M27.4531 5.39062C15.5634 5.39062 5.89062 15.0634 5.89062 26.9531C5.89062 38.8428 15.5634 48.5156 27.4531 48.5156C39.3428 48.5156 49.0156 38.8428 49.0156 26.9531C49.0156 15.0634 39.3428 5.39062 27.4531 5.39062ZM27.4531 45.8203C17.0498 45.8203 8.58594 37.3565 8.58594 26.9531C8.58594 16.5498 17.0498 8.08594 27.4531 8.08594C37.8565 8.08594 46.3203 16.5498 46.3203 26.9531C46.3203 37.3565 37.8565 45.8203 27.4531 45.8203Z" fill="url(#paint2_linear_140_1010)"/>
<path d="M42.5557 21.168C41.3952 18.1477 39.3746 15.5653 36.7122 13.7003C33.9864 11.7906 30.7847 10.7812 27.4531 10.7812C26.709 10.7812 26.1055 11.3847 26.1055 12.1289C26.1055 12.8731 26.709 13.4766 27.4531 13.4766C32.9919 13.4766 38.0499 16.9559 40.0397 22.1349C40.2456 22.6707 40.7563 22.9995 41.298 22.9995C41.4587 22.9995 41.6221 22.9705 41.781 22.9095C42.4757 22.6425 42.8226 21.8629 42.5557 21.168Z" fill="url(#paint3_linear_140_1010)"/>
</g>
<defs>
<linearGradient id="paint0_linear_140_1010" x1="40.9297" y1="27.748" x2="43.5079" y2="26.0629" gradientUnits="userSpaceOnUse">
<stop stop-color="#234DAE"/>
<stop offset="1" stop-color="#347BCE"/>
</linearGradient>
<linearGradient id="paint1_linear_140_1010" x1="0.499997" y1="54.8481" x2="66.5034" y2="11.709" gradientUnits="userSpaceOnUse">
<stop stop-color="#234DAE"/>
<stop offset="1" stop-color="#347BCE"/>
</linearGradient>
<linearGradient id="paint2_linear_140_1010" x1="5.89062" y1="39.6707" x2="47.1428" y2="12.7087" gradientUnits="userSpaceOnUse">
<stop stop-color="#234DAE"/>
<stop offset="1" stop-color="#347BCE"/>
</linearGradient>
<linearGradient id="paint3_linear_140_1010" x1="26.1055" y1="20.4935" x2="38.771" y2="9.28727" gradientUnits="userSpaceOnUse">
<stop stop-color="#234DAE"/>
<stop offset="1" stop-color="#347BCE"/>
</linearGradient>
<clipPath id="clip0_140_1010">
<rect width="69" height="69" fill="white" transform="translate(0.5)"/>
</clipPath>
</defs>
</svg>
