<svg width="80" height="80" viewBox="0 0 80 80" fill="none" xmlns="http://www.w3.org/2000/svg">
<path d="M45.0002 28.75H35.0002C34.1374 28.75 33.4377 28.0503 33.4377 27.1875V15.625H31.5627C30.9849 15.625 30.4541 15.3061 30.183 14.7958C29.9118 14.2855 29.9444 13.6672 30.2677 13.1883L38.7052 0.688281C38.9955 0.257812 39.481 0 40.0002 0C40.5194 0 41.0049 0.257812 41.2952 0.688281L49.7327 13.1883C50.056 13.6672 50.0886 14.2855 49.8174 14.7958C49.5463 15.3061 49.0155 15.625 48.4377 15.625H46.5627V27.1875C46.5627 28.0505 45.8632 28.75 45.0002 28.75ZM36.5627 25.625H43.4377V14.0625C43.4377 13.1997 44.1374 12.5 45.0002 12.5H45.498L40.0002 4.35531L34.5026 12.5H35.0002C35.863 12.5 36.5627 13.1997 36.5627 14.0625V25.625Z" fill="url(#paint0_linear_140_1035)"/>
<path d="M74.0626 60.9375H59.0626C58.1998 60.9375 57.5001 60.2378 57.5001 59.375V40.9375H54.6876C54.1179 40.9375 53.5934 40.6275 53.3187 40.1283C53.044 39.6291 53.0626 39.0202 53.3676 38.5389L65.2426 19.7889C65.5291 19.3366 66.0271 19.0625 66.5626 19.0625C67.098 19.0625 67.596 19.3367 67.8826 19.7889L79.7575 38.5389C80.0624 39.0202 80.081 39.6292 79.8064 40.1283C79.5319 40.6273 79.0072 40.9375 78.4375 40.9375H75.625V59.375C75.625 60.238 74.9255 60.9375 74.0626 60.9375ZM60.6251 57.8125H72.5001V39.375C72.5001 38.5122 73.1997 37.8125 74.0626 37.8125H75.5985L66.5626 23.5453L57.5266 37.8125H59.0626C59.9254 37.8125 60.6251 38.5122 60.6251 39.375V57.8125Z" fill="url(#paint1_linear_140_1035)"/>
<path d="M31.8751 80H8.75009C7.88728 80 7.18759 79.3003 7.18759 78.4375V49.375H1.56259C0.991963 49.375 0.466651 49.0639 0.192276 48.5634C-0.0819429 48.0631 -0.0616304 47.453 0.245401 46.9719L18.9954 17.5969C19.2824 17.1472 19.7792 16.875 20.3126 16.875C20.846 16.875 21.3427 17.1472 21.6298 17.5969L40.3798 46.9719C40.6868 47.4528 40.7071 48.063 40.4329 48.5634C40.1585 49.0639 39.6334 49.375 39.0626 49.375H33.4376V56.0938C33.4376 56.9566 32.7379 57.6562 31.8751 57.6562C31.0123 57.6562 30.3126 56.9566 30.3126 56.0938V47.8125C30.3126 46.9497 31.0123 46.25 31.8751 46.25H36.2117L20.3126 21.3416L4.41353 46.25H8.75009C9.6129 46.25 10.3126 46.9497 10.3126 47.8125V76.875H30.3126V70.1562C30.3126 69.2934 31.0123 68.5938 31.8751 68.5938C32.7379 68.5938 33.4376 69.2934 33.4376 70.1562V78.4375C33.4376 79.3005 32.7381 80 31.8751 80Z" fill="url(#paint2_linear_140_1035)"/>
<path d="M31.875 64.6875C31.4641 64.6875 31.0609 64.5203 30.7703 64.2295C30.4797 63.9391 30.3125 63.5359 30.3125 63.125C30.3125 62.7141 30.4795 62.3109 30.7703 62.0203C31.0611 61.7297 31.4641 61.5625 31.875 61.5625C32.2859 61.5625 32.6891 61.7295 32.9795 62.0203C33.2702 62.3109 33.4375 62.7141 33.4375 63.125C33.4375 63.5359 33.2703 63.9391 32.9795 64.2295C32.6891 64.5203 32.2859 64.6875 31.875 64.6875Z" fill="url(#paint3_linear_140_1035)"/>
<defs>
<linearGradient id="paint0_linear_140_1035" x1="30.0002" y1="22.8534" x2="52.6267" y2="12.5658" gradientUnits="userSpaceOnUse">
<stop stop-color="#234DAE"/>
<stop offset="1" stop-color="#347BCE"/>
</linearGradient>
<linearGradient id="paint1_linear_140_1035" x1="53.125" y1="52.3489" x2="84.325" y2="39.2616" gradientUnits="userSpaceOnUse">
<stop stop-color="#234DAE"/>
<stop offset="1" stop-color="#347BCE"/>
</linearGradient>
<linearGradient id="paint2_linear_140_1035" x1="-1.8295e-06" y1="67.0531" x2="47.1239" y2="47.2314" gradientUnits="userSpaceOnUse">
<stop stop-color="#234DAE"/>
<stop offset="1" stop-color="#347BCE"/>
</linearGradient>
<linearGradient id="paint3_linear_140_1035" x1="30.3125" y1="64.0466" x2="33.3018" y2="62.0928" gradientUnits="userSpaceOnUse">
<stop stop-color="#234DAE"/>
<stop offset="1" stop-color="#347BCE"/>
</linearGradient>
</defs>
</svg>
