<svg width="90" height="90" viewBox="0 0 90 90" fill="none" xmlns="http://www.w3.org/2000/svg">
<path d="M82.4999 13.3381H53.1497C52.1717 10.5495 49.8829 8.4218 47.0304 7.6496C44.178 6.87739 41.1284 7.55995 38.8772 9.47421L30.8203 1.41709C29.0654 -0.253882 26.309 -0.25687 24.5507 1.41059C22.9245 3.00545 22.7929 5.58083 24.248 7.33319C24.8769 9.2754 24.9557 11.3538 24.4754 13.3381H7.50006C3.35988 13.3428 0.00492187 16.6979 0 20.8379V70.3379C0.00492187 74.4781 3.35988 77.8331 7.50006 77.838H31.5V80.8381H21.0001C20.1716 80.8381 19.5001 81.5095 19.5001 82.338V88.3379C19.5001 89.1664 20.1716 89.8379 21.0001 89.8379H69.0001C69.8286 89.8379 70.5001 89.1664 70.5001 88.3379V82.338C70.5001 81.5095 69.8284 80.8381 69.0001 80.8381H58.5V77.838H82.4999C86.6401 77.8331 89.9951 74.4781 90 70.3379V20.8379C89.9951 16.6979 86.6401 13.3428 82.4999 13.3381ZM46.7736 10.7122C48.7241 11.4356 50.1606 13.1182 50.5691 15.1579H50.5693C50.6498 15.546 50.6886 15.9415 50.6849 16.3379C50.6876 17.6735 50.2414 18.9713 49.4181 20.023L40.9971 11.608C42.637 10.3278 44.8232 9.98889 46.7736 10.7122ZM26.6646 3.53895C26.9318 3.26807 27.295 3.11321 27.6754 3.10829C28.06 3.11127 28.4279 3.26579 28.6993 3.53825L37.6875 12.5265C37.7241 12.5731 37.7634 12.6173 37.8055 12.659L57.7691 32.6095C58.0437 32.8802 58.1975 33.25 58.1961 33.6357C58.1963 34.0119 58.0449 34.3722 57.7763 34.6354L57.7617 34.6499C57.4986 34.9182 57.1386 35.0695 56.7628 35.0697H56.7577C56.3737 35.0695 56.0058 34.9159 55.7358 34.6427L26.6653 5.57204C26.3914 5.30063 26.2376 4.93079 26.2383 4.54512C26.2394 4.16614 26.393 3.8035 26.6646 3.53895ZM27.7866 10.9358L29.8457 12.9949L50.3673 33.5179C41.1704 33.7754 30.1597 42.2544 26.7221 45.0926L16.2113 34.5817C19.0494 31.1442 27.5284 20.1332 27.7866 10.9358ZM6.97201 46.1125C6.38754 45.5259 6.38754 44.5772 6.97201 43.9906L14.1754 36.788L24.5157 47.1283L17.6041 54.0404L17.313 54.3317C16.7265 54.9161 15.7778 54.9161 15.1912 54.3317L6.97201 46.1125ZM12.0542 55.437L10.0658 57.4254C8.89295 58.5943 6.99557 58.5943 5.82293 57.4254L3.87914 55.4807C3.31646 54.9181 3.00023 54.155 3.00023 53.3592C3.00023 52.5635 3.31646 51.8004 3.87914 51.2377L5.86687 49.2493L12.0542 55.437ZM24.0792 51.8073L26.6368 49.2495L36.9779 59.5905L34.0907 62.4777L20.7958 55.0912L24.0792 51.8073ZM3.00006 20.8379C3.0027 18.3538 5.01592 16.3406 7.50006 16.3379H23.6587C21.3091 23.1609 15.8708 30.4685 13.0718 33.6492L4.85086 41.8695C3.52705 43.2005 3.16969 45.2141 3.9549 46.9193L3.00006 47.8743V20.8379ZM3.00006 58.8445L3.70178 59.5464C6.0467 61.8853 9.84199 61.8853 12.1869 59.5464L14.3847 57.3486C15.6702 57.9584 17.1726 57.9016 18.4085 57.1967L28.5627 62.8379H3.00006V58.8445ZM67.5 83.8379V86.838H22.5V83.8379H67.5ZM34.5001 80.8381V77.838H55.5001V80.8381H34.5001ZM86.9999 70.3379C86.9973 72.8221 84.9841 74.8353 82.4999 74.8379H7.50006C5.01592 74.8353 3.0027 72.8221 3.00006 70.3379V65.8379H87.0001V70.3379H86.9999ZM86.9999 62.8381H37.9724L40.1595 60.651C40.4409 60.3697 40.599 59.9883 40.599 59.5905C40.599 59.1927 40.4409 58.8113 40.1595 58.53L28.8499 47.2204C34.377 42.6752 46.7188 34.3318 53.9675 37.0546C54.7516 37.7066 55.7379 38.0654 56.7577 38.0698H56.7722C58.5663 38.0641 60.1803 36.9789 60.8627 35.3197C61.5449 33.6605 61.1612 31.7538 59.8903 30.4876L51.5424 22.1457C52.926 20.5272 53.6859 18.4674 53.685 16.3379H82.4999C84.9841 16.3406 86.9973 18.3538 86.9999 20.8379V62.8381Z" fill="url(#paint0_linear_136_766)"/>
<path d="M57.0002 47.8379H70.5002C71.3287 47.8379 72.0001 47.1664 72.0001 46.338C72.0001 45.5095 71.3287 44.838 70.5002 44.838H57.0002C56.1717 44.838 55.5002 45.5097 55.5002 46.338C55.5002 47.1663 56.1717 47.8379 57.0002 47.8379Z" fill="url(#paint1_linear_136_766)"/>
<path d="M67.4997 41.838H71.9997C72.8282 41.838 73.4996 41.1665 73.4996 40.338C73.4996 39.5096 72.8282 38.8381 71.9997 38.8381H67.4997C66.6712 38.8381 65.9998 39.5096 65.9998 40.338C65.9998 41.1665 66.6712 41.838 67.4997 41.838Z" fill="url(#paint2_linear_136_766)"/>
<path d="M82.4999 38.8379H77.9999C77.1715 38.8379 76.5 39.5094 76.5 40.3378C76.5 41.1663 77.1715 41.8378 77.9999 41.8378H82.4999C83.3284 41.8378 83.9999 41.1663 83.9999 40.3378C83.9999 39.5094 83.3284 38.8379 82.4999 38.8379Z" fill="url(#paint3_linear_136_766)"/>
<path d="M82.4996 44.838H76.4997C75.6712 44.838 74.9998 45.5097 74.9998 46.338C74.9998 47.1663 75.6712 47.8379 76.4997 47.8379H82.4996C83.3281 47.8379 83.9996 47.1664 83.9996 46.338C83.9996 45.5095 83.3281 44.838 82.4996 44.838Z" fill="url(#paint4_linear_136_766)"/>
<path d="M79.5004 50.838H60.0002C57.5151 50.838 55.5002 52.8526 55.5002 55.338C55.5002 57.8234 57.5151 59.838 60.0002 59.838H79.5002C81.9854 59.838 84.0002 57.8232 84.0002 55.338C84.0002 52.8528 81.9856 50.838 79.5004 50.838ZM79.5004 56.8379H60.0002C59.1718 56.8379 58.5003 56.1665 58.5003 55.338C58.5003 54.5095 59.172 53.8381 60.0002 53.8381H79.5002C80.3286 53.8381 81.0001 54.5095 81.0001 55.338C81.0001 56.1665 80.3286 56.8379 79.5004 56.8379Z" fill="url(#paint5_linear_136_766)"/>
<defs>
<linearGradient id="paint0_linear_136_766" x1="-4.05303e-06" y1="71.4454" x2="85.9053" y2="15.0957" gradientUnits="userSpaceOnUse">
<stop stop-color="#234DAE"/>
<stop offset="1" stop-color="#347BCE"/>
</linearGradient>
<linearGradient id="paint1_linear_136_766" x1="55.5002" y1="47.2226" x2="57.1181" y2="41.4066" gradientUnits="userSpaceOnUse">
<stop stop-color="#234DAE"/>
<stop offset="1" stop-color="#347BCE"/>
</linearGradient>
<linearGradient id="paint2_linear_136_766" x1="65.9998" y1="41.2227" x2="68.7896" y2="36.664" gradientUnits="userSpaceOnUse">
<stop stop-color="#234DAE"/>
<stop offset="1" stop-color="#347BCE"/>
</linearGradient>
<linearGradient id="paint3_linear_136_766" x1="76.5" y1="41.2225" x2="79.2899" y2="36.6638" gradientUnits="userSpaceOnUse">
<stop stop-color="#234DAE"/>
<stop offset="1" stop-color="#347BCE"/>
</linearGradient>
<linearGradient id="paint4_linear_136_766" x1="74.9998" y1="47.2226" x2="77.5358" y2="42.2499" gradientUnits="userSpaceOnUse">
<stop stop-color="#234DAE"/>
<stop offset="1" stop-color="#347BCE"/>
</linearGradient>
<linearGradient id="paint5_linear_136_766" x1="55.5002" y1="57.9921" x2="62.8641" y2="42.7511" gradientUnits="userSpaceOnUse">
<stop stop-color="#234DAE"/>
<stop offset="1" stop-color="#347BCE"/>
</linearGradient>
</defs>
</svg>
