<svg width="90" height="90" viewBox="0 0 90 90" fill="none" xmlns="http://www.w3.org/2000/svg">
<path d="M55.0096 74.0309C54.3948 74.0315 53.7859 73.9103 53.2181 73.6745C52.6504 73.4386 52.1349 73.0926 51.7015 72.6566L49.269 70.2242L50.9839 68.5093L53.4163 70.9417C53.838 71.3613 54.4086 71.5969 55.0035 71.5969C55.5984 71.5969 56.169 71.3613 56.5907 70.9417C57.0103 70.5201 57.2459 69.9494 57.2459 69.3546C57.2459 68.7597 57.0103 68.189 56.5907 67.7674L54.1582 65.335L55.8731 63.6201L58.3055 66.0525C58.9544 66.7072 59.3955 67.5389 59.5738 68.4433C59.752 69.3476 59.6593 70.2845 59.3074 71.1364C58.9554 71.9883 58.3599 72.7174 57.5953 73.2323C56.8308 73.7472 55.9313 74.025 55.0096 74.0309Z" fill="url(#paint0_linear_140_985)"/>
<path d="M60.7136 69.9569C60.0988 69.9574 59.4899 69.8363 58.9221 69.6004C58.3544 69.3645 57.8389 69.0186 57.4055 68.5825L54.146 65.3231L55.8609 63.6082L59.1203 66.892C59.5502 67.2659 60.1058 67.4629 60.6752 67.4432C61.2446 67.4234 61.7853 67.1884 62.1882 66.7855C62.5911 66.3826 62.8261 65.8419 62.8458 65.2726C62.8656 64.7032 62.6686 64.1475 62.2947 63.7177L59.0352 60.4582L60.8109 58.719L64.0095 62.0271C64.6584 62.6818 65.0995 63.5135 65.2778 64.4178C65.456 65.3222 65.3633 66.259 65.0114 67.111C64.6594 67.9629 64.0639 68.692 63.2994 69.2069C62.5348 69.7218 61.6353 69.9996 60.7136 70.0055V69.9569Z" fill="url(#paint1_linear_140_985)"/>
<path d="M49.293 78.1055C48.6799 78.1071 48.0725 77.9864 47.5066 77.7504C46.9406 77.5145 46.4275 77.1679 45.9971 76.7311L18.243 49.0257C18.1281 48.9131 18.0367 48.7788 17.9741 48.6305C17.9114 48.4823 17.8788 48.3231 17.8782 48.1622C17.8788 48.0013 17.9114 47.8421 17.9741 47.6939C18.0367 47.5457 18.1281 47.4113 18.243 47.2987L37.8363 27.7419L39.5633 29.4568L20.8579 48.1622L47.712 75.0163C48.1381 75.4272 48.7071 75.6569 49.2991 75.6569C49.8912 75.6569 50.4601 75.4272 50.8863 75.0163C51.3059 74.5946 51.5415 74.024 51.5415 73.4291C51.5415 72.8342 51.3059 72.2636 50.8863 71.8419L49.2566 70.2122L50.9714 68.4974L52.6012 70.1271C53.4768 71.0029 53.9687 72.1906 53.9687 73.4291C53.9687 74.6676 53.4768 75.8553 52.6012 76.7311C52.1694 77.1694 51.6542 77.5168 51.0861 77.7528C50.5179 77.9888 49.9083 78.1087 49.293 78.1055Z" fill="url(#paint2_linear_140_985)"/>
<path d="M18.3167 50.1931C17.9976 50.1918 17.6919 50.0651 17.4653 49.8404L12.6005 44.9756C12.4865 44.8625 12.396 44.728 12.3343 44.5798C12.2725 44.4316 12.2407 44.2726 12.2407 44.1121C12.2407 43.9515 12.2725 43.7925 12.3343 43.6443C12.396 43.4961 12.4865 43.3616 12.6005 43.2485L33.7626 22.0377C33.8757 21.9237 34.0102 21.8333 34.1584 21.7715C34.3066 21.7098 34.4656 21.678 34.6262 21.678C34.7867 21.678 34.9457 21.7098 35.0939 21.7715C35.2421 21.8333 35.3766 21.9237 35.4897 22.0377L40.3545 26.9026C40.5811 27.1305 40.7082 27.4387 40.7082 27.76C40.7082 28.0813 40.5811 28.3896 40.3545 28.6175L19.1802 49.8648C18.9468 50.0835 18.6365 50.2015 18.3167 50.1931ZM15.1545 44.1121L18.3167 47.2864L37.7761 27.8269L34.6018 24.6648L15.1545 44.1121Z" fill="url(#paint3_linear_140_985)"/>
<path d="M11.7973 46.9337C11.4782 46.9324 11.1724 46.8057 10.9459 46.581L2.7851 38.4202C2.56041 38.1937 2.43374 37.8879 2.43239 37.5688C2.43147 37.4088 2.46215 37.2501 2.52267 37.1019C2.5832 36.9538 2.67238 36.819 2.7851 36.7053L27.2432 12.2472C27.4711 12.0207 27.7793 11.8936 28.1006 11.8936C28.4219 11.8936 28.7302 12.0207 28.9581 12.2472L37.1189 20.3959C37.2329 20.5089 37.3234 20.6434 37.3851 20.7917C37.4468 20.9399 37.4786 21.0988 37.4786 21.2594C37.4786 21.4199 37.4468 21.5789 37.3851 21.7271C37.3234 21.8753 37.2329 22.0098 37.1189 22.1229L12.6608 46.581C12.5471 46.6937 12.4124 46.7829 12.2642 46.8434C12.116 46.904 11.9573 46.9346 11.7973 46.9337ZM5.36347 37.5688L11.7973 43.9905L34.5405 21.2594L28.1067 14.8256L5.36347 37.5688Z" fill="url(#paint4_linear_140_985)"/>
<path d="M8.48486 37.6084L10.2049 35.8884L13.4642 39.1478L11.7442 40.8678L8.48486 37.6084Z" fill="url(#paint5_linear_140_985)"/>
<path d="M34.9906 74.0309C34.0663 74.0308 33.1628 73.7564 32.3945 73.2424C31.6263 72.7285 31.0278 71.9981 30.6749 71.1438C30.3219 70.2895 30.2305 69.3497 30.412 68.4434C30.5935 67.5371 31.0399 66.705 31.6947 66.0525L34.1271 63.6201L35.842 65.335L33.4095 67.7674C33.0356 68.1972 32.8386 68.7529 32.8584 69.3223C32.8781 69.8917 33.1131 70.4324 33.516 70.8352C33.9189 71.2381 34.4596 71.4731 35.029 71.4929C35.5984 71.5127 36.154 71.3157 36.5839 70.9417L39.0163 68.5093L40.7312 70.2242L38.2987 72.6566C37.8653 73.0926 37.3498 73.4386 36.7821 73.6745C36.2143 73.9103 35.6054 74.0315 34.9906 74.0309Z" fill="url(#paint6_linear_140_985)"/>
<path d="M29.2864 69.9568C28.3745 69.9418 27.4869 69.6608 26.7324 69.1484C25.978 68.6359 25.3896 67.9143 25.0395 67.0721C24.6895 66.2299 24.593 65.3039 24.7619 64.4076C24.9309 63.5114 25.3579 62.684 25.9905 62.027L29.2499 58.7676L30.9648 60.4824L27.7054 63.7419C27.3618 64.1756 27.19 64.7208 27.223 65.2732C27.256 65.8255 27.4914 66.3464 27.8842 66.7361C28.2769 67.1259 28.7996 67.3573 29.3522 67.386C29.9048 67.4147 30.4486 67.2388 30.8797 66.8919L34.1391 63.6324L35.854 65.3473L32.5945 68.5824C32.1611 69.0185 31.6457 69.3644 31.0779 69.6003C30.5101 69.8362 29.9013 69.9573 29.2864 69.9568Z" fill="url(#paint7_linear_140_985)"/>
<path d="M24.3973 65.0676C23.4745 65.0641 22.5734 64.788 21.807 64.274C21.0406 63.76 20.4432 63.031 20.0897 62.1786C19.7363 61.3262 19.6426 60.3884 19.8204 59.4829C19.9982 58.5774 20.4396 57.7446 21.0892 57.0892L24.5797 53.5986L26.2946 55.3257L22.8162 58.804C22.3888 59.225 22.1462 59.7985 22.1416 60.3983C22.137 60.9982 22.371 61.5753 22.7919 62.0027C23.2128 62.4301 23.7863 62.6728 24.3862 62.6773C24.986 62.6819 25.5632 62.448 25.9905 62.027L29.25 58.7676L30.9649 60.4824L27.7054 63.7419C26.822 64.6048 25.6321 65.0817 24.3973 65.0676Z" fill="url(#paint8_linear_140_985)"/>
<path d="M40.7064 78.1054C40.0912 78.1087 39.4815 77.9888 38.9134 77.7527C38.3452 77.5167 37.8301 77.1693 37.3983 76.7311C36.5227 75.8553 36.0308 74.6675 36.0308 73.4291C36.0308 72.1906 36.5227 71.0029 37.3983 70.127L39.028 68.4973L40.7429 70.2122L39.1132 71.8419C38.6935 72.2635 38.458 72.8342 38.458 73.4291C38.458 74.0239 38.6935 74.5946 39.1132 75.0162C39.5393 75.4272 40.1083 75.6568 40.7003 75.6568C41.2924 75.6568 41.8613 75.4272 42.2875 75.0162L44.1361 73.1676L45.8631 74.8824L44.0023 76.7311C43.572 77.1679 43.0588 77.5144 42.4929 77.7504C41.9269 77.9864 41.3196 78.1071 40.7064 78.1054Z" fill="url(#paint9_linear_140_985)"/>
<path d="M71.6839 50.1932C71.5238 50.1942 71.3652 50.1635 71.217 50.1029C71.0688 50.0424 70.934 49.9532 70.8204 49.8405L49.6217 28.6419C49.3952 28.414 49.2681 28.1058 49.2681 27.7844C49.2681 27.4631 49.3952 27.1549 49.6217 26.927L54.4866 22.0621C54.5997 21.9482 54.7342 21.8577 54.8824 21.7959C55.0306 21.7342 55.1896 21.7024 55.3501 21.7024C55.5107 21.7024 55.6696 21.7342 55.8178 21.7959C55.966 21.8577 56.1006 21.9482 56.2136 22.0621L77.4244 43.2243C77.5384 43.3374 77.6289 43.4719 77.6906 43.6201C77.7524 43.7683 77.7842 43.9273 77.7842 44.0878C77.7842 44.2484 77.7524 44.4073 77.6906 44.5555C77.6289 44.7038 77.5384 44.8383 77.4244 44.9513L72.5596 49.8162C72.4465 49.9348 72.3107 50.0293 72.1602 50.0941C72.0097 50.1589 71.8477 50.1926 71.6839 50.1932ZM52.2244 27.7784L71.6839 47.2378L74.8461 44.0635L55.3866 24.604L52.2244 27.7784Z" fill="url(#paint10_linear_140_985)"/>
<path d="M78.2026 46.9337C78.0426 46.9346 77.8839 46.904 77.7357 46.8434C77.5875 46.7829 77.4527 46.6937 77.3391 46.581L52.881 22.1229C52.767 22.0098 52.6765 21.8753 52.6148 21.7271C52.553 21.5789 52.5212 21.4199 52.5212 21.2594C52.5212 21.0988 52.553 20.9399 52.6148 20.7917C52.6765 20.6434 52.767 20.5089 52.881 20.3959L61.0418 12.2472C61.2697 12.0207 61.5779 11.8936 61.8992 11.8936C62.2205 11.8936 62.5288 12.0207 62.7567 12.2472L87.2148 36.7053C87.3275 36.819 87.4167 36.9538 87.4772 37.1019C87.5377 37.2501 87.5684 37.4088 87.5675 37.5688C87.5661 37.8879 87.4395 38.1937 87.2148 38.4202L79.054 46.581C78.8274 46.8057 78.5217 46.9324 78.2026 46.9337ZM55.4594 21.2594L78.2026 43.9905L84.6364 37.5688L61.8932 14.8256L55.4594 21.2594Z" fill="url(#paint11_linear_140_985)"/>
<path d="M76.5078 39.1567L79.7672 35.8973L81.4872 37.6173L78.2278 40.8767L76.5078 39.1567Z" fill="url(#paint12_linear_140_985)"/>
<path d="M65.6025 65.0675C64.9877 65.0681 64.3788 64.9469 63.811 64.7111C63.2433 64.4752 62.7278 64.1292 62.2944 63.6932L59.0349 60.4337L60.8106 58.7189L64.0092 62.027C64.4391 62.4009 64.9947 62.5979 65.5641 62.5782C66.1335 62.5584 66.6742 62.3234 67.0771 61.9205C67.4799 61.5176 67.715 60.9769 67.7347 60.4075C67.7545 59.8382 67.5575 59.2825 67.1836 58.8526L51.8714 43.4797L43.2363 48.0405C42.234 48.5638 41.0774 48.7109 39.976 48.455C38.8746 48.1992 37.9013 47.5573 37.2323 46.6458C36.5634 45.7342 36.243 44.6132 36.3292 43.4858C36.4155 42.3584 36.9026 41.2991 37.7025 40.4999L50.4363 27.7418C50.5493 27.6278 50.6838 27.5374 50.832 27.4756C50.9803 27.4139 51.1392 27.3821 51.2998 27.3821C51.4603 27.3821 51.6193 27.4139 51.7675 27.4756C51.9157 27.5374 52.0502 27.6278 52.1633 27.7418L71.7565 47.2986C71.8705 47.4117 71.961 47.5462 72.0228 47.6944C72.0845 47.8426 72.1163 48.0015 72.1163 48.1621C72.1163 48.3227 72.0845 48.4816 72.0228 48.6298C71.961 48.778 71.8705 48.9126 71.7565 49.0256L66.2836 54.4621L68.9106 57.0891C69.5601 57.7446 70.0015 58.5773 70.1793 59.4828C70.3572 60.3883 70.2635 61.3261 69.91 62.1786C69.5566 63.031 68.9592 63.7599 68.1928 64.2739C67.4264 64.7879 66.5252 65.064 65.6025 65.0675ZM52.0903 40.7432C52.2504 40.7423 52.409 40.7729 52.5572 40.8335C52.7054 40.894 52.8402 40.9832 52.9538 41.0959L64.5687 52.7108L69.1417 48.1256L51.2998 30.3202L39.393 42.2148C39.0241 42.6102 38.8056 43.1225 38.7754 43.6624C38.7453 44.2023 38.9055 44.7357 39.2281 45.1698C39.5507 45.6038 40.0153 45.9109 40.541 46.0376C41.0667 46.1644 41.6202 46.1027 42.1052 45.8635L51.5309 40.8891C51.7048 40.805 51.8975 40.7672 52.0903 40.7797V40.7432Z" fill="url(#paint13_linear_140_985)"/>
<path d="M47.6516 32.9717L45.0732 32.0352C44.6217 31.8658 44.1289 31.8403 43.6624 31.9622C42.8509 32.1622 42.0017 32.1497 41.1964 31.926C40.3912 31.7024 39.6572 31.275 39.0651 30.6852L37.8489 29.469L39.5759 27.7542L40.7921 28.9704C41.0888 29.2642 41.4561 29.4767 41.8586 29.5875C42.2612 29.6983 42.6856 29.7035 43.0908 29.6028C44.0262 29.3751 45.0082 29.4302 45.9124 29.7609L48.4908 30.6974L47.6516 32.9717Z" fill="url(#paint14_linear_140_985)"/>
<defs>
<linearGradient id="paint0_linear_140_985" x1="49.269" y1="71.8957" x2="59.2209" y2="65.4023" gradientUnits="userSpaceOnUse">
<stop stop-color="#234DAE"/>
<stop offset="1" stop-color="#347BCE"/>
</linearGradient>
<linearGradient id="paint1_linear_140_985" x1="54.146" y1="67.6906" x2="64.9167" y2="60.6925" gradientUnits="userSpaceOnUse">
<stop stop-color="#234DAE"/>
<stop offset="1" stop-color="#347BCE"/>
</linearGradient>
<linearGradient id="paint2_linear_140_985" x1="17.8782" y1="67.776" x2="58.2851" y2="48.8509" gradientUnits="userSpaceOnUse">
<stop stop-color="#234DAE"/>
<stop offset="1" stop-color="#347BCE"/>
</linearGradient>
<linearGradient id="paint3_linear_140_985" x1="12.2407" y1="44.345" x2="39.4994" y2="26.5591" gradientUnits="userSpaceOnUse">
<stop stop-color="#234DAE"/>
<stop offset="1" stop-color="#347BCE"/>
</linearGradient>
<linearGradient id="paint4_linear_140_985" x1="2.43237" y1="39.747" x2="35.9531" y2="17.8344" gradientUnits="userSpaceOnUse">
<stop stop-color="#234DAE"/>
<stop offset="1" stop-color="#347BCE"/>
</linearGradient>
<linearGradient id="paint5_linear_140_985" x1="11.0757" y1="40.1993" x2="12.4505" y2="37.377" gradientUnits="userSpaceOnUse">
<stop stop-color="#234DAE"/>
<stop offset="1" stop-color="#347BCE"/>
</linearGradient>
<linearGradient id="paint6_linear_140_985" x1="30.321" y1="71.8957" x2="40.2794" y2="65.3874" gradientUnits="userSpaceOnUse">
<stop stop-color="#234DAE"/>
<stop offset="1" stop-color="#347BCE"/>
</linearGradient>
<linearGradient id="paint7_linear_140_985" x1="24.6809" y1="67.6619" x2="35.378" y2="60.6804" gradientUnits="userSpaceOnUse">
<stop stop-color="#234DAE"/>
<stop offset="1" stop-color="#347BCE"/>
</linearGradient>
<linearGradient id="paint8_linear_140_985" x1="19.7327" y1="62.7155" x2="30.6103" y2="55.753" gradientUnits="userSpaceOnUse">
<stop stop-color="#234DAE"/>
<stop offset="1" stop-color="#347BCE"/>
</linearGradient>
<linearGradient id="paint9_linear_140_985" x1="36.0308" y1="76.1348" x2="45.3051" y2="69.9318" gradientUnits="userSpaceOnUse">
<stop stop-color="#234DAE"/>
<stop offset="1" stop-color="#347BCE"/>
</linearGradient>
<linearGradient id="paint10_linear_140_985" x1="49.2681" y1="44.3498" x2="76.5313" y2="26.515" gradientUnits="userSpaceOnUse">
<stop stop-color="#234DAE"/>
<stop offset="1" stop-color="#347BCE"/>
</linearGradient>
<linearGradient id="paint11_linear_140_985" x1="52.5212" y1="39.747" x2="86.042" y2="17.8344" gradientUnits="userSpaceOnUse">
<stop stop-color="#234DAE"/>
<stop offset="1" stop-color="#347BCE"/>
</linearGradient>
<linearGradient id="paint12_linear_140_985" x1="77.875" y1="40.524" x2="77.4561" y2="36.5931" gradientUnits="userSpaceOnUse">
<stop stop-color="#234DAE"/>
<stop offset="1" stop-color="#347BCE"/>
</linearGradient>
<linearGradient id="paint13_linear_140_985" x1="36.3154" y1="57.3382" x2="71.5911" y2="35.4354" gradientUnits="userSpaceOnUse">
<stop stop-color="#234DAE"/>
<stop offset="1" stop-color="#347BCE"/>
</linearGradient>
<linearGradient id="paint14_linear_140_985" x1="37.8489" y1="31.9016" x2="43.0803" y2="24.9276" gradientUnits="userSpaceOnUse">
<stop stop-color="#234DAE"/>
<stop offset="1" stop-color="#347BCE"/>
</linearGradient>
</defs>
</svg>
