<svg width="90" height="90" viewBox="0 0 90 90" fill="none" xmlns="http://www.w3.org/2000/svg">
<path d="M88.7542 83.1101L81.8887 76.0134C83.7154 73.0999 84.7745 69.6496 84.7745 65.9539C84.7745 64.0846 84.5032 62.2542 83.9814 60.5039L86.681 60.1773C87.2612 60.107 87.7265 59.6596 87.8236 59.0777L89.9458 46.3743C90.0421 45.7984 89.7549 45.2265 89.2377 44.9644L82.3109 41.4527C82.1147 39.3905 81.7472 37.3329 81.2149 35.3173L86.5615 29.5631C86.9587 29.1355 87.0319 28.4956 86.7415 27.9879L80.3879 16.8795C80.0975 16.3716 79.5121 16.1153 78.9465 16.2494L71.293 18.0562C70.5236 17.2924 69.7125 16.5546 68.879 15.8605C68.1537 15.2559 67.3948 14.671 66.6235 14.1214C66.597 14.1024 66.5701 14.0835 66.5435 14.0645L66.9747 6.18882C67.0069 5.60339 66.6553 5.06585 66.1097 4.86527L54.1689 0.478037C53.6231 0.277456 53.0117 0.461188 52.6633 0.930629L47.9515 7.28093C45.9002 7.11404 43.8263 7.12061 41.7674 7.29937L37.0865 0.991814C36.7383 0.522551 36.1275 0.338464 35.581 0.539222L23.64 4.92628C23.0944 5.12686 22.743 5.6644 22.775 6.24983L23.2088 14.1723C21.5299 15.3769 19.9451 16.7268 18.4828 18.1979L10.8808 16.4034C10.3151 16.2691 9.72974 16.5257 9.43935 17.0335L3.08558 28.1417C2.79519 28.6494 2.86831 29.2891 3.26558 29.7169L8.64834 35.5101C8.1282 37.5244 7.77225 39.5845 7.58662 41.6531L0.725191 45.1426C0.209801 45.4049 -0.0768974 45.9753 0.0183758 46.5499L2.12159 59.2506C2.2181 59.8332 2.68357 60.2819 3.26452 60.3521L11.0768 61.2976C11.9613 63.1803 13.0007 64.9903 14.1759 66.695L11.1051 73.9393C10.8767 74.4783 11.0245 75.1048 11.4694 75.4815L21.2038 83.7266C21.6491 84.1038 22.2859 84.1421 22.7718 83.8211L29.3624 79.4738C31.2402 80.3405 33.1874 81.0518 35.1677 81.5944L37.4302 89.1419C37.5984 89.7031 38.1108 90.087 38.6916 90.087H51.399C51.9797 90.087 52.4921 89.7032 52.6604 89.1419L54.9395 81.5394C55.0874 81.4981 55.2336 81.4521 55.3813 81.409C58.4153 83.5567 62.107 84.8191 66.0858 84.8191C69.7148 84.8191 73.1047 83.7685 75.9751 81.9544L82.7985 89.1371C84.3637 90.8086 87.2032 90.8202 88.7779 89.1575C90.4184 87.5632 90.4047 84.6926 88.7542 83.1101ZM50.0324 65.954C50.0324 64.107 50.3376 62.2957 50.9393 60.5708C53.197 54.0983 59.2838 49.7499 66.0858 49.7499C69.3029 49.7499 72.4062 50.7065 75.0605 52.5165C75.6634 52.9278 76.4829 52.7677 76.8902 52.1588C77.2975 51.5502 77.1389 50.7232 76.5358 50.3119C74.8861 49.187 73.087 48.3482 71.1993 47.8074C71.2901 46.9062 71.339 45.9964 71.339 45.0892C71.339 30.4683 59.5548 18.5732 45.0701 18.5732C42.033 18.5732 39.0558 19.0921 36.2212 20.1158C35.536 20.3632 35.1791 21.1245 35.4243 21.8164C35.6696 22.5082 36.4238 22.8684 37.109 22.6208C39.6578 21.7004 42.3364 21.2338 45.0703 21.2338C58.1017 21.2338 68.7035 31.9355 68.7035 45.0894C68.7035 45.8144 68.6671 46.5408 68.6026 47.2624C67.7733 47.1496 66.9332 47.0897 66.0858 47.0897C64.1039 47.0897 62.174 47.407 60.3532 48.0007C60.5306 47.0466 60.6208 46.074 60.6208 45.0894C60.6208 36.4343 53.6449 29.3927 45.0703 29.3927C36.4957 29.3927 29.5199 36.4343 29.5199 45.0894C29.5199 48.4508 30.5573 51.6564 32.5203 54.3596C32.9529 54.956 33.7811 55.0776 34.3621 54.646C34.949 54.2118 35.0763 53.3793 34.646 52.7868C33.0167 50.5428 32.1555 47.8812 32.1555 45.0894C32.1555 37.9011 37.9491 32.0531 45.0703 32.0531C52.1916 32.0531 57.9851 37.9011 57.9851 45.0894C57.9851 46.5413 57.7496 47.9608 57.2888 49.3174C53.9687 51.1077 51.2091 53.8921 49.4508 57.3544C48.0496 57.8647 46.5789 58.1257 45.0705 58.1257C42.889 58.1257 40.7336 57.5669 38.8375 56.5101C38.2003 56.1548 37.3985 56.3881 37.0468 57.0315C36.6951 57.6745 36.9262 58.484 37.5632 58.839C39.8486 60.1129 42.4445 60.7863 45.0705 60.7863C46.1317 60.7863 47.1776 60.6767 48.2013 60.4653C47.6677 62.2386 47.397 64.0811 47.397 65.9544C47.397 66.9241 47.4701 67.877 47.6105 68.8077C46.7685 68.8984 45.9188 68.9448 45.0705 68.9448C32.0392 68.9448 21.4373 58.2431 21.4373 45.0892C21.4373 37.1274 25.3516 29.7194 31.9082 25.2727C32.5124 24.8629 32.673 24.0366 32.2671 23.4267C31.8611 22.817 31.0423 22.6547 30.4383 23.0644C23.1518 28.006 18.8016 36.2396 18.8016 45.0892C18.8016 59.7101 30.5858 71.6052 45.0705 71.6052C46.115 71.6052 47.1623 71.5417 48.1973 71.4181C49.1221 74.4972 50.8073 77.2454 53.0316 79.4398C52.8455 79.6018 52.7033 79.8141 52.6296 80.0596L50.4213 87.4264H39.6702L37.4768 80.11C37.3425 79.6618 36.9846 79.3181 36.5347 79.2046C34.2369 78.6252 31.9806 77.8012 29.8285 76.7556C29.4128 76.5538 28.9227 76.5859 28.536 76.8407L22.149 81.0538L13.9132 74.078L16.89 67.0555C17.0725 66.6249 17.0173 66.1292 16.7445 65.7504C15.3489 63.8113 14.145 61.7149 13.1663 59.5195C12.9766 59.094 12.58 58.8 12.1212 58.7445L4.55844 57.8292L2.77814 47.0776L9.43408 43.6928C9.84892 43.4816 10.1231 43.0657 10.1557 42.5977C10.3218 40.2052 10.734 37.8181 11.3812 35.503C11.5069 35.0542 11.3903 34.5719 11.0743 34.2316L5.85711 28.617L11.2328 19.2186L18.6035 20.9585C19.0558 21.0658 19.5302 20.924 19.8528 20.5861C21.5069 18.8531 23.342 17.2896 25.3069 15.9396C25.6889 15.6771 25.9069 15.232 25.8812 14.7664L25.4607 7.08833L35.5636 3.37661L40.1017 9.4921C40.3801 9.86719 40.8336 10.0672 41.2958 10.0174C43.6697 9.76238 46.071 9.75529 48.433 9.99595C48.8921 10.0424 49.343 9.84308 49.6201 9.46994L54.1868 3.31578L64.2895 7.02768L63.8713 14.6643C63.8456 15.1328 64.0663 15.5803 64.4521 15.8419C66.4286 17.1832 68.2738 18.7325 69.9356 20.4501C70.2578 20.783 70.7291 20.9218 71.1782 20.8158L78.5945 19.0648L83.9701 28.4632L78.7861 34.0426C78.4683 34.3847 78.3525 34.8702 78.481 35.3211C79.143 37.6395 79.5689 40.0238 79.747 42.4077C79.7818 42.8736 80.056 43.2868 80.4696 43.4965L87.1853 46.9008L85.3886 57.6541L83.0089 57.9422C82.5283 56.9111 81.9549 55.9183 81.2865 54.9765C80.8623 54.3792 80.0389 54.2427 79.4474 54.6701C78.8559 55.098 78.72 55.9291 79.1439 56.5264C81.1033 59.2861 82.1388 62.5461 82.1388 65.9537C82.1388 74.8888 74.9374 82.158 66.0856 82.158C57.2338 82.158 50.0324 74.889 50.0324 65.954ZM80.3037 78.1831L81.873 79.8053L79.6366 81.9647L78.1235 80.3717C78.9078 79.7033 79.6373 78.9712 80.3037 78.1831ZM86.9107 87.2792C86.3263 87.8957 85.279 87.8954 84.6899 87.2842L81.4607 83.885L83.7145 81.7089L86.8766 84.9776C87.5179 85.5693 87.5376 86.6709 86.9107 87.2792Z" fill="url(#paint0_linear_126_2150)"/>
<defs>
<linearGradient id="paint0_linear_126_2150" x1="0.000240088" y1="71.9387" x2="86.0917" y2="15.6703" gradientUnits="userSpaceOnUse">
<stop stop-color="#234DAE"/>
<stop offset="1" stop-color="#347BCE"/>
</linearGradient>
</defs>
</svg>
