<svg width="90" height="82" viewBox="0 0 90 82" fill="none" xmlns="http://www.w3.org/2000/svg">
<path d="M87.5057 0.746094H2.48941C1.11674 0.746094 0 1.86266 0 3.23498V78.765C0 80.1373 1.11674 81.2539 2.48941 81.2539H41.9581C42.6862 81.2539 43.2765 80.6638 43.2765 79.9355C43.2765 79.2073 42.6862 78.6172 41.9581 78.6172H2.63672V21.8729L41.9581 21.8681C42.6862 21.868 43.2765 21.2779 43.2763 20.5496C43.2761 19.8213 42.6858 19.2312 41.9578 19.2314L2.63672 19.2362V3.38281H87.3633V19.2362L48.0422 19.2314C47.3142 19.2314 46.7239 19.8215 46.7239 20.5496C46.7239 21.2779 47.314 21.868 48.0421 21.8681L87.3633 21.8729V78.6172H48.1765C47.4485 78.6172 46.8582 79.2073 46.8582 79.9355C46.8582 80.6638 47.4485 81.2539 48.1765 81.2539H87.5057C88.881 81.2539 90 80.1373 90 78.765V3.23498C90 1.86266 88.881 0.746094 87.5057 0.746094V0.746094Z" fill="url(#paint0_linear_126_2178)"/>
<path d="M44.2449 62.9929C46.8375 62.9929 48.9465 60.8842 48.9465 58.2923C48.9465 56.1434 47.4963 54.3281 45.5234 53.7698V44.5174C47.476 43.9461 48.9068 42.1406 48.9068 40.0061C48.9068 37.4114 46.7976 35.3005 44.205 35.3005C42.9768 35.3005 41.8576 35.7747 41.0193 36.5492L33.0716 32.128C33.1264 31.8414 33.1561 31.5463 33.1561 31.2441C33.1561 28.6523 31.0469 26.5436 28.4545 26.5436C25.8593 26.5436 23.7478 28.6523 23.7478 31.2441C23.7478 31.547 23.7777 31.843 23.8328 32.1303L15.8868 36.5483C15.0477 35.7744 13.9278 35.3006 12.6989 35.3006C10.1063 35.3006 7.99707 37.4116 7.99707 40.0063C7.99707 42.1406 9.42775 43.9461 11.3805 44.5176V53.7941C9.45078 54.3798 8.04207 56.1745 8.04207 58.2925C8.04207 60.8844 10.1513 62.993 12.7437 62.993C13.9367 62.993 15.0266 62.5457 15.8564 61.8111L23.8328 66.2476C23.7777 66.5349 23.7478 66.8309 23.7478 67.1339C23.7478 69.7286 25.8593 71.8396 28.4545 71.8396C31.0471 71.8396 33.1561 69.7286 33.1561 67.1339C33.1561 66.8309 33.1262 66.5347 33.071 66.2473L41.0979 61.7814C41.9318 62.5339 43.0357 62.9929 44.2449 62.9929ZM46.3098 58.2923C46.3098 59.4303 45.3835 60.3561 44.2449 60.3561C43.1064 60.3561 42.1798 59.4301 42.1798 58.2923C42.1798 57.1545 43.1062 56.2285 44.2449 56.2285C45.3836 56.2285 46.3098 57.1543 46.3098 58.2923ZM44.205 37.9374C45.3437 37.9374 46.2701 38.8655 46.2701 40.0063C46.2701 41.1445 45.3437 42.0702 44.205 42.0702C43.0663 42.0702 42.1401 41.1443 42.1401 40.0063C42.1399 38.8655 43.0663 37.9374 44.205 37.9374ZM28.4543 29.1805C29.593 29.1805 30.5192 30.1065 30.5192 31.2443C30.5192 32.3822 29.5928 33.3082 28.4543 33.3082C27.313 33.3082 26.3843 32.3822 26.3843 31.2443C26.3843 30.1065 27.313 29.1805 28.4543 29.1805ZM28.4543 35.9449C29.7964 35.9449 31.0079 35.3789 31.8653 34.4743L39.6579 38.8092C39.5574 39.1916 39.5032 39.5927 39.5032 40.0063C39.5032 40.4183 39.557 40.8179 39.657 41.199L31.8634 45.5362C31.0061 44.6327 29.7953 44.0677 28.4543 44.0677C27.1117 44.0677 25.8993 44.633 25.0412 45.5367L17.2509 41.2013C17.3514 40.8195 17.4054 40.4192 17.4054 40.0063C17.4054 39.592 17.3511 39.1903 17.25 38.8073L25.0408 34.4755C25.8992 35.3794 27.1115 35.9449 28.4543 35.9449ZM28.4543 50.8321C27.313 50.8321 26.3843 49.9061 26.3843 48.7683C26.3843 47.6305 27.313 46.7045 28.4543 46.7045C29.593 46.7045 30.5192 47.6305 30.5192 48.7683C30.5192 49.9061 29.593 50.8321 28.4543 50.8321ZM10.6338 40.0063C10.6338 38.8657 11.5602 37.9374 12.6989 37.9374C13.8402 37.9374 14.7687 38.8655 14.7687 40.0063C14.7687 40.4034 14.6537 40.7734 14.4579 41.0886C14.4475 41.1053 14.4365 41.1211 14.4268 41.1385C14.4256 41.1406 14.4249 41.1427 14.4236 41.1448C14.0526 41.7019 13.4182 42.0703 12.6987 42.0703C11.5602 42.0702 10.6338 41.1443 10.6338 40.0063ZM12.7437 60.3561C11.605 60.3561 10.6788 59.4301 10.6788 58.2923C10.6788 57.1545 11.6052 56.2285 12.7437 56.2285C13.8822 56.2285 14.8088 57.1545 14.8088 58.2923C14.8088 59.4301 13.8822 60.3561 12.7437 60.3561ZM17.2653 59.5774C17.3817 59.1687 17.4453 58.7379 17.4453 58.2923C17.4453 56.1416 15.9927 54.3251 14.0172 53.7684V44.5179C14.723 44.3119 15.3607 43.9454 15.8874 43.4601L23.8328 47.8818C23.7777 48.1691 23.7478 48.4653 23.7478 48.7683C23.7478 50.9032 25.1807 52.709 27.1361 53.2799V62.6225C26.3265 62.8589 25.607 63.3068 25.0412 63.9025L17.2653 59.5774ZM28.4543 69.2027C27.313 69.2027 26.3843 68.2746 26.3843 67.1337C26.3843 65.9956 27.313 65.0699 28.4543 65.0699C29.593 65.0699 30.5192 65.9957 30.5192 67.1337C30.5194 68.2746 29.593 69.2027 28.4543 69.2027ZM29.7727 62.6227V53.2794C31.7253 52.7081 33.1559 50.9026 33.1559 48.7681C33.1559 48.4651 33.1261 48.1689 33.0709 47.8817L41.0185 43.4588C41.5446 43.9445 42.1814 44.3112 42.8865 44.5174V53.7925C40.9543 54.3766 39.5429 56.1726 39.5429 58.2923C39.5429 58.7226 39.6022 59.1392 39.7112 59.5356L31.8634 63.9018C31.2988 63.3068 30.5807 62.8591 29.7727 62.6227Z" fill="url(#paint1_linear_126_2178)"/>
<path d="M56.2733 39.7455H79.837C81.0283 39.7455 81.9975 38.7787 81.9975 37.5902V32.5045C81.9975 31.3134 81.0283 30.3444 79.837 30.3444H56.2733C55.0849 30.3444 54.1179 31.3134 54.1179 32.5045V37.5902C54.1179 38.7787 55.0849 39.7455 56.2733 39.7455ZM56.7546 32.9813H79.3608V37.1088H56.7546V32.9813Z" fill="url(#paint2_linear_126_2178)"/>
<path d="M54.1179 51.732C54.1179 52.9231 55.0849 53.8922 56.2733 53.8922H71.5955C72.7868 53.8922 73.756 52.9231 73.756 51.732V46.6461C73.756 45.4576 72.7868 44.4908 71.5955 44.4908H56.2733C55.0849 44.4908 54.1179 45.4576 54.1179 46.6461V51.732ZM56.7546 47.1276H71.1191V51.2553H56.7546V47.1276Z" fill="url(#paint3_linear_126_2178)"/>
<path d="M54.1179 65.8736C54.1179 67.0647 55.0849 68.0338 56.2733 68.0338H75.1333C76.3245 68.0338 77.2938 67.0647 77.2938 65.8736V60.7877C77.2938 59.5992 76.3245 58.6324 75.1333 58.6324H56.2733C55.0849 58.6324 54.1179 59.5992 54.1179 60.7877V65.8736ZM56.7546 61.2693H74.6569V65.397H56.7546V61.2693Z" fill="url(#paint4_linear_126_2178)"/>
<path d="M52.3847 11.0009C52.3847 10.2726 51.7944 9.6825 51.0663 9.6825H12.7935C12.0654 9.6825 11.4751 10.2726 11.4751 11.0009C11.4751 11.7291 12.0654 12.3192 12.7935 12.3192H51.0662C51.7944 12.3192 52.3847 11.7289 52.3847 11.0009Z" fill="url(#paint5_linear_126_2178)"/>
<path d="M62.0339 11.9381L62.0388 11.9332C62.5537 11.4182 62.5512 10.586 62.0363 10.0711C61.5215 9.55611 60.6842 9.55857 60.1694 10.0736C59.6545 10.5886 59.6545 11.4233 60.1694 11.9381C60.4267 12.1955 60.7642 12.3241 61.1015 12.3241C61.4388 12.3241 61.7765 12.1955 62.0339 11.9381Z" fill="url(#paint6_linear_126_2178)"/>
<path d="M68.6764 11.9381L68.6813 11.9332C69.1962 11.4182 69.1937 10.586 68.6789 10.0711C68.164 9.55611 67.3268 9.55857 66.8119 10.0736C66.2971 10.5886 66.2971 11.4233 66.8119 11.9381C67.0693 12.1955 67.4068 12.3241 67.7441 12.3241C68.0814 12.3241 68.4191 12.1955 68.6764 11.9381Z" fill="url(#paint7_linear_126_2178)"/>
<path d="M75.3236 11.9381L75.3286 11.9332C75.8434 11.4182 75.841 10.586 75.3261 10.0711C74.8112 9.55611 73.974 9.55857 73.4591 10.0736C72.9443 10.5886 72.9443 11.4233 73.4591 11.9381C73.7165 12.1955 74.054 12.3241 74.3913 12.3241C74.7286 12.3241 75.0663 12.1955 75.3236 11.9381Z" fill="url(#paint8_linear_126_2178)"/>
<defs>
<linearGradient id="paint0_linear_126_2178" x1="-4.05303e-06" y1="64.7418" x2="80.1042" y2="6.21359" gradientUnits="userSpaceOnUse">
<stop stop-color="#234DAE"/>
<stop offset="1" stop-color="#347BCE"/>
</linearGradient>
<linearGradient id="paint1_linear_126_2178" x1="7.99707" y1="62.5494" x2="49.4343" y2="38.0653" gradientUnits="userSpaceOnUse">
<stop stop-color="#234DAE"/>
<stop offset="1" stop-color="#347BCE"/>
</linearGradient>
<linearGradient id="paint2_linear_126_2178" x1="54.1179" y1="37.8173" x2="62.1193" y2="22.3086" gradientUnits="userSpaceOnUse">
<stop stop-color="#234DAE"/>
<stop offset="1" stop-color="#347BCE"/>
</linearGradient>
<linearGradient id="paint3_linear_126_2178" x1="54.1179" y1="51.964" x2="63.4791" y2="39.1835" gradientUnits="userSpaceOnUse">
<stop stop-color="#234DAE"/>
<stop offset="1" stop-color="#347BCE"/>
</linearGradient>
<linearGradient id="paint4_linear_126_2178" x1="54.1179" y1="66.1056" x2="62.9165" y2="51.9292" gradientUnits="userSpaceOnUse">
<stop stop-color="#234DAE"/>
<stop offset="1" stop-color="#347BCE"/>
</linearGradient>
<linearGradient id="paint5_linear_126_2178" x1="11.4751" y1="11.7784" x2="12.013" y2="6.32396" gradientUnits="userSpaceOnUse">
<stop stop-color="#234DAE"/>
<stop offset="1" stop-color="#347BCE"/>
</linearGradient>
<linearGradient id="paint6_linear_126_2178" x1="59.7832" y1="11.7831" x2="62.3076" y2="10.1316" gradientUnits="userSpaceOnUse">
<stop stop-color="#234DAE"/>
<stop offset="1" stop-color="#347BCE"/>
</linearGradient>
<linearGradient id="paint7_linear_126_2178" x1="66.4258" y1="11.7831" x2="68.9502" y2="10.1316" gradientUnits="userSpaceOnUse">
<stop stop-color="#234DAE"/>
<stop offset="1" stop-color="#347BCE"/>
</linearGradient>
<linearGradient id="paint8_linear_126_2178" x1="73.073" y1="11.7831" x2="75.5974" y2="10.1316" gradientUnits="userSpaceOnUse">
<stop stop-color="#234DAE"/>
<stop offset="1" stop-color="#347BCE"/>
</linearGradient>
</defs>
</svg>
