<svg width="28" height="28" viewBox="0 0 28 28" fill="none" xmlns="http://www.w3.org/2000/svg">
<path opacity="0.5" d="M22.7495 25.375H22.6008C5.40705 24.3862 2.9658 9.87875 2.62455 5.45125C2.59705 5.10701 2.63775 4.76072 2.74431 4.43223C2.85087 4.10375 3.02121 3.79952 3.24555 3.53697C3.46989 3.27443 3.74383 3.05873 4.05168 2.90223C4.35953 2.74574 4.69523 2.65153 5.03955 2.625H9.8608C10.2113 2.62466 10.5538 2.72957 10.844 2.92614C11.1341 3.12271 11.3586 3.40189 11.4883 3.7275L12.8183 7C12.9464 7.3181 12.9781 7.66682 12.9097 8.00283C12.8412 8.33884 12.6756 8.64734 12.4333 8.89L10.5695 10.7713C10.8607 12.4257 11.653 13.9507 12.8392 15.1401C14.0255 16.3295 15.5484 17.1258 17.202 17.4212L19.1008 15.54C19.3471 15.3004 19.6585 15.1386 19.9962 15.0748C20.3338 15.011 20.6828 15.048 20.9995 15.1813L24.2983 16.5025C24.619 16.6363 24.8926 16.8625 25.0843 17.1523C25.276 17.4422 25.377 17.7825 25.3745 18.13V22.75C25.3745 23.4462 25.098 24.1139 24.6057 24.6062C24.1134 25.0984 23.4457 25.375 22.7495 25.375ZM5.24954 4.375C5.01748 4.375 4.79492 4.46719 4.63083 4.63128C4.46673 4.79538 4.37454 5.01794 4.37454 5.25V5.32C4.77705 10.5 7.35829 22.75 22.697 23.625C22.812 23.6321 22.9272 23.6164 23.0361 23.5789C23.145 23.5414 23.2454 23.4827 23.3316 23.4063C23.4177 23.3299 23.488 23.2372 23.5383 23.1336C23.5885 23.03 23.6179 22.9175 23.6245 22.8025V18.13L20.3258 16.8087L17.8145 19.3025L17.3945 19.25C9.78204 18.2963 8.74954 10.6838 8.74954 10.605L8.69704 10.185L11.182 7.67375L9.86954 4.375H5.24954Z" fill="url(#paint0_linear_138_4794)"/>
<defs>
<linearGradient id="paint0_linear_138_4794" x1="2.61621" y1="20.709" x2="24.3814" y2="6.47823" gradientUnits="userSpaceOnUse">
<stop stop-color="#234DAE"/>
<stop offset="1" stop-color="#347BCE"/>
</linearGradient>
</defs>
</svg>
