<svg width="824" height="624" viewBox="0 0 824 624" fill="none" xmlns="http://www.w3.org/2000/svg">
<path d="M327.998 441.684C422.875 441.684 499.788 364.772 499.788 269.895C499.788 175.018 422.875 98.1055 327.998 98.1055C233.122 98.1055 156.209 175.018 156.209 269.895C156.209 364.772 233.122 441.684 327.998 441.684Z" fill="url(#paint0_linear_156_660)"/>
<path d="M252.211 395.79C252.211 395.79 227.79 400.842 208.842 414.316C208.842 414.316 192 437.474 188.211 457.263L165.053 447.579C165.053 447.579 134.316 461.895 133.053 490.526C133.053 490.526 109.053 513.263 111.158 530.526C111.158 530.526 162.106 563.79 184 570.105L182.737 623.158H300.632C300.632 623.158 298.106 538.526 296.842 528.421C295.579 518.316 296 458.105 293.474 442.105C290.948 426.105 290.106 412.632 278.316 405.053C266.948 397.895 254.316 397.053 252.211 395.79Z" fill="url(#paint1_linear_156_660)"/>
<path d="M557.474 387.368C557.474 387.368 595.369 388.632 615.158 374.737C634.948 360.842 634.106 346.526 634.948 330.105C635.79 313.263 627.369 287.158 627.369 287.158L634.106 281.263L642.948 287.579C642.948 287.579 656.842 283.789 666.106 278.737C675.369 273.684 675.369 273.684 675.369 273.684V268.211C675.369 268.211 678.316 267.368 679.158 269.474C679.158 269.474 687.158 296.421 689.263 319.579C691.369 342.737 694.737 376 669.474 413.474L616.421 559.158L618.948 623.158H479.158L473.685 536L479.579 405.895C479.579 405.895 485.053 396.632 505.685 390.737C505.685 390.737 514.527 389.053 520 389.053C525.895 389.053 533.053 386.947 533.053 386.947L555.369 398.737L556.211 387.368H557.474Z" fill="url(#paint2_linear_156_660)"/>
<path d="M375.159 371.79C375.159 371.79 351.58 368.421 313.685 424.421C275.369 480.842 288.843 508.211 288.843 508.211C288.843 508.211 292.211 527.579 325.475 522.947C325.475 522.947 325.054 547.79 323.369 569.263C321.264 590.737 316.632 623.158 316.632 623.158H479.159L473.685 536C473.685 536 496.843 531.369 498.106 501.474C498.948 471.579 487.159 427.369 484.632 418.948C482.106 410.105 473.685 385.263 448.001 377.263C422.317 369.263 386.106 368.421 375.159 371.79Z" fill="#343B43"/>
<path d="M256.419 219.369C248.419 211.369 235.366 211.369 226.945 219.369L218.945 227.369C210.945 235.369 210.945 248.421 218.945 256.842L277.472 315.369C285.472 323.369 298.524 323.369 306.945 315.369L426.945 197.895C434.945 189.895 434.945 176.842 426.945 168.421L418.945 160.421C410.945 152.421 397.893 152.421 389.472 160.421L291.787 255.158L256.419 219.369Z" fill="white"/>
<path d="M189.477 327.158L194.108 352.421C194.108 352.421 186.95 357.895 186.529 359.579C186.529 361.263 194.108 366.737 194.108 366.737C194.108 366.737 197.898 387.789 219.792 380.21L222.319 388.631L237.056 382.737C237.056 382.737 233.687 368.842 236.214 357.474C236.214 357.474 242.529 352.842 240.003 344.421C237.477 335.579 225.687 338.105 223.161 342.316C221.477 342.737 197.898 337.263 189.477 327.158Z" fill="white"/>
<path d="M133.477 490.948C133.477 490.948 118.74 478.737 113.687 470.316C108.635 461.895 103.582 459.369 99.7925 462.316C96.003 465.263 98.1083 472 100.635 475.369C103.161 478.316 109.898 485.895 104.424 488C104.424 488 103.161 489.684 99.3714 485.895C95.582 482.105 80.003 466.527 80.003 466.527C80.003 466.527 77.4767 470.316 77.4767 472C77.4767 472 73.6872 473.684 74.5293 480.421C75.3714 487.158 80.003 496.842 92.2135 504.421C104.424 512 112.845 516.632 113.687 520.421C113.266 519.579 121.266 499.79 133.477 490.948Z" fill="white"/>
<path d="M418.104 361.263L415.999 336C415.999 336 426.946 339.79 430.735 329.263C434.525 318.737 424.841 314.526 419.788 314.948C414.735 315.79 412.209 319.158 412.209 319.158C412.209 319.158 402.525 308.632 398.735 294.316C398.735 294.316 386.946 309.053 370.104 303.579C370.104 303.579 369.683 328.421 369.683 334.737C369.683 341.053 367.156 355.79 382.735 357.474V362.105L391.156 391.158L418.104 361.263Z" fill="white"/>
<path d="M375.577 446.316C375.577 446.316 368.841 437.895 357.893 435.368C346.946 432.842 338.525 434.947 336.841 438.737C336.841 438.737 319.998 441.684 322.946 453.474C322.946 453.474 329.262 450.947 339.367 453.895C349.472 456.842 356.63 464 356.63 464C356.63 464 366.735 450.947 375.577 446.316Z" fill="white"/>
<path d="M405.896 461.053C405.896 461.053 409.265 452.632 421.896 456.842C421.896 456.842 432.002 453.474 439.581 458.947C439.581 458.947 443.791 456.842 450.528 459.789C456.844 462.316 460.633 473.684 462.318 478.316C463.581 482.947 460.633 490.947 452.633 487.579C451.791 487.579 450.949 493.895 444.212 493.053C437.475 492.631 434.107 485.053 434.107 485.053C434.107 485.053 432.423 491.789 426.107 490.947C420.212 490.105 418.107 485.474 418.107 483.789C418.107 482.105 418.528 475.368 417.686 473.684C416.844 472 412.212 464.421 412.212 464.421L405.896 461.053Z" fill="white"/>
<path d="M560.844 312.842L566.318 342.316C566.318 342.316 570.949 362.526 554.949 363.368L557.476 387.368L556.212 399.158L533.897 386.947C533.897 386.947 541.055 384.421 542.739 375.158C544.423 365.474 541.897 359.579 536.423 355.368C530.949 351.158 527.581 349.052 527.581 349.052C527.581 349.052 515.791 353.263 513.265 343.158C510.739 333.052 520.002 330.947 525.055 331.789C525.055 331.789 534.739 324.631 537.686 316.631C540.633 308.631 542.318 299.789 542.318 299.789C542.318 299.789 557.055 308.21 560.844 312.842Z" fill="white"/>
<path d="M642.527 287.158C642.527 287.158 631.58 279.579 626.527 276.21C621.475 272.842 618.527 267.368 619.369 261.895C620.211 256.842 630.738 241.684 633.264 240.842C635.79 240 639.58 241.684 640.001 246.737C640.843 251.789 640.001 248.842 640.001 248.842C640.001 248.842 652.632 248.421 659.79 247.158C666.527 245.895 673.685 243.368 673.685 243.368C673.685 243.368 676.211 261.895 675.369 273.263C675.369 273.263 667.79 279.579 657.264 282.526C647.159 286.316 642.527 287.158 642.527 287.158Z" fill="white"/>
<path d="M156.632 451.79L135.58 437.895L122.527 445.895L107.369 443.79L125.474 432C125.474 432 116.632 430.737 112.001 433.263C107.369 435.79 99.369 442.947 99.369 442.947C99.369 442.947 93.4743 443.79 92.6322 447.579C91.7901 451.79 96.8427 456 105.264 457.263C113.264 458.526 124.211 458.947 124.211 458.947C124.211 458.947 128.422 467.369 138.527 471.579C138.527 471.579 146.106 461.053 148.632 458.947C150.737 457.263 156.632 451.79 156.632 451.79Z" fill="white"/>
<path d="M382.736 361.684L375.157 371.789L375.999 411.789L374.736 445.053L381.473 449.263L392.421 448.842L404.21 413.474L407.578 418.947L428.631 371.368L415.578 358.316L382.736 361.684Z" fill="white"/>
<path d="M391.156 390.737L381.472 405.895L382.735 418.105L375.998 430.737L375.156 445.474L381.472 449.263L392.419 448.842L394.525 442.105V439.158L392.419 418.105L400.419 407.579L391.156 390.737Z" fill="url(#paint3_linear_156_660)"/>
<path d="M428.63 317.474C428.63 317.474 434.946 312 433.261 300.211C431.577 288.421 429.472 281.263 406.314 283.368C406.314 283.368 397.051 272 383.156 275.789C369.261 279.579 364.63 287.579 363.367 294.316C362.103 301.474 369.682 313.263 369.682 313.263V303.158C369.682 303.158 388.209 307.79 399.156 293.895C399.156 293.895 406.314 314.105 412.63 318.737C412.209 319.158 417.261 310.737 428.63 317.474Z" fill="white"/>
<path d="M298.945 449.263C298.945 449.263 305.682 429.053 303.155 410.105C300.629 391.579 292.629 378.948 279.576 374.737C266.103 370.948 260.208 361.263 258.524 354.526C256.84 347.79 258.524 331.79 255.155 319.158C251.787 306.526 241.261 300.632 227.787 301.474C227.787 301.474 191.155 297.684 188.208 325.474C188.208 325.474 197.892 338.105 221.471 342.316C222.734 342.316 224.84 338.526 230.734 338.105C236.629 337.684 240.419 342.316 240.84 347.369C241.261 352 236.629 356.211 236.629 356.211C236.629 356.211 234.103 364.211 234.945 373.895C235.787 383.579 242.524 393.263 253.05 396.211C263.576 399.158 280.84 401.263 286.313 414.316C291.787 427.369 294.313 441.263 294.313 447.579C294.313 454.316 294.734 458.526 294.734 458.526L298.945 449.263Z" fill="#343B43"/>
<path d="M93.4707 453.474L98.1023 461.895L104.418 457.684C104.418 457.684 95.1549 453.474 94.3128 452.632C93.8918 451.789 93.4707 453.474 93.4707 453.474Z" fill="#343B43"/>
<path d="M122.106 446.737L144.001 433.263L138.528 424.842L107.791 445.053C107.37 444.632 118.738 447.158 122.106 446.737Z" fill="#343B43"/>
<path d="M208.844 576.842C208.844 576.842 207.581 553.684 230.739 546.948C253.897 540.211 263.581 555.369 263.581 555.369C263.581 555.369 250.95 571.369 236.213 574.316C221.476 577.263 208.844 576.842 208.844 576.842Z" fill="#343B43"/>
<path d="M99.3655 473.684L46.3128 420.21C46.3128 420.21 42.5234 417.684 40.4181 420.21C38.3128 422.737 40.4181 426.105 40.4181 426.105L101.471 487.579C101.471 487.579 103.997 487.579 105.681 485.895C107.365 484.632 105.681 481.263 105.26 480.421C104.839 480 99.3655 473.684 99.3655 473.684Z" fill="#343B43"/>
<path d="M236.631 382.737C236.631 382.737 218.947 388.632 215.579 393.684C212.21 398.737 208.421 414.737 208.421 414.737C208.421 414.737 232.421 398.316 251.789 396.21C252.21 395.789 240.842 393.263 236.631 382.737Z" fill="white"/>
<path d="M220.213 379.368L224.423 377.263L221.897 385.263L220.213 379.368Z" fill="#B5B5B5"/>
<path d="M492.633 396.211C492.633 396.211 482.107 389.895 485.896 374.737C490.107 359.579 506.107 361.263 506.107 361.263L491.791 320.421C491.791 320.421 491.791 293.053 522.528 291.368C522.528 291.368 533.475 286.316 543.159 288C552.844 289.263 559.58 298.105 561.686 309.474C561.686 310.737 527.159 318.737 527.159 318.737C527.159 318.737 523.791 311.158 519.159 309.474C519.159 309.474 525.054 322.947 525.054 331.789C525.054 331.789 513.686 329.263 513.265 339.789C512.844 350.316 522.528 351.158 527.159 348.632C527.159 348.632 542.317 354.947 543.159 369.684C544.001 384 530.528 387.789 530.528 387.789C530.528 387.789 515.791 387.368 506.949 390.316C498.107 393.263 492.633 396.211 492.633 396.211Z" fill="#343B43"/>
<path d="M554.95 363.368L558.319 387.368L571.792 386.947C571.792 386.947 575.161 378.105 573.055 371.368C570.95 365.052 562.95 360.421 562.95 360.421C562.95 360.421 558.319 363.789 554.95 363.368Z" fill="url(#paint4_linear_156_660)"/>
<path d="M767.497 120.421C767.497 186.652 713.807 240.342 647.576 240.342C581.346 240.342 527.655 186.652 527.655 120.421C527.655 54.1905 581.346 0.5 647.576 0.5C713.807 0.5 767.497 54.1905 767.497 120.421Z" stroke="#343B43"/>
<path d="M710.316 158.316C707.368 178.105 691.789 192.842 668.21 197.053C665.684 197.474 663.158 198.316 660.21 198.737C660.21 205.895 660.21 213.053 660.21 220.632C653.474 220.632 647.158 220.632 640.421 220.632C640.421 213.895 640.421 206.737 640.421 198.737C611.789 195.368 595.368 180.632 589.474 154.947C600 152.421 610.105 149.895 620.632 147.368C621.474 149.474 622.316 151.579 622.737 153.263C628.21 168.842 645.474 176.421 661.895 170.105C669.474 167.158 672.842 161.684 673.684 154.526C674.105 148.211 671.158 142.737 664.421 139.79C656 136.421 647.158 133.053 638.316 130.105C633.684 128.421 629.053 126.737 624.421 125.053C602.105 115.368 592 99.3685 594.947 77.0527C597.895 55.579 611.368 42.1053 635.368 37.4738C636.21 37.4738 637.474 37.0527 638.737 36.6317C638.737 31.158 638.737 25.6843 638.737 19.7896C645.895 19.7896 658.526 19.7896 658.526 19.7896L658.947 36.2106C658.947 36.2106 663.158 36.6317 674.526 40.8422C690.526 46.3159 699.789 57.6843 704.842 73.2632C695.579 76.6316 686.316 80.4211 677.053 83.7895C673.684 78.7369 670.737 73.6843 666.947 69.0527C661.053 62.3159 652.631 60.6317 643.789 62.7369C636.631 64.4211 632.421 69.0527 631.158 75.7895C629.895 82.9474 632.421 88.8422 639.579 91.7895C646.737 95.158 654.316 97.6843 661.895 100.632C668.21 103.158 674.526 105.263 680.421 107.79C704.421 118.316 713.684 134.316 710.316 158.316Z" fill="url(#paint5_linear_156_660)"/>
<path d="M630.738 560.421C673.526 560.421 708.212 525.735 708.212 482.948C708.212 440.16 673.526 405.474 630.738 405.474C587.951 405.474 553.265 440.16 553.265 482.948C553.265 525.735 587.951 560.421 630.738 560.421Z" fill="white"/>
<path d="M543.161 476.632H620.635L621.056 399.158C621.056 399.158 590.74 397.053 566.319 421.474C542.319 446.316 543.161 476.632 543.161 476.632Z" fill="#343B43"/>
<path d="M538.95 495.158C538.95 495.158 542.739 488 544.844 481.684C547.371 475.368 548.213 468.632 554.528 468.21C554.528 468.21 553.686 481.684 553.686 485.053C553.686 488.421 552.844 493.053 557.476 492.21C561.686 491.368 567.581 489.684 573.897 483.368C580.213 477.053 585.265 469.474 590.739 472C596.213 474.526 593.265 479.158 593.265 479.158C593.265 479.158 596.634 479.579 598.739 482.526C601.265 485.474 597.897 488.421 597.897 488.421C597.897 488.421 601.686 489.684 601.686 493.474C601.686 496.842 598.318 501.895 590.318 509.053C582.739 516.21 570.107 527.158 561.686 528.842C561.686 528.842 555.792 517.895 550.318 510.316C545.265 502.737 538.107 495.579 538.107 495.579H538.95V495.158Z" fill="white"/>
<path d="M563.792 535.158C563.792 535.158 542.318 582.316 478.318 602.105L477.055 590.316C477.476 590.737 518.739 584.421 563.792 535.158Z" fill="#343B43"/>
<path d="M264 555.369C264 555.369 246.737 595.369 183.158 589.474L184 571.369C184 571.369 205.474 578.948 223.579 576.842C241.685 574.737 259.369 564.211 264 555.369Z" fill="#343B43"/>
<path d="M642.529 287.579L634.108 281.263C634.108 281.263 626.108 285.053 627.372 288C628.635 290.947 642.529 287.579 642.529 287.579Z" fill="#343B43"/>
<path d="M675.369 268.632V274.526C675.369 274.526 678.317 272 678.317 269.895C678.317 267.79 675.369 268.632 675.369 268.632Z" fill="#343B43"/>
<path d="M221.893 301.474C211.367 301.895 190.314 304.842 187.788 325.474C187.788 325.474 191.578 330.105 199.999 335.158C200.42 335.158 189.893 308.21 221.893 301.474Z" fill="white"/>
<path d="M263.16 398.737C230.318 391.158 238.739 354.105 238.739 354.105C237.476 355.789 236.633 356.21 236.633 356.21C236.633 356.21 234.107 364.211 234.949 373.895C235.791 383.579 242.528 392.842 253.054 396.21C257.686 397.474 263.16 398.737 268.633 400.421C266.949 399.579 265.265 399.158 263.16 398.737Z" fill="white"/>
<path d="M543.577 288C533.893 286.737 522.945 291.368 522.945 291.368C551.998 289.263 552.419 312.842 552.419 312.842L562.103 310.737C559.998 298.105 552.84 289.263 543.577 288Z" fill="white"/>
<path d="M543.578 370.105C542.736 355.79 527.578 349.053 527.578 349.053C527.578 349.053 538.525 355.369 536.42 371.369C534.736 383.158 525.051 387.369 520.42 388.632C526.315 388.211 531.367 388.211 531.367 388.211C531.367 388.211 543.999 384.421 543.578 370.105Z" fill="white"/>
<path d="M563.789 386.947C563.789 387.368 570.947 386.947 570.947 386.947C570.947 386.947 574.316 378.105 572.21 371.368C570.105 365.052 562.105 360.421 562.105 360.421C562.105 360.421 561.263 361.263 560 361.684C562.947 364.21 570.947 371.368 563.789 386.947Z" fill="white"/>
<path d="M392.419 394.948L386.104 406.316L387.788 418.526L375.998 447.158L375.156 431.158L382.314 417.684L381.051 405.053L391.156 391.579L392.419 394.948Z" fill="white"/>
<path d="M506.106 362.526C497.264 335.579 490.948 321.684 490.948 321.684C490.527 317.053 492.632 307.368 499.369 299.79C505.264 293.474 513.264 290.105 522.527 290.947C513.685 292.211 506.106 295.158 500.632 301.053C494.316 307.79 492.211 316.632 492.211 320.842C493.053 322.526 498.527 336 506.527 361.263C506.527 362.526 506.106 362.526 506.106 362.526Z" fill="#343B43"/>
<path d="M543.998 364.632C543.156 364.632 542.735 364.632 541.893 364.632C544.84 362.947 549.472 362.947 552.419 362.526C555.366 362.105 557.472 361.684 559.577 360.842C562.524 359.158 564.208 356.632 565.05 352.421C565.893 345.684 564.629 338.526 563.366 331.789C562.103 325.895 559.156 311.579 559.156 311.579C560.84 311.158 564.208 325.474 565.05 330.526C566.314 338.526 567.998 345.684 566.735 352.842C565.893 357.474 563.787 360.842 560.419 362.526C557.893 363.789 554.524 364.21 552.84 364.632C550.314 364.632 546.945 364.632 543.998 364.632Z" fill="#343B43"/>
<path d="M539.367 326.737C540.209 326.316 540.63 326.737 541.051 329.263C541.893 332.21 541.051 332.631 540.63 332.631C539.788 332.631 539.367 331.789 538.946 330.105C538.524 328 538.524 327.158 539.367 326.737Z" fill="#343B43"/>
<path d="M560 322.526C560.842 322.105 561.264 322.526 562.106 325.052C562.948 328 562.106 328.421 561.685 328.421C560.842 328.421 560.421 327.579 560 325.894C559.158 324.21 558.737 322.947 560 322.526Z" fill="#343B43"/>
<path d="M555.363 317.052C558.732 313.684 560.837 314.526 562.1 315.368C559.995 316.21 558.311 315.789 555.363 317.052Z" fill="#343B43"/>
<path d="M535.577 322.105C538.103 317.053 543.156 317.474 543.156 317.474C542.735 319.158 538.525 318.737 535.998 321.684C535.998 322.105 535.577 322.105 535.577 322.105Z" fill="#343B43"/>
<path d="M522.523 351.158C517.47 351.158 512.839 347.368 512.418 341.895C511.997 336.421 515.786 331.368 521.681 330.526C523.786 330.526 525.891 330.526 527.576 331.79C525.049 332.632 523.365 332.211 521.681 332.211C517.049 332.632 513.681 336.842 514.102 341.474C514.523 346.105 518.733 349.474 523.365 349.053C525.049 349.053 526.312 348.211 527.576 347.369C527.154 349.895 525.47 350.737 523.365 350.737C522.944 351.158 522.944 351.158 522.523 351.158Z" fill="#343B43"/>
<path d="M521.262 346.526C520.42 344.842 525.051 340.21 525.051 340.21L518.314 336.842C519.157 335.158 526.735 339.368 526.735 339.368C527.156 340.631 521.683 346.526 521.683 346.526H521.262Z" fill="#343B43"/>
<path d="M556.209 400C555.788 400 533.472 387.79 533.472 387.79C534.314 386.105 555.366 397.474 555.366 397.474L557.051 387.368L553.682 363.369C555.366 362.947 558.735 386.947 558.735 386.947C558.735 387.368 557.051 398.737 557.051 398.737C556.63 400 556.209 400 556.209 400Z" fill="#343B43"/>
<path d="M492.629 397.053C482.103 389.053 482.524 378.947 486.313 371.789C490.524 364.211 499.787 358.737 508.208 361.684C500.208 360.421 491.366 365.895 487.576 372.632C482.945 380.632 485.05 389.053 492.629 395.368C493.05 397.053 493.05 397.053 492.629 397.053Z" fill="#343B43"/>
<path d="M571.364 387.789C573.048 380.211 573.048 374.737 570.943 370.105C567.996 363.789 561.68 361.263 561.68 361.263C562.522 359.579 569.259 362.105 572.627 369.263C574.732 374.316 574.732 380.211 572.206 386.947C571.785 387.368 571.785 387.789 571.364 387.789Z" fill="#343B43"/>
<path d="M527.995 389.474C528.416 387.789 541.469 386.947 542.311 371.368C543.153 355.789 526.311 349.895 525.89 349.895C526.732 348.21 544.837 354.526 543.995 371.789C543.153 389.053 528.416 389.474 527.995 389.474Z" fill="#343B43"/>
<path d="M558.732 341.895C559.153 339.368 560.838 336.421 560.838 334.737C559.996 333.474 558.311 334.737 557.469 335.158C556.627 335.579 555.785 336 555.364 336C554.522 334.737 551.995 326.316 551.153 324.632C553.68 327.158 555.364 332.211 555.785 333.895C557.89 332.632 559.996 331.368 561.259 332.632C561.68 333.053 562.101 333.474 562.101 334.737C562.101 337.263 559.996 340.632 558.732 341.895C559.153 341.895 559.153 341.895 558.732 341.895Z" fill="#343B43"/>
<path d="M551.155 349.895C550.313 349.895 549.471 349.895 548.628 349.474C545.681 348.21 544.839 344.421 544.418 344.421C546.102 344 546.944 346.947 549.049 347.789C550.313 348.632 551.997 348.21 554.102 347.368C553.681 349.474 552.418 349.895 551.155 349.895Z" fill="#343B43"/>
<path d="M122.524 447.158C122.103 445.474 142.314 432.421 142.314 432.421L138.103 425.684L108.208 444.631C107.366 442.947 138.103 423.579 138.103 423.579C139.366 424 144.84 432.421 144.84 432.421C144.419 433.684 123.366 447.158 123.366 447.158C122.945 447.158 122.945 447.158 122.524 447.158Z" fill="#343B43"/>
<path d="M143.578 434.105C143.157 432.421 146.525 430.316 146.525 430.316L142.315 423.579L138.946 425.263C138.104 423.579 141.894 421.053 141.894 421.053C143.157 421.474 148.631 429.895 148.631 429.895C148.209 431.158 144.42 433.684 144.42 433.684C143.999 433.684 143.999 434.105 143.578 434.105Z" fill="#343B43"/>
<path d="M89.6865 464C89.6865 462.316 97.6865 461.053 97.6865 461.053L104.423 456.842C105.265 458.526 98.5286 462.737 98.5286 462.737C98.1076 463.158 89.6865 464 89.6865 464Z" fill="#343B43"/>
<path d="M87.5793 461.895C86.7372 460.632 92.2109 452.211 92.2109 452.211C93.8951 453.053 88.0003 461.474 88.0003 461.474C88.0003 461.895 88.0003 461.895 87.5793 461.895Z" fill="#343B43"/>
<path d="M120.001 460.21C103.58 460.21 96.8434 456 94.3171 453.474C92.6328 451.789 91.7907 450.105 92.2118 448.421C92.6328 442.526 101.054 442.105 101.475 442.105C101.896 442.105 122.528 447.579 130.528 445.053C122.949 449.263 103.159 444.632 101.475 443.789C100.633 443.789 94.3171 444.21 94.3171 448C94.3171 449.263 94.7381 450.526 96.0013 451.789C98.1065 453.895 104.843 458.526 125.054 457.684C122.949 460.21 121.264 460.21 120.001 460.21Z" fill="#343B43"/>
<path d="M99.3683 444.21C98.9473 442.526 106.105 434.947 111.579 432.842C117.053 430.316 124.631 432 125.053 432C124.631 433.684 117.053 432.421 112.421 434.526C107.368 436.631 100.21 443.789 100.21 444.21C99.7894 444.21 99.7894 444.21 99.3683 444.21Z" fill="#343B43"/>
<path d="M156.629 452.211C156.208 452.211 135.576 438.737 135.576 438.737C136.418 437.053 157.05 450.527 157.05 450.527C157.05 452.211 156.629 452.211 156.629 452.211Z" fill="#343B43"/>
<path d="M138.945 473.263C129.682 469.052 124.63 464.842 122.945 459.789C126.314 463.579 130.945 467.789 139.366 471.579C139.787 472.842 139.366 473.263 138.945 473.263Z" fill="#343B43"/>
<path d="M198.314 359.158C197.05 359.158 195.787 358.316 195.366 357.053L192.419 344.421C191.998 342.737 192.84 341.053 194.524 340.632C195.366 340.632 196.208 340.632 196.629 341.053C197.471 341.474 197.893 342.316 197.893 342.737L200.84 355.368C201.261 357.053 200.419 358.737 198.735 359.158C198.735 358.737 198.314 359.158 198.314 359.158ZM195.366 342.316C194.524 342.316 194.103 343.158 194.103 344L197.05 356.632C197.05 357.474 197.892 357.895 198.314 357.474C199.156 357.474 199.156 356.632 199.156 356.211L196.208 343.579C195.787 342.316 195.366 342.316 195.366 342.316Z" fill="#343B43"/>
<path d="M198.739 349.895C198.318 348.21 222.318 341.895 222.318 341.895C222.739 344 199.16 349.895 198.739 349.895Z" fill="#343B43"/>
<path d="M182.738 622.737C181.474 607.158 181.896 586.105 182.738 571.368C183.58 586.105 183.58 606.737 183.58 621.894C182.738 622.737 182.738 622.737 182.738 622.737Z" fill="#343B43"/>
<path d="M183.997 504.842C183.155 500.632 183.576 498.105 183.576 495.158C185.681 460.632 186.523 445.053 207.997 414.316C209.26 413.474 233.681 397.053 252.208 395.368C234.944 398.737 211.365 414.316 209.26 415.579C188.208 445.895 187.365 461.474 185.26 495.579C185.26 498.526 184.839 501.474 184.839 504.421C184.839 504.421 184.418 504.842 183.997 504.842Z" fill="#343B43"/>
<path d="M300.629 622.737C299.787 621.053 297.26 560.842 295.576 519.158C299.366 560.842 301.471 621.474 301.471 621.895C300.629 622.737 300.629 622.737 300.629 622.737Z" fill="#343B43"/>
<path d="M217.682 578.105C198.314 578.105 179.787 570.105 163.787 562.526C145.682 553.684 128.419 542.737 111.577 531.79C110.735 530.526 109.051 519.579 122.103 501.474C134.314 485.474 143.998 485.474 144.84 485.474C145.261 485.474 147.366 486.316 147.366 486.316C166.314 494.737 185.261 503.158 204.209 511.579C211.787 514.948 216.84 514.105 219.787 509.053C221.893 505.684 222.735 501.053 223.156 497.263L223.998 489.684C225.682 475.79 227.787 461.474 229.893 447.579C229.472 461.895 227.787 476.211 226.103 489.684L225.261 497.263C224.84 501.474 223.998 506.105 221.472 509.895C217.682 515.369 211.787 516.632 203.366 512.842C184.419 504.421 165.472 496 146.524 487.579L144.84 486.737C143.577 486.737 134.735 488 123.787 501.895C112.419 517.053 112.419 527.158 112.419 529.263C129.261 539.79 146.524 550.737 164.63 560C181.051 568 200.84 576.421 220.63 575.579C251.787 574.316 272.84 547.79 279.577 522.105C282.524 510.737 285.472 497.684 285.472 497.684C287.156 498.105 284.209 511.158 281.261 522.526C274.103 548.632 252.63 575.579 220.63 577.263C219.787 578.105 218.524 578.105 217.682 578.105Z" fill="#343B43"/>
<path d="M133.475 491.789C132.633 490.526 130.949 480.842 144.002 463.158C156.212 447.158 165.896 447.158 166.739 447.158C167.16 447.158 188.633 456.842 188.633 456.842C187.791 458.526 166.317 448.842 166.317 448.842C165.054 448.842 156.212 450.105 145.265 464C132.633 480.842 133.896 490.526 133.896 490.526C133.475 491.789 133.475 491.789 133.475 491.789Z" fill="#343B43"/>
<path d="M196.629 339.368C197.471 336.421 200.839 334.316 205.05 336.421C199.997 335.579 197.05 338.947 197.05 338.947C197.05 339.368 197.05 339.368 196.629 339.368Z" fill="#343B43"/>
<path d="M298.528 452.211C309.054 415.579 301.475 385.264 279.581 376C257.686 366.737 257.265 357.474 256.844 342.737C256.844 337.685 256.423 331.79 255.16 324.632C250.949 298.948 228.633 302.316 227.791 302.316C224.844 301.895 222.318 302.316 218.528 302.737C199.16 305.264 189.897 312 189.054 324.632C188.212 311.158 197.897 303.579 218.107 301.053C221.475 300.632 224.423 300.211 227.37 300.632C228.212 300.632 234.107 299.79 240.423 301.895C246.739 304 254.739 309.895 256.844 324.211C258.107 331.369 258.107 337.264 258.528 342.316C258.949 357.053 259.37 365.053 280.423 373.895C303.16 383.579 311.16 414.737 299.37 451.369C299.37 451.79 298.949 452.211 298.528 452.211Z" fill="#343B43"/>
<path d="M210.104 382.316C207.577 382.316 205.051 381.895 202.946 380.631C195.788 376.842 193.683 368.421 193.683 366.316C191.156 364.631 185.683 361.263 185.683 359.158C185.683 357.052 190.314 353.263 193.262 351.579L189.051 327.579C190.735 327.158 194.946 352 194.946 352C190.735 355.368 187.367 358.316 187.367 359.158C187.367 360 190.735 362.526 194.946 365.052C195.367 365.895 197.051 375.158 203.788 378.947C208.841 381.473 215.156 380.631 223.156 376.421C218.946 381.052 214.314 382.316 210.104 382.316Z" fill="#343B43"/>
<path d="M202.106 344.842C201.264 344.842 200.843 345.263 201.685 347.79C202.527 350.737 203.369 350.737 203.79 350.737C204.211 350.316 204.632 349.474 204.211 347.369C203.369 345.684 202.948 344.842 202.106 344.842Z" fill="#343B43"/>
<path d="M197.475 372.631C198.317 370.947 200.001 370.526 200.843 369.684C202.527 368 202.527 365.052 202.527 365.052C204.211 365.052 204.633 368.842 202.106 370.947C200.843 372.21 199.159 372.631 197.475 372.631Z" fill="#343B43"/>
<path d="M230.739 358.737C229.476 358.737 228.633 358.737 227.37 358.316C229.476 357.053 231.581 357.053 233.265 356.631C235.37 355.789 237.476 354.526 238.318 352.421C239.581 350.316 239.581 347.789 238.739 345.684C237.897 343.579 236.633 341.474 234.528 340.632C232.423 339.368 229.897 339.368 227.791 340.21C224.844 341.053 222.739 343.579 221.897 346.526C221.055 342.316 223.581 339.789 227.37 338.526C229.897 337.684 232.844 338.105 235.37 339.368C237.897 340.631 239.581 342.737 240.423 345.684C241.265 348.21 240.844 351.158 239.581 353.684C238.318 356.21 236.212 357.895 233.265 358.737C233.265 358.737 232.002 358.737 230.739 358.737Z" fill="#343B43"/>
<path d="M234.529 352.421C234.108 352.421 226.529 350.316 226.529 350.316C226.108 349.052 231.16 341.895 231.16 341.895C232.424 343.158 228.213 348.631 228.213 348.631L234.95 350.316C235.371 352.421 234.95 352.421 234.529 352.421Z" fill="#343B43"/>
<path d="M208.842 415.579C208 414.316 208.842 402.526 214.316 394.526C218.105 388.631 231.158 383.579 236.21 381.895C226.105 387.368 218.105 392 215.579 395.789C210.526 403.368 209.684 414.737 209.684 415.158C209.684 415.158 209.263 415.579 208.842 415.579Z" fill="#343B43"/>
<path d="M294.738 460.631C293.896 441.684 290.948 425.684 288.422 419.368C286.317 415.158 284.212 411.368 281.264 408.421C276.212 403.368 269.054 401.684 261.896 399.579C256.843 398.316 251.369 397.052 247.159 394.105C234.527 386.947 232.422 370.105 235.79 356.631C234.106 370.105 236.212 386.105 248.001 392.842C252.212 395.368 257.685 396.631 262.317 397.895C269.475 399.579 277.054 401.684 282.527 407.158C285.475 410.105 288.422 413.895 290.106 418.526C293.054 424.842 296.001 441.263 296.001 459.789C295.58 460.21 295.159 460.631 294.738 460.631Z" fill="#343B43"/>
<path d="M222.737 343.158C196.631 338.947 187.368 326.316 187.368 325.895C189.052 325.053 197.894 337.263 223.158 341.474C223.579 343.158 223.579 343.158 222.737 343.158Z" fill="#343B43"/>
<path d="M221.896 389.895C221.054 389.052 218.527 379.789 218.527 379.789C220.212 379.368 222.738 388.631 222.738 388.631C222.317 389.895 222.317 389.895 221.896 389.895Z" fill="#343B43"/>
<path d="M133.477 491.789C133.056 491.368 131.371 490.526 123.792 483.368C120.845 480.421 118.319 477.895 115.792 474.947C114.95 473.684 113.687 472.421 112.845 470.737C111.582 468.632 109.898 466.947 108.635 464.842C108.213 464.421 107.792 463.579 106.95 463.158C106.108 462.316 105.266 461.474 104.003 461.053C102.74 460.632 101.477 461.053 100.213 461.474C98.9503 462.316 98.1082 463.579 98.1082 465.263C98.1082 467.368 99.3714 469.895 100.635 472C101.477 473.263 101.898 474.105 102.74 475.368C103.582 476.632 104.424 477.895 105.266 479.158C106.529 480.842 108.635 484.211 104.424 487.579C103.582 488.421 101.898 488.842 100.213 487.579C102.319 486.737 103.161 486.316 103.582 486.316C106.529 484.21 105.266 482.105 104.003 480.842C102.74 479.158 101.898 477.895 101.056 476.632C100.213 475.368 99.3714 474.526 98.9503 473.263C97.6871 471.158 96.0029 468.21 96.0029 465.684C96.0029 463.579 97.2661 461.895 98.9503 460.632C100.635 459.368 102.74 459.368 104.424 459.789C106.108 460.21 106.95 461.474 107.792 461.895C108.213 462.316 109.056 463.158 109.477 463.579C111.161 465.263 112.424 467.368 114.108 469.474C114.95 470.737 115.792 472 117.056 473.263C119.161 475.789 121.687 478.737 124.635 481.263C132.213 488 133.477 489.263 133.477 489.263C133.898 491.789 133.898 491.789 133.477 491.789Z" fill="#343B43"/>
<path d="M91.7903 493.895C74.9482 480.842 74.1061 473.684 78.3166 466.526C77.0535 472.842 75.7903 479.158 92.6324 492.632C92.2114 493.474 92.2114 493.895 91.7903 493.895Z" fill="#343B43"/>
<path d="M113.263 520.842C110.736 516.632 107.789 514.948 102.736 512C100.631 510.737 98.5258 509.895 96.4205 508.211C86.7363 501.895 78.7363 493.474 75.3679 485.895C70.7363 474.527 77.4731 469.053 77.4731 468.632C78.3152 470.316 72.8416 474.948 77.0521 485.053C79.9995 492.211 87.9995 500.632 97.2626 506.527C99.7889 508.211 101.894 509.053 103.578 510.316C108.631 513.263 111.999 514.948 114.105 519.579C113.263 520.421 113.263 520.842 113.263 520.842Z" fill="#343B43"/>
<path d="M209.265 577.263C206.738 563.369 216.422 550.316 231.159 546.105C243.791 542.316 257.265 545.684 264.422 554.948C256.422 547.79 243.37 544.421 231.58 548.211C217.686 552.421 208.422 564.632 210.107 576.842C209.265 577.263 209.265 577.263 209.265 577.263Z" fill="#343B43"/>
<path d="M631.16 483.79H599.16C599.16 482.105 630.318 482.105 630.318 482.105V405.474C632.002 405.474 632.002 482.947 632.002 482.947C632.002 483.369 631.581 483.79 631.16 483.79Z" fill="#343B43"/>
<path d="M573.895 483.789H553.685C553.685 482.105 573.895 482.105 573.895 482.105C574.737 483.368 574.316 483.789 573.895 483.789Z" fill="#343B43"/>
<path d="M683.374 541.053C698.532 525.053 707.795 504.421 707.795 482.947C707.795 440.842 673.268 406.316 631.163 406.316C594.953 406.316 563.374 432 556.216 467.368C561.69 430.737 594.111 404.21 631.163 404.21C674.532 404.21 709.479 439.158 709.479 482.526C709.479 504.421 700.216 525.474 683.795 540.211C683.795 540.632 683.374 541.053 683.374 541.053Z" fill="#343B43"/>
<path d="M554.108 491.368C553.266 490.526 552.845 485.895 552.845 482.947C552.845 477.474 553.266 472.421 554.529 467.368C555.371 472.842 554.95 477.895 554.95 482.947C554.95 485.895 555.371 490.526 555.371 490.526C554.108 491.368 554.108 491.368 554.108 491.368Z" fill="#343B43"/>
<path d="M631.163 561.263C604.637 561.263 581.479 549.053 566.742 527.579C582.321 547.369 605.479 559.579 631.163 559.579C635.795 559.579 640.005 559.158 644.216 558.316C640.426 560.842 635.795 561.263 631.163 561.263Z" fill="#343B43"/>
<path d="M648.421 229.474H628.631C627.789 228.632 627.789 207.579 627.789 207.579C599.579 204.211 583.158 189.474 576.842 162.947C577.684 161.684 608.842 154.526 608.842 154.526C609.684 154.947 610.526 157.053 610.526 157.053C610.947 158.316 611.789 160 612.21 161.263C614.737 168.421 619.789 173.895 626.526 177.263C634.105 180.632 642.526 181.053 650.526 178.105C657.263 175.579 661.052 170.526 661.473 163.368C661.894 157.053 658.947 152 653.052 149.474C647.158 146.947 640.842 144.421 634.526 142.316C632 141.474 629.473 140.632 626.947 139.368C625.263 138.947 623.579 138.105 622.316 137.684C619.368 136.421 616.421 135.579 613.473 134.316C590.737 124.632 580.631 108.211 583.579 85.4737C586.526 63.5789 600.421 50.1053 624.842 45.0526C625.263 45.0526 626.105 44.6316 626.947 44.6316C627.789 44.2105 627.789 28.2105 627.789 28.2105C628.631 27.3684 648.421 27.3684 648.421 27.3684C649.263 28.2105 649.684 44.2105 649.684 44.2105C651.368 44.6316 656 45.4737 664.842 48.421C680 53.8947 690.105 64.421 695.579 81.2631C695.158 82.5263 667.368 93.0526 667.368 93.0526C665.263 90.9474 664 89.6842 663.158 88C661.052 84.6316 658.947 81.2631 656.421 78.3158C650.947 72 642.947 69.8947 634.105 72C627.368 73.6842 623.158 77.8947 621.894 84.6316C620.631 91.7895 623.158 96.8421 629.894 99.7895C634.947 101.895 640.421 104 645.894 106.105C648 106.947 650.105 107.789 652.21 108.632C654.315 109.474 656.421 110.316 658.526 111.158C662.737 112.842 666.947 114.105 670.737 116.211C694.316 126.737 703.579 142.737 700.21 167.158C697.263 187.368 680.842 202.526 657.263 206.737C655.579 207.158 653.894 207.579 651.789 208L649.684 208.421V229.474C649.263 229.053 648.842 229.474 648.421 229.474ZM629.473 227.789H647.579V206.737C648.421 205.895 650.947 205.053 650.947 205.053C653.052 204.632 654.737 204.211 656.421 203.789C679.579 199.579 695.158 185.263 697.684 165.474C701.052 141.895 691.789 126.316 669.052 116.211C665.263 114.526 661.052 112.842 656.842 111.579C654.737 110.737 652.631 109.895 650.526 109.053C648.421 108.211 646.315 107.368 644.21 106.526C638.737 104.421 633.684 102.316 628.21 100.211C621.052 97.2631 618.105 90.9474 619.368 82.9474C620.631 75.7895 625.263 70.7368 632.842 69.0526C642.526 66.5263 651.368 69.0526 656.842 75.7895C659.368 78.7368 661.473 82.1053 664 85.8947C664.842 87.1579 665.684 88.8421 666.526 90.1053L692.631 80C687.158 64 677.894 54.3158 663.158 49.2631C652.21 45.4737 647.579 45.0526 647.579 45.0526C646.737 44.2105 646.315 28.6316 646.315 28.6316H628.21V44.6316C625.263 46.3158 624.842 46.3158 624 46.3158C600.421 50.9474 586.947 64 584 85.0526C581.052 106.947 591.158 122.526 613.052 131.789C616 133.053 618.947 134.316 621.894 135.158C623.579 135.579 625.263 136.421 626.526 136.842C629.052 137.684 631.579 138.526 634.105 139.789C640.421 141.895 646.737 144.421 652.631 146.947C659.368 149.895 662.737 155.368 662.316 162.526C661.894 170.526 657.684 176 650.105 178.947C641.684 182.316 632.421 181.895 624.842 178.105C617.684 174.737 612.21 168.842 609.684 161.263C609.263 160 608.842 158.737 608 157.053C607.579 155.789 578.105 162.947 578.105 162.947C584.421 188.211 600.842 202.105 628.21 205.474C629.473 206.737 629.473 227.789 629.473 227.789Z" fill="#343B43"/>
<path d="M498.527 501.053C504.422 474.105 505.264 448.421 505.264 448C506.948 448.421 506.527 474.526 499.369 500.211C498.948 501.053 498.948 501.053 498.527 501.053Z" fill="#343B43"/>
<path d="M618.946 622.737C618.104 621.474 618.104 593.684 615.156 559.579C619.367 593.684 619.788 621.474 619.788 621.895C618.946 622.737 618.946 622.737 618.946 622.737Z" fill="#343B43"/>
<path d="M477.895 591.158C507.368 585.263 541.052 558.316 563.368 534.316C562.526 531.789 557.473 520.421 550.316 510.737C542.737 501.052 536.842 494.737 535.158 493.052C531.368 495.579 510.737 509.052 492.631 523.368C511.158 506.105 534.316 491.368 534.737 491.368C536 491.368 542.737 498.105 551.579 509.894C560 521.263 565.052 534.316 565.052 534.316C542.737 559.579 508.21 586.947 477.895 591.158Z" fill="#343B43"/>
<path d="M480 406.737C482.105 401.684 484.632 400 488.842 397.053C498.526 391.158 508.632 387.368 528 387.368C509.053 389.053 499.368 392.842 489.684 398.316C485.474 400.842 483.368 402.947 480.421 405.895C480.421 406.737 480 406.737 480 406.737Z" fill="#343B43"/>
<path d="M558.314 388.211C586.525 386.526 619.788 379.368 628.63 359.158C631.999 352 633.683 343.579 634.104 333.474C634.525 319.158 631.999 303.158 626.946 288.421C634.104 302.737 636.63 318.737 635.788 333.474C635.367 344 633.683 352.421 630.314 360C622.314 377.684 595.367 388.211 558.314 388.211Z" fill="#343B43"/>
<path d="M669.474 415.579C670.316 411.789 672 409.263 673.263 407.158C702.316 361.684 684.632 290.526 678.316 269.895C688 296 703.158 363.368 674.947 408C673.684 410.105 672 412.632 670.316 415.158C669.895 415.579 669.895 415.579 669.474 415.579Z" fill="#343B43"/>
<path d="M643.368 288.421C642.947 288 635.789 282.948 628.21 278.316C621.053 273.684 616.842 266.105 618.947 261.053C618.947 261.053 627.368 240.421 634.947 239.579C636.211 239.579 637.895 239.579 639.579 242.105C645.895 251.369 634.947 266.948 634.105 267.79C632.842 266.526 643.368 251.369 637.895 243.369C637.053 242.105 636.211 241.684 634.947 241.684C629.895 242.105 622.316 256.842 620.632 261.895C619.368 265.684 621.895 272 629.474 277.053C637.053 281.684 644.211 287.158 644.211 287.158C643.789 288.421 643.368 288.421 643.368 288.421Z" fill="#343B43"/>
<path d="M675.369 275.368C675.79 261.053 673.685 244.211 673.685 243.79C675.369 243.79 677.474 260.632 676.632 274.526C676.211 274.947 675.79 275.368 675.369 275.368Z" fill="#343B43"/>
<path d="M561.686 529.263C573.475 525.473 598.738 501.052 600.423 494.737C601.686 490.526 597.896 488.842 597.896 488.421C598.738 485.473 598.738 483.368 597.475 482.105C597.054 481.684 596.212 481.263 595.791 480.842C594.949 480.421 593.686 480.842 592.422 481.263C593.265 478.737 594.949 478.315 596.212 479.158C597.054 479.579 597.896 480 598.738 480.842C600.422 482.947 600.844 485.473 599.58 487.579C601.265 488.842 603.37 491.368 602.107 495.158C600.422 501.894 574.738 527.158 561.686 529.263C562.107 529.263 561.686 529.263 561.686 529.263Z" fill="#343B43"/>
<path d="M572.631 498.105C575.578 494.316 584.842 486.316 587.789 483.789C590.736 481.263 593.263 478.737 593.263 476.632C593.263 475.789 592.842 474.947 591.999 473.684C589.052 471.158 586.947 472.421 583.157 476.21C582.736 476.632 581.894 477.474 581.052 478.316C578.105 481.263 573.894 485.474 570.947 487.579C567.157 490.526 561.263 493.895 557.052 493.895C554.526 493.895 553.684 491.368 553.684 490.105C555.368 490.526 555.789 491.789 557.473 491.789C560.42 491.789 565.473 489.263 570.105 485.895C572.631 483.789 576.841 479.579 579.789 476.632C580.631 475.789 581.473 474.947 581.894 474.526C584.841 472 588.631 467.789 593.263 472C594.526 473.263 595.368 474.526 595.368 476.21C595.368 479.158 592.42 481.684 590.736 483.368C586.947 487.158 577.263 495.158 573.894 497.263C573.052 497.684 573.052 498.105 572.631 498.105Z" fill="#343B43"/>
<path d="M538.947 496C540.631 491.368 542.316 486.316 544 481.684C544.842 479.579 545.263 477.894 546.105 476.631C546.526 475.789 546.526 474.947 546.947 474.105C548.21 470.737 549.474 466.105 554.947 466.947C551.158 468.21 549.895 470.737 548.631 474.526C548.21 475.368 548.21 476.21 547.789 477.052C547.368 478.316 546.526 480 546.105 482.105C544.421 486.737 542.737 492.21 540.21 495.158C539.368 495.579 538.947 496 538.947 496Z" fill="#343B43"/>
<path d="M578.949 506.526C578.527 504.842 583.159 501.052 588.212 496.842C592.422 493.474 597.475 487.158 597.475 487.158C597.054 490.526 592.843 495.579 589.054 498.526C584.001 502.737 578.949 506.526 578.949 506.526C578.949 506.526 579.37 506.526 578.949 506.526Z" fill="#343B43"/>
<path d="M631.997 290.105C629.47 290.105 627.365 289.684 626.944 288C626.102 285.895 628.628 283.368 634.102 280.421C628.207 285.895 628.628 287.579 628.628 287.579C629.049 288.842 638.733 288.842 655.154 282.947C661.891 280.421 668.207 277.895 672.839 274.947C678.312 272 678.733 270.316 678.733 269.895C678.312 269.052 678.312 269.052 676.628 269.052C679.154 267.368 679.997 267.368 680.418 269.052C681.26 271.158 678.733 273.263 673.681 276.631C669.049 279.158 662.733 282.105 655.575 284.631C649.26 287.158 638.312 290.105 631.997 290.105Z" fill="#343B43"/>
<path d="M653.051 270.737C646.314 261.895 650.524 248.842 650.946 248.421C652.63 249.263 648.419 261.474 653.893 269.474C653.472 270.737 653.472 270.737 653.051 270.737Z" fill="#343B43"/>
<path d="M809.26 330.947C801.26 330.947 794.523 324.21 794.523 316.21C794.523 308.21 801.26 301.474 809.26 301.474C817.26 301.474 823.997 308.21 823.997 316.21C823.997 324.632 817.26 330.947 809.26 330.947ZM809.26 303.579C802.102 303.579 796.208 309.474 796.208 316.632C796.208 323.789 802.102 329.684 809.26 329.684C816.418 329.684 822.313 323.789 822.313 316.632C822.313 309.053 816.418 303.579 809.26 303.579Z" fill="#343B43"/>
<path d="M25.2632 250.105C17.2632 250.105 10.5264 243.368 10.5264 235.368C10.5264 227.368 17.2632 220.632 25.2632 220.632C33.2632 220.632 40 227.368 40 235.368C40 243.789 33.2632 250.105 25.2632 250.105ZM25.2632 222.737C18.1053 222.737 12.2106 228.632 12.2106 235.789C12.2106 242.526 18.1053 248.421 25.2632 248.421C32.4211 248.421 38.3158 242.526 38.3158 235.368C38.3158 228.211 32.4211 222.737 25.2632 222.737Z" fill="#343B43"/>
<path d="M788.634 624H70.7393C70.7393 622.316 788.634 622.316 788.634 622.316C789.476 623.579 789.055 624 788.634 624Z" fill="#343B43"/>
<path d="M283.79 346.526C278.316 346.526 272.843 344.421 268.632 340.21L256.421 328C257.685 326.737 269.895 338.947 269.895 338.947C277.474 346.526 290.106 346.526 297.685 338.947L416.843 222.737C424.421 215.158 424.421 202.526 416.843 194.947L408.843 186.947C405.053 183.158 400 181.053 394.948 181.053C389.895 181.053 384.843 183.158 381.053 186.947L284.211 280.842C282.948 280.842 247.579 245.474 247.579 245.474C243.79 241.684 238.737 239.579 233.685 239.579C228.632 239.579 223.579 241.684 219.79 245.474L211.79 253.474C208 257.263 205.895 262.316 205.895 267.368C205.895 272.421 208 277.474 211.79 281.263L231.158 300.632C229.895 301.895 210.527 282.105 210.527 282.105C206.316 277.895 204.211 272.842 204.211 266.947C204.211 261.053 206.316 256 210.527 251.789L218.527 243.789C222.737 239.579 227.79 237.474 233.685 237.474C239.579 237.474 244.632 239.579 248.843 243.789L283.79 278.737L379.79 185.263C384 181.053 389.053 178.947 394.948 178.947C400.843 178.947 405.895 181.053 410.106 185.263L418.106 193.263C426.527 201.684 426.527 215.158 418.106 223.579L298.948 340.21C294.737 344.421 289.264 346.526 283.79 346.526Z" fill="#343B43"/>
<path d="M451.37 539.789C417.265 539.789 373.896 517.474 345.265 495.158C344.844 494.316 346.949 480.421 352.844 469.053C360.844 453.474 374.738 446.316 375.581 445.895C376.423 445.895 412.212 464 412.212 464C411.37 465.684 376.002 448 376.002 448C373.475 449.263 361.686 456.421 354.528 469.895C349.475 480 346.949 491.789 346.528 494.316C374.739 516.632 417.686 538.526 450.949 538.526C451.791 538.526 452.633 538.526 453.054 538.526C472.423 538.105 484.633 532.632 490.949 522.526C485.475 534.316 473.265 539.789 453.054 540.632C453.054 539.789 452.212 539.789 451.37 539.789Z" fill="#343B43"/>
<path d="M492.213 523.368C496.844 513.684 498.529 501.474 496.844 484.632C493.055 447.158 481.686 414.316 481.686 413.895C472.844 386.526 444.634 373.474 428.634 373.053C445.476 371.789 474.529 385.263 483.371 413.474C483.371 413.895 494.739 446.737 498.529 484.632C500.213 501.474 498.529 514.105 493.055 522.947C493.055 523.368 492.634 523.368 492.213 523.368Z" fill="#343B43"/>
<path d="M442.528 457.263C440.002 442.106 442.949 424.421 442.949 424.421C444.633 424.842 441.686 442.527 443.791 456.421C442.528 457.263 442.528 457.263 442.528 457.263Z" fill="#343B43"/>
<path d="M396.632 315.79C395.79 315.79 395.369 315.79 395.369 318.737C395.369 321.684 395.79 322.105 396.632 322.105C397.474 322.105 397.895 321.263 397.895 319.158C397.895 317.053 397.895 315.79 396.632 315.79Z" fill="#343B43"/>
<path d="M375.581 316.21C374.738 316.21 374.317 316.632 374.317 319.158C374.317 322.105 374.738 322.526 375.581 322.526C376.423 322.526 376.844 321.684 376.844 319.579C376.844 317.053 376.844 316.21 375.581 316.21Z" fill="#343B43"/>
<path d="M417.683 362.526C416.84 361.684 415.156 335.579 415.156 335.579C416.84 335.579 418.525 361.263 418.525 361.263C417.683 362.526 417.683 362.526 417.683 362.526Z" fill="#343B43"/>
<path d="M384.841 357.895C380.209 357.895 375.157 357.053 372.209 352.842C368.841 348.21 368.841 341.895 368.841 336C368.841 334.737 368.841 333.474 368.841 332.631C368.841 328.842 369.262 304.421 369.262 303.579C370.946 304 370.525 328.842 370.946 332.631C370.946 333.895 370.946 335.158 370.946 336.421C370.946 341.895 370.946 347.789 373.893 352C376.841 356.631 382.315 356.631 387.788 356.21C388.63 356.21 389.051 356.21 389.893 356.21C394.525 356.21 397.893 355.789 401.262 354.947C398.315 357.474 394.525 357.895 389.893 357.895C389.051 357.895 388.63 357.895 387.788 357.895C386.525 357.895 385.683 357.895 384.841 357.895Z" fill="#343B43"/>
<path d="M420.63 337.684C418.103 337.684 415.577 336.842 413.472 335.158C418.103 336.421 423.156 336.421 426.945 333.474C431.156 330.105 431.577 323.79 428.209 319.579C426.524 317.474 423.998 316.211 421.472 316.211C418.945 315.79 416.419 316.632 414.314 318.316C413.051 319.579 411.787 320.842 411.366 322.526C410.524 320 411.787 318.316 413.051 317.053C415.577 314.947 418.524 314.105 421.472 314.526C424.419 314.947 427.366 316.211 429.472 318.737C431.577 321.263 432.419 324.211 431.998 327.158C431.577 330.105 430.314 333.053 427.787 335.158C426.103 336.842 423.577 337.684 420.63 337.684Z" fill="#343B43"/>
<path d="M370.104 312.842C369.262 311.579 371.367 306.947 377.683 308.632C372.209 309.053 370.946 312 370.946 312.421C370.946 312.842 370.525 312.842 370.104 312.842Z" fill="#343B43"/>
<path d="M401.265 313.263C396.213 307.368 392.002 310.316 392.002 310.316C391.16 308.632 396.634 305.263 402.107 312C401.686 313.263 401.686 313.263 401.265 313.263Z" fill="#343B43"/>
<path d="M382.735 362.526C381.893 361.684 381.893 357.053 381.893 357.053C383.577 357.053 383.577 361.684 383.577 361.684C382.735 362.526 382.735 362.526 382.735 362.526Z" fill="#343B43"/>
<path d="M428.209 318.737C432.42 311.579 433.683 303.579 431.999 296.421C430.314 290.527 426.525 286.737 421.472 285.053C418.946 284.211 415.577 283.79 412.209 284.211C410.525 284.211 406.735 284.632 406.735 284.632C406.735 282.948 410.525 282.527 412.209 282.527C415.999 282.105 418.946 282.527 421.893 283.369C427.367 285.053 431.577 289.684 433.262 296C435.367 303.579 433.683 312.421 429.051 318.316C429.051 318.316 428.63 318.737 428.209 318.737Z" fill="#343B43"/>
<path d="M424 332.632C423.579 332.632 415.158 328.421 415.158 328.421C414.736 327.158 422.315 319.158 422.315 319.158C423.579 320.421 416.842 327.579 416.842 327.579L424 330.948C424.842 332.211 424.421 332.632 424 332.632Z" fill="#343B43"/>
<path d="M402.528 289.684C401.686 288.421 406.318 282.526 406.318 282.526C407.581 283.79 403.37 289.263 403.37 289.263C402.949 289.684 402.528 289.684 402.528 289.684Z" fill="#343B43"/>
<path d="M443.791 493.895C440.844 493.895 437.476 492.632 435.37 490.105C435.37 490.105 431.581 485.895 432.002 482.526C433.265 484.632 435.37 487.579 436.633 488.842C438.318 490.526 441.265 491.789 443.791 491.789C446.739 491.789 448.844 490.526 449.686 488.421C450.107 487.158 450.528 485.474 450.528 484.211C450.528 474.947 447.16 463.579 438.318 458.526C429.897 453.895 422.318 456.842 422.318 456.842C421.897 455.158 429.897 451.79 439.16 456.842C448.844 462.316 452.212 474.105 452.212 483.789C452.212 485.474 452.212 487.158 451.37 488.842C450.107 491.368 447.581 493.053 444.633 493.053C444.212 493.474 444.212 493.895 443.791 493.895Z" fill="#343B43"/>
<path d="M401.266 460.211C404.634 451.79 410.108 448.842 417.266 449.263C422.318 449.684 425.687 451.369 429.055 455.158C424.845 452.632 421.476 451.369 417.266 450.948C410.95 450.527 405.897 453.474 402.108 459.79C402.108 460.211 401.687 460.211 401.266 460.211Z" fill="#343B43"/>
<path d="M319.156 524.211C308.208 524.211 298.945 522.526 293.892 517.895C272.419 496.842 294.734 455.579 302.313 441.684C310.734 426.105 340.208 375.579 376.84 369.684C341.471 377.263 311.998 427.368 303.998 442.526C284.629 478.737 281.682 503.158 295.577 516.632C310.313 530.947 375.577 514.105 375.998 514.105C374.313 516.211 343.577 524.211 319.156 524.211Z" fill="#343B43"/>
<path d="M412.213 320C404.634 312.421 400.002 300.211 398.318 296C395.371 299.368 385.687 307.789 369.687 304C388.634 306.526 397.897 293.474 397.897 293.474C399.581 293.895 404.634 309.895 412.634 318.316C412.634 320 412.634 320 412.213 320Z" fill="#343B43"/>
<path d="M316.629 624C323.366 584.421 324.629 523.789 324.629 522.947C326.313 523.789 325.05 584.421 317.471 623.158C317.471 623.579 317.05 624 316.629 624Z" fill="#343B43"/>
<path d="M479.161 624C478.318 606.316 472.845 536.842 472.845 536C474.529 536.421 480.003 606.316 480.003 623.158C480.003 623.579 479.582 624 479.161 624Z" fill="#343B43"/>
<path d="M407.578 419.789C406.736 419.368 390.736 392.842 390.736 392.842L376.842 412.631C375.157 412.21 374.736 372.631 374.736 372.631C374.736 372.21 381.894 361.263 381.894 361.263C383.578 361.684 391.157 389.052 391.157 389.052L417.263 360.421C418.526 360.421 429.052 371.368 429.052 371.368C429.052 372.21 408.421 418.947 408.421 418.947C407.578 419.789 407.578 419.789 407.578 419.789ZM391.999 391.158L407.578 416.842L427.368 372.21L418.105 362.526L391.999 391.158ZM376.842 373.052L377.263 409.263L390.315 391.158L383.157 364.21L376.842 373.052Z" fill="#343B43"/>
<path d="M391.999 450.105C396.631 430.316 403.367 413.474 403.367 413.052C405.052 413.895 398.315 430.737 392.841 449.263C392.841 449.684 392.42 450.105 391.999 450.105Z" fill="#343B43"/>
<path d="M374.735 445.895C374.314 422.316 376.42 410.105 376.42 410.105C378.104 410.527 375.999 422.737 375.577 445.053C375.577 445.474 375.156 445.895 374.735 445.895Z" fill="#343B43"/>
<path d="M417.262 450.947C416.841 450.947 397.894 450.105 381.473 450.105C398.315 448.421 417.262 449.263 417.262 449.263C418.104 450.526 417.683 450.947 417.262 450.947Z" fill="#343B43"/>
<path d="M305.264 480.421C308.632 465.263 314.527 456.842 324.211 452.632C324.632 452.632 326.316 452.211 326.316 452.211C343.158 449.263 357.474 463.158 357.895 463.579C356.632 464.842 342.316 451.368 326.316 453.895C315.79 458.105 309.895 466.105 306.106 479.579C305.685 480 305.264 480.421 305.264 480.421Z" fill="#343B43"/>
<path d="M322.95 453.895C322.108 453.053 319.582 445.474 330.95 440.421C341.897 435.79 354.529 443.79 354.95 444.211C353.687 445.474 341.476 437.895 331.792 442.105C322.108 446.316 323.792 452.632 324.213 452.632C323.371 453.895 322.95 453.895 322.95 453.895Z" fill="#343B43"/>
<path d="M375.576 447.579C374.734 447.158 369.26 440.421 356.208 436.211C343.997 432 336.839 440.842 336.839 440.842C335.576 439.579 343.155 429.474 357.05 434.526C370.103 439.158 375.997 445.895 376.418 446.316C375.997 447.158 375.997 447.579 375.576 447.579Z" fill="#343B43"/>
<path d="M392.419 419.789L381.892 418.947C381.05 418.105 379.787 405.052 379.787 405.052C381.471 405.052 382.734 417.263 382.734 417.263L391.577 418.105L399.577 407.158C400.84 408 392.84 419.789 392.84 419.789C393.261 419.789 392.84 419.789 392.419 419.789Z" fill="#343B43"/>
<path d="M394.525 441.684C393.683 440.842 391.999 418.947 391.999 418.947C393.683 418.947 395.789 440.842 395.789 440.842C394.525 441.684 394.525 441.684 394.525 441.684Z" fill="#343B43"/>
<path d="M375.159 433.684C374.317 432.421 381.475 417.684 381.475 417.684C383.159 418.526 376.001 433.263 376.001 433.263C376.001 433.263 375.58 433.684 375.159 433.684Z" fill="#343B43"/>
<path d="M347.366 434.947C346.523 433.263 349.05 420.631 353.681 411.368C350.734 421.052 348.208 434.105 348.208 434.105C347.787 434.526 347.787 434.947 347.366 434.947Z" fill="#343B43"/>
<path d="M426.108 491.369C421.898 490.948 418.951 489.263 417.687 486.737C416.424 484.632 416.424 482.527 416.424 480.421C416.424 476.632 416.424 474.106 415.582 472C414.74 469.053 412.635 466.948 411.372 464.842C414.319 465.684 416.424 468.211 417.266 471.158C418.108 473.685 418.108 476.211 418.108 478.737C418.108 482.527 418.529 484.211 418.951 485.474C420.214 487.579 422.319 488.842 425.266 488.842C426.529 488.842 427.793 488.842 428.635 488C429.898 487.158 431.161 485.474 431.582 482.948C432.003 481.684 432.003 480.421 432.003 478.737C432.424 474.948 432.003 467.369 427.793 462.316C424.424 458.106 419.372 455.579 414.74 455.579C408.003 455.579 405.898 460.632 405.898 460.632C404.214 459.79 406.74 453.895 414.74 453.895C420.214 453.895 425.687 456.842 429.477 461.474C432.845 465.684 434.529 472 434.108 479.158C434.108 480.842 433.687 482.106 433.687 483.79C432.845 486.737 431.582 488.842 429.898 490.106C429.056 490.948 427.793 491.369 426.108 491.369Z" fill="#343B43"/>
<path d="M389.471 344.421C388.629 344.421 387.366 344.421 386.103 344C388.629 343.158 390.313 342.737 391.576 342.316C393.682 341.053 394.103 338.105 394.103 338.105C395.787 338.527 395.366 342.316 392.418 344C391.576 344 390.734 344.421 389.471 344.421Z" fill="#343B43"/>
<path d="M455.577 488.842C453.892 488.842 452.208 488.421 450.945 488C453.471 486.737 456.419 487.579 458.524 486.316C460.629 485.053 461.05 482.105 461.05 480.842C461.471 472.842 455.577 465.684 452.208 462.316C447.155 456.842 439.155 459.369 438.734 459.369C438.734 457.684 447.155 454.737 453.471 461.053C457.261 464.842 463.155 472.421 462.734 481.263C462.734 484.632 461.05 486.737 459.366 488C458.103 488.421 456.84 488.842 455.577 488.842Z" fill="#343B43"/>
<path d="M384.003 336C381.898 336 378.529 335.579 376.845 333.895C376.003 333.053 376.003 332.21 376.003 330.947C376.845 326.316 381.056 312.842 381.056 312.421C382.74 313.263 378.529 327.158 377.687 331.368C379.371 334.316 384.003 334.316 385.266 333.895C385.687 336 385.266 336 384.003 336Z" fill="#343B43"/>
<path d="M369.262 314.526C368.42 314.105 354.526 294.737 367.578 282.947C379.789 271.579 395.368 271.579 406.315 282.526C394.526 273.684 380.21 273.684 368.841 284.211C357.052 295.158 369.683 312.842 370.104 313.263C369.683 314.526 369.683 314.526 369.262 314.526Z" fill="#343B43"/>
<path d="M101.472 488.421C100.63 488 39.9987 426.948 39.9987 426.948C39.1566 426.106 38.3145 424.842 38.3145 423.579C38.3145 422.316 38.7355 421.053 39.9987 420.211C42.1039 418.106 45.0513 418.106 47.1566 420.211L102.735 475.79C101.472 477.053 45.4723 421.053 45.4723 421.053C44.2092 419.79 42.1039 419.79 40.8408 421.053C40.4197 421.474 39.9987 422.316 39.9987 423.158C39.9987 424 40.4197 424.842 40.8408 425.263L101.893 486.737C101.893 488.421 101.472 488.421 101.472 488.421Z" fill="#343B43"/>
<path d="M37.4746 219.368C38.7378 215.158 41.2641 212.632 43.3693 210.105C42.5272 213.474 40.422 216 37.8957 218.947L37.4746 219.368ZM51.3693 203.79C53.0536 200 56.0009 197.474 58.5272 195.368C57.2641 198.737 54.3167 201.263 52.2115 203.79C51.7904 203.79 51.3693 203.79 51.3693 203.79ZM66.9483 190.737C69.0536 186.947 72.0009 185.263 74.9483 183.158C72.843 186.526 69.8957 188.211 67.3693 190.316C67.3693 190.316 67.3693 190.737 66.9483 190.737ZM84.6325 179.789C87.1588 176.421 90.5272 175.158 93.8957 173.895C91.3693 176.842 88.0009 178.105 84.6325 179.789C85.0536 179.789 85.0536 179.789 84.6325 179.789ZM104.001 172.211C106.948 169.263 110.317 168.421 113.685 168C110.738 170.105 107.369 170.947 104.001 172.211ZM168.001 169.684C167.159 169.684 166.738 169.263 165.475 168.842C167.159 167.579 168.001 167.579 168.422 167.579C168.422 169.684 168.001 169.684 168.001 169.684ZM124.211 167.579C127.58 165.474 130.948 165.053 134.317 164.632C130.948 166.737 127.58 167.158 124.211 167.579ZM154.948 167.579C151.58 167.158 148.211 166.737 144.422 166.737C147.79 165.053 151.58 165.474 154.948 165.474C155.79 167.158 155.79 167.579 154.948 167.579Z" fill="#343B43"/>
<path d="M24.8421 399.579C24 399.158 21.8947 395.79 18.9474 389.895C23.5789 394.948 25.6842 397.895 25.6842 398.316C25.2632 399.579 24.8421 399.579 24.8421 399.579ZM15.5789 381.053C13.4737 377.263 12.2105 373.895 10.9474 370.948C13.8947 373.474 15.1579 376.842 16.4211 379.79C15.5789 381.053 15.5789 381.053 15.5789 381.053ZM8.42105 361.684C6.73684 357.895 5.47368 354.526 4.63158 351.158C7.1579 354.105 8 357.474 9.26316 360.842C8.42105 361.684 8.42105 361.684 8.42105 361.684ZM3.36842 341.474C1.68421 337.263 1.26316 333.895 0.842105 330.526C3.36842 333.474 3.78947 336.842 4.21053 340.211C3.36842 341.474 3.36842 341.474 3.36842 341.474ZM1.26316 320.842C0 317.895 0 315.369 0 313.263C0 312 0 310.737 0 309.474C1.68421 310.737 1.68421 312 1.68421 313.263C1.68421 315.369 1.68421 317.895 1.68421 320C1.26316 320.842 1.26316 320.842 1.26316 320.842ZM1.68421 300.211C1.26316 295.579 1.68421 292.211 2.10526 288.842C3.36842 292.632 2.94737 296 2.52632 299.369C2.52632 299.79 2.10526 300.211 1.68421 300.211ZM5.47368 280C5.47368 275.369 6.73684 272 7.57895 269.053C8 272.842 7.1579 276.211 6.31579 279.579C5.89474 279.579 5.89474 280 5.47368 280ZM12.2105 260.211C11.7895 257.684 12.2105 256.842 13.0526 255.579C13.4737 254.316 14.3158 253.474 14.7368 252.211C15.5789 254.316 15.1579 255.158 14.7368 256.421C14.3158 257.684 13.4737 258.526 13.0526 259.79C13.0526 260.211 12.6316 260.211 12.2105 260.211Z" fill="#343B43"/>
<path d="M212.208 400.421C169.26 367.579 143.997 316.632 143.997 264C143.997 170.105 220.629 93.4736 314.523 93.4736C408.418 93.4736 485.05 170.105 485.05 264C485.05 304.842 470.313 344.421 443.366 375.579C468.629 344 482.944 304.421 482.944 264C482.944 170.947 407.155 95.1578 314.102 95.1578C221.05 95.1578 145.26 170.947 145.26 264C145.26 315.789 170.102 366.316 212.208 398.737C212.629 400 212.208 400.421 212.208 400.421Z" fill="#343B43"/>
<path d="M372.208 84.6317C371.366 83.3686 371.787 79.5791 373.893 73.2633C373.472 80.0001 373.05 83.7896 373.05 83.7896C373.05 84.2107 372.629 84.6317 372.208 84.6317ZM378.945 64.8422C379.787 60.6317 381.472 57.2633 383.156 54.3159C382.735 58.1054 381.472 61.0528 379.787 64.4212C379.366 64.8422 379.366 64.8422 378.945 64.8422ZM389.472 47.158C390.735 42.9475 393.261 40.4212 395.787 37.8949C394.524 41.6843 392.419 44.2107 390.314 46.737C390.314 47.158 389.893 47.158 389.472 47.158ZM403.787 32.4212C405.893 28.6317 408.84 26.5265 411.366 24.4212C409.682 27.7896 406.735 29.8949 404.208 32.0001C404.208 32.4212 404.208 32.4212 403.787 32.4212ZM547.787 29.4738C544.84 26.9475 541.893 24.8422 538.945 22.737C543.156 23.158 545.682 25.6843 548.208 27.7896C548.208 29.4738 547.787 29.4738 547.787 29.4738ZM421.05 21.0528C423.577 17.6843 426.945 16.4212 429.893 14.737C427.366 17.6843 424.419 19.3686 421.472 20.6317C421.472 21.0528 421.05 21.0528 421.05 21.0528ZM530.524 18.1054C527.156 16.4212 523.787 15.158 520.84 13.8949C524.629 13.4738 527.998 15.158 530.945 16.4212C531.366 17.6843 530.945 18.1054 530.524 18.1054ZM439.998 13.0528C442.524 10.5264 445.893 9.26329 448.84 8.84224C446.314 10.9475 443.366 11.7896 439.998 13.0528C440.419 13.0528 440.419 13.0528 439.998 13.0528ZM511.577 10.1054C508.208 9.26329 504.84 8.42119 501.471 7.57908C505.261 6.31592 508.629 7.15803 511.998 8.00013C512.419 10.1054 511.998 10.1054 511.577 10.1054ZM460.208 8.00013C463.577 5.47382 466.945 5.05277 470.314 5.05277C467.366 7.15803 463.998 7.57908 460.208 8.00013ZM491.366 6.73698C488.419 6.31592 485.05 6.31592 482.103 6.31592C485.472 4.63171 488.419 4.63171 491.787 5.05277C492.208 6.31592 491.787 6.73698 491.366 6.73698Z" fill="#343B43"/>
<path d="M640.841 250.105C705.683 247.158 758.314 193.263 758.314 128.421C758.314 62.3158 704.42 8.42103 638.314 8.42103C572.209 8.42103 518.314 62.3158 518.314 128.421C518.314 189.895 564.209 240.842 624.841 247.579C562.946 242.526 516.209 190.316 516.209 128.421C516.209 61.0526 570.946 6.73682 637.893 6.73682C705.262 6.73682 759.577 61.4737 759.577 128.421C759.577 160.421 747.367 190.737 724.63 213.895C702.735 236.632 672.841 249.684 640.841 250.105Z" fill="#343B43"/>
<path d="M729.687 464C732.213 460.631 735.16 458.947 738.108 457.263C736.423 460.631 733.055 462.316 729.687 464C730.108 464 729.687 464 729.687 464ZM747.371 453.474C749.476 449.684 752.423 447.579 754.95 445.474C753.265 449.263 750.739 451.368 747.792 453.052C747.792 453.474 747.792 453.474 747.371 453.474ZM763.371 440C765.055 436.21 767.581 433.684 770.108 431.158C769.265 434.947 766.739 437.474 764.213 440C763.792 440 763.792 440 763.371 440ZM777.266 424.842C778.529 420.631 780.634 417.684 782.739 415.158C782.318 418.947 780.213 421.895 778.108 424.421C777.687 424.842 777.687 424.842 777.266 424.842ZM788.634 407.579C789.476 403.368 791.16 400 792.423 397.053C792.423 400.842 790.739 404.21 789.055 407.158C789.476 407.579 789.055 407.579 788.634 407.579ZM797.476 389.053C797.897 384.842 799.16 381.474 800.002 378.105C800.844 381.895 799.581 385.263 798.318 388.631C798.318 388.631 797.897 389.053 797.476 389.053ZM803.792 369.263C803.792 365.052 804.634 361.684 805.055 357.895C806.318 361.684 805.476 365.053 804.634 368.421C804.634 368.842 804.213 369.263 803.792 369.263ZM807.581 349.053C807.16 344.842 807.581 341.053 807.581 337.684C809.266 341.474 808.844 344.842 808.423 348.21C808.423 348.631 808.002 349.053 807.581 349.053Z" fill="#343B43"/>
<path d="M807.155 288.421C805.892 284.211 805.471 280.842 804.629 277.474C807.155 280.421 807.576 283.79 807.998 287.579C807.155 288.421 807.155 288.421 807.155 288.421ZM803.366 267.79C801.682 263.579 800.84 260.211 799.998 257.263C802.524 260.211 803.366 263.579 804.208 266.947C803.787 267.79 803.366 267.79 803.366 267.79ZM797.892 248C795.787 244.211 794.524 240.842 793.261 237.895C796.208 240.421 797.471 243.79 798.734 246.737C797.892 248 797.892 248 797.892 248ZM789.892 229.053C787.366 225.263 786.103 222.316 784.419 219.368C787.787 221.474 789.471 224.421 790.734 227.79C789.892 229.053 789.892 229.053 789.892 229.053ZM779.366 210.947C776.84 207.579 774.734 205.053 772.629 202.105C775.998 203.79 778.103 206.737 780.208 209.684C779.787 210.947 779.787 210.947 779.366 210.947ZM766.734 194.526C761.682 189.474 758.734 186.947 758.734 186.947C759.998 185.684 762.945 187.79 767.577 192.842C767.155 194.526 767.155 194.526 766.734 194.526Z" fill="#343B43"/>
<path d="M525.892 332.21C525.05 331.368 524.208 318.737 518.734 309.895C520.419 308.631 525.471 312.421 527.577 317.053L561.261 309.895C560.84 306.947 559.155 296.421 550.734 291.368C543.998 287.158 534.734 287.579 522.945 292.21C534.734 285.474 544.419 285.474 551.576 290.105C561.682 296.421 562.945 310.316 562.945 310.737C562.103 311.579 527.155 319.158 527.155 319.158C525.471 316.632 523.787 314.526 522.524 313.263C526.313 321.684 526.734 330.947 526.734 331.368C525.892 332.21 525.892 332.21 525.892 332.21Z" fill="#343B43"/>
<defs>
<linearGradient id="paint0_linear_156_660" x1="156.209" y1="371.216" x2="484.867" y2="156.409" gradientUnits="userSpaceOnUse">
<stop stop-color="#234DAE"/>
<stop offset="1" stop-color="#347BCE"/>
</linearGradient>
<linearGradient id="paint1_linear_156_660" x1="111.027" y1="576.525" x2="310.592" y2="467.755" gradientUnits="userSpaceOnUse">
<stop stop-color="#234DAE"/>
<stop offset="1" stop-color="#347BCE"/>
</linearGradient>
<linearGradient id="paint2_linear_156_660" x1="473.685" y1="550.324" x2="729.187" y2="448.274" gradientUnits="userSpaceOnUse">
<stop stop-color="#234DAE"/>
<stop offset="1" stop-color="#347BCE"/>
</linearGradient>
<linearGradient id="paint3_linear_156_660" x1="375.156" y1="437.26" x2="407.103" y2="428.247" gradientUnits="userSpaceOnUse">
<stop stop-color="#234DAE"/>
<stop offset="1" stop-color="#347BCE"/>
</linearGradient>
<linearGradient id="paint4_linear_156_660" x1="554.95" y1="381.841" x2="576.196" y2="372.155" gradientUnits="userSpaceOnUse">
<stop stop-color="#234DAE"/>
<stop offset="1" stop-color="#347BCE"/>
</linearGradient>
<linearGradient id="paint5_linear_156_660" x1="589.474" y1="179.439" x2="732.929" y2="122.713" gradientUnits="userSpaceOnUse">
<stop stop-color="#234DAE"/>
<stop offset="1" stop-color="#347BCE"/>
</linearGradient>
</defs>
</svg>
